<svg width="154" height="74" viewBox="0 0 154 74" fill="none" xmlns="http://www.w3.org/2000/svg">
<rect x="0.5" y="0.5" width="153" height="73" rx="24.5" fill="black"/>
<path d="M26.74 37.02C26.74 35.66 27.0533 34.44 27.68 33.36C28.32 32.28 29.18 31.44 30.26 30.84C31.3533 30.2267 32.5467 29.92 33.84 29.92C35.32 29.92 36.6333 30.2867 37.78 31.02C38.94 31.74 39.78 32.7667 40.3 34.1H37.56C37.2 33.3667 36.7 32.82 36.06 32.46C35.42 32.1 34.68 31.92 33.84 31.92C32.92 31.92 32.1 32.1267 31.38 32.54C30.66 32.9533 30.0933 33.5467 29.68 34.32C29.28 35.0933 29.08 35.9933 29.08 37.02C29.08 38.0467 29.28 38.9467 29.68 39.72C30.0933 40.4933 30.66 41.0933 31.38 41.52C32.1 41.9333 32.92 42.14 33.84 42.14C34.68 42.14 35.42 41.96 36.06 41.6C36.7 41.24 37.2 40.6933 37.56 39.96H40.3C39.78 41.2933 38.94 42.32 37.78 43.04C36.6333 43.76 35.32 44.12 33.84 44.12C32.5333 44.12 31.34 43.82 30.26 43.22C29.18 42.6067 28.32 41.76 27.68 40.68C27.0533 39.6 26.74 38.38 26.74 37.02ZM47.7488 44.18C46.7088 44.18 45.7688 43.9467 44.9288 43.48C44.0888 43 43.4288 42.3333 42.9488 41.48C42.4688 40.6133 42.2288 39.6133 42.2288 38.48C42.2288 37.36 42.4754 36.3667 42.9688 35.5C43.4621 34.6333 44.1354 33.9667 44.9888 33.5C45.8421 33.0333 46.7954 32.8 47.8488 32.8C48.9021 32.8 49.8554 33.0333 50.7088 33.5C51.5621 33.9667 52.2354 34.6333 52.7288 35.5C53.2221 36.3667 53.4688 37.36 53.4688 38.48C53.4688 39.6 53.2154 40.5933 52.7088 41.46C52.2021 42.3267 51.5088 43 50.6288 43.48C49.7621 43.9467 48.8021 44.18 47.7488 44.18ZM47.7488 42.2C48.3354 42.2 48.8821 42.06 49.3888 41.78C49.9088 41.5 50.3288 41.08 50.6488 40.52C50.9688 39.96 51.1288 39.28 51.1288 38.48C51.1288 37.68 50.9754 37.0067 50.6688 36.46C50.3621 35.9 49.9554 35.48 49.4488 35.2C48.9421 34.92 48.3954 34.78 47.8088 34.78C47.2221 34.78 46.6754 34.92 46.1688 35.2C45.6754 35.48 45.2821 35.9 44.9888 36.46C44.6954 37.0067 44.5488 37.68 44.5488 38.48C44.5488 39.6667 44.8488 40.5867 45.4488 41.24C46.0621 41.88 46.8288 42.2 47.7488 42.2ZM58.0027 29.2V44H55.7227V29.2H58.0027ZM63.2761 29.2V44H60.9961V29.2H63.2761ZM76.3695 38.22C76.3695 38.6333 76.3429 39.0067 76.2895 39.34H67.8695C67.9362 40.22 68.2629 40.9267 68.8495 41.46C69.4362 41.9933 70.1562 42.26 71.0095 42.26C72.2362 42.26 73.1029 41.7467 73.6095 40.72H76.0695C75.7362 41.7333 75.1295 42.5667 74.2495 43.22C73.3829 43.86 72.3029 44.18 71.0095 44.18C69.9562 44.18 69.0095 43.9467 68.1695 43.48C67.3429 43 66.6895 42.3333 66.2095 41.48C65.7429 40.6133 65.5095 39.6133 65.5095 38.48C65.5095 37.3467 65.7362 36.3533 66.1895 35.5C66.6562 34.6333 67.3029 33.9667 68.1295 33.5C68.9695 33.0333 69.9295 32.8 71.0095 32.8C72.0495 32.8 72.9762 33.0267 73.7895 33.48C74.6029 33.9333 75.2362 34.5733 75.6895 35.4C76.1429 36.2133 76.3695 37.1533 76.3695 38.22ZM73.9895 37.5C73.9762 36.66 73.6762 35.9867 73.0895 35.48C72.5029 34.9733 71.7762 34.72 70.9095 34.72C70.1229 34.72 69.4495 34.9733 68.8895 35.48C68.3295 35.9733 67.9962 36.6467 67.8895 37.5H73.9895ZM77.8533 38.48C77.8533 37.3467 78.0799 36.3533 78.5333 35.5C78.9999 34.6333 79.6399 33.9667 80.4533 33.5C81.2666 33.0333 82.1999 32.8 83.2533 32.8C84.5866 32.8 85.6866 33.12 86.5533 33.76C87.4333 34.3867 88.0266 35.2867 88.3333 36.46H85.8733C85.6733 35.9133 85.3533 35.4867 84.9133 35.18C84.4733 34.8733 83.9199 34.72 83.2533 34.72C82.3199 34.72 81.5733 35.0533 81.0133 35.72C80.4666 36.3733 80.1933 37.2933 80.1933 38.48C80.1933 39.6667 80.4666 40.5933 81.0133 41.26C81.5733 41.9267 82.3199 42.26 83.2533 42.26C84.5733 42.26 85.4466 41.68 85.8733 40.52H88.3333C88.0133 41.64 87.4133 42.5333 86.5333 43.2C85.6533 43.8533 84.5599 44.18 83.2533 44.18C82.1999 44.18 81.2666 43.9467 80.4533 43.48C79.6399 43 78.9999 42.3333 78.5333 41.48C78.0799 40.6133 77.8533 39.6133 77.8533 38.48ZM93.2655 34.84V40.94C93.2655 41.3533 93.3588 41.6533 93.5455 41.84C93.7455 42.0133 94.0788 42.1 94.5455 42.1H95.9455V44H94.1455C93.1188 44 92.3321 43.76 91.7855 43.28C91.2388 42.8 90.9655 42.02 90.9655 40.94V34.84H89.6655V32.98H90.9655V30.24H93.2655V32.98H95.9455V34.84H93.2655ZM99.2069 31.52C98.7935 31.52 98.4469 31.38 98.1669 31.1C97.8869 30.82 97.7469 30.4733 97.7469 30.06C97.7469 29.6467 97.8869 29.3 98.1669 29.02C98.4469 28.74 98.7935 28.6 99.2069 28.6C99.6069 28.6 99.9469 28.74 100.227 29.02C100.507 29.3 100.647 29.6467 100.647 30.06C100.647 30.4733 100.507 30.82 100.227 31.1C99.9469 31.38 99.6069 31.52 99.2069 31.52ZM100.327 32.98V44H98.0469V32.98H100.327ZM108.1 44.18C107.06 44.18 106.12 43.9467 105.28 43.48C104.44 43 103.78 42.3333 103.3 41.48C102.82 40.6133 102.58 39.6133 102.58 38.48C102.58 37.36 102.827 36.3667 103.32 35.5C103.814 34.6333 104.487 33.9667 105.34 33.5C106.194 33.0333 107.147 32.8 108.2 32.8C109.254 32.8 110.207 33.0333 111.06 33.5C111.914 33.9667 112.587 34.6333 113.08 35.5C113.574 36.3667 113.82 37.36 113.82 38.48C113.82 39.6 113.567 40.5933 113.06 41.46C112.554 42.3267 111.86 43 110.98 43.48C110.114 43.9467 109.154 44.18 108.1 44.18ZM108.1 42.2C108.687 42.2 109.234 42.06 109.74 41.78C110.26 41.5 110.68 41.08 111 40.52C111.32 39.96 111.48 39.28 111.48 38.48C111.48 37.68 111.327 37.0067 111.02 36.46C110.714 35.9 110.307 35.48 109.8 35.2C109.294 34.92 108.747 34.78 108.16 34.78C107.574 34.78 107.027 34.92 106.52 35.2C106.027 35.48 105.634 35.9 105.34 36.46C105.047 37.0067 104.9 37.68 104.9 38.48C104.9 39.6667 105.2 40.5867 105.8 41.24C106.414 41.88 107.18 42.2 108.1 42.2ZM121.634 32.8C122.501 32.8 123.274 32.98 123.954 33.34C124.648 33.7 125.188 34.2333 125.574 34.94C125.961 35.6467 126.154 36.5 126.154 37.5V44H123.894V37.84C123.894 36.8533 123.648 36.1 123.154 35.58C122.661 35.0467 121.988 34.78 121.134 34.78C120.281 34.78 119.601 35.0467 119.094 35.58C118.601 36.1 118.354 36.8533 118.354 37.84V44H116.074V32.98H118.354V34.24C118.728 33.7867 119.201 33.4333 119.774 33.18C120.361 32.9267 120.981 32.8 121.634 32.8Z" fill="white"/>
<rect x="0.5" y="0.5" width="153" height="73" rx="24.5" stroke="white"/>
</svg>
