<svg width="108" height="75" viewBox="0 0 108 75" fill="none" xmlns="http://www.w3.org/2000/svg">
<rect x="0.5" y="1.34448" width="107" height="73" rx="24.5" fill="black" stroke="white"/>
<path d="M23.18 35.1445V38.6445H27.88V40.8645H23.18V44.5645H28.48V46.8445H20.38V32.8645H28.48V35.1445H23.18ZM37.1445 46.8445L34.8645 43.4045L32.8445 46.8445H29.8445L33.4645 41.2845L29.8045 35.7645H32.9645L35.2245 39.1845L37.2645 35.7645H40.2645L36.6245 41.2845L40.3045 46.8445H37.1445ZM44.6253 37.3645C44.9853 36.8578 45.4786 36.4378 46.1053 36.1045C46.7453 35.7578 47.472 35.5845 48.2853 35.5845C49.232 35.5845 50.0853 35.8178 50.8453 36.2845C51.6186 36.7511 52.2253 37.4178 52.6653 38.2845C53.1186 39.1378 53.3453 40.1311 53.3453 41.2645C53.3453 42.3978 53.1186 43.4045 52.6653 44.2845C52.2253 45.1511 51.6186 45.8245 50.8453 46.3045C50.0853 46.7845 49.232 47.0245 48.2853 47.0245C47.472 47.0245 46.752 46.8578 46.1253 46.5245C45.512 46.1911 45.012 45.7711 44.6253 45.2645V52.1245H41.8253V35.7645H44.6253V37.3645ZM50.4853 41.2645C50.4853 40.5978 50.3453 40.0245 50.0653 39.5445C49.7986 39.0511 49.4386 38.6778 48.9853 38.4245C48.5453 38.1711 48.0653 38.0445 47.5453 38.0445C47.0386 38.0445 46.5586 38.1778 46.1053 38.4445C45.6653 38.6978 45.3053 39.0711 45.0253 39.5645C44.7586 40.0578 44.6253 40.6378 44.6253 41.3045C44.6253 41.9711 44.7586 42.5511 45.0253 43.0445C45.3053 43.5378 45.6653 43.9178 46.1053 44.1845C46.5586 44.4378 47.0386 44.5645 47.5453 44.5645C48.0653 44.5645 48.5453 44.4311 48.9853 44.1645C49.4386 43.8978 49.7986 43.5178 50.0653 43.0245C50.3453 42.5311 50.4853 41.9445 50.4853 41.2645ZM58.18 32.0445V46.8445H55.38V32.0445H58.18ZM65.8664 47.0245C64.7997 47.0245 63.8397 46.7911 62.9864 46.3245C62.1331 45.8445 61.4597 45.1711 60.9664 44.3045C60.4864 43.4378 60.2464 42.4378 60.2464 41.3045C60.2464 40.1711 60.4931 39.1711 60.9864 38.3045C61.4931 37.4378 62.1797 36.7711 63.0464 36.3045C63.9131 35.8245 64.8797 35.5845 65.9464 35.5845C67.0131 35.5845 67.9797 35.8245 68.8464 36.3045C69.7131 36.7711 70.3931 37.4378 70.8864 38.3045C71.3931 39.1711 71.6464 40.1711 71.6464 41.3045C71.6464 42.4378 71.3864 43.4378 70.8664 44.3045C70.3597 45.1711 69.6664 45.8445 68.7864 46.3245C67.9197 46.7911 66.9464 47.0245 65.8664 47.0245ZM65.8664 44.5845C66.3731 44.5845 66.8464 44.4645 67.2864 44.2245C67.7397 43.9711 68.0997 43.5978 68.3664 43.1045C68.6331 42.6111 68.7664 42.0111 68.7664 41.3045C68.7664 40.2511 68.4864 39.4445 67.9264 38.8845C67.3797 38.3111 66.7064 38.0245 65.9064 38.0245C65.1064 38.0245 64.4331 38.3111 63.8864 38.8845C63.3531 39.4445 63.0864 40.2511 63.0864 41.3045C63.0864 42.3578 63.3464 43.1711 63.8664 43.7445C64.3997 44.3045 65.0664 44.5845 65.8664 44.5845ZM76.5003 37.4845C76.8603 36.8978 77.327 36.4378 77.9003 36.1045C78.487 35.7711 79.1536 35.6045 79.9003 35.6045V38.5445H79.1603C78.2803 38.5445 77.6136 38.7511 77.1603 39.1645C76.7203 39.5778 76.5003 40.2978 76.5003 41.3245V46.8445H73.7003V35.7645H76.5003V37.4845ZM92.0863 41.0645C92.0863 41.4645 92.0596 41.8245 92.0063 42.1445H83.9063C83.9729 42.9445 84.2529 43.5711 84.7463 44.0245C85.2396 44.4778 85.8463 44.7045 86.5663 44.7045C87.6063 44.7045 88.3463 44.2578 88.7863 43.3645H91.8063C91.4863 44.4311 90.8729 45.3111 89.9663 46.0045C89.0596 46.6845 87.9463 47.0245 86.6263 47.0245C85.5596 47.0245 84.5996 46.7911 83.7463 46.3245C82.9063 45.8445 82.2463 45.1711 81.7663 44.3045C81.2996 43.4378 81.0662 42.4378 81.0662 41.3045C81.0662 40.1578 81.2996 39.1511 81.7663 38.2845C82.2329 37.4178 82.8863 36.7511 83.7263 36.2845C84.5663 35.8178 85.5329 35.5845 86.6263 35.5845C87.6796 35.5845 88.6196 35.8111 89.4463 36.2645C90.2863 36.7178 90.9329 37.3645 91.3863 38.2045C91.8529 39.0311 92.0863 39.9845 92.0863 41.0645ZM89.1863 40.2645C89.1729 39.5445 88.9129 38.9711 88.4063 38.5445C87.8996 38.1045 87.2796 37.8845 86.5463 37.8845C85.8529 37.8845 85.2663 38.0978 84.7863 38.5245C84.3196 38.9378 84.0329 39.5178 83.9263 40.2645H89.1863Z" fill="white"/>
</svg>
