<svg width="112" height="111" viewBox="0 0 112 111" fill="none" xmlns="http://www.w3.org/2000/svg">
<path d="M2.98 101.024C2.47333 101.024 2.08667 100.884 1.82 100.604C1.55333 100.324 1.42 99.9311 1.42 99.4245V88.1645C1.42 87.6578 1.55333 87.2645 1.82 86.9845C2.08667 86.7045 2.47333 86.5645 2.98 86.5645C3.47333 86.5645 3.85333 86.7045 4.12 86.9845C4.38667 87.2645 4.52 87.6578 4.52 88.1645V92.4045H11.08V88.1645C11.08 87.6578 11.2133 87.2645 11.48 86.9845C11.7467 86.7045 12.1267 86.5645 12.62 86.5645C13.1267 86.5645 13.5133 86.7045 13.78 86.9845C14.0467 87.2645 14.18 87.6578 14.18 88.1645V99.4245C14.18 99.9311 14.0467 100.324 13.78 100.604C13.5133 100.884 13.1267 101.024 12.62 101.024C12.1267 101.024 11.7467 100.884 11.48 100.604C11.2133 100.324 11.08 99.9311 11.08 99.4245V94.9845H4.52V99.4245C4.52 99.9311 4.38667 100.324 4.12 100.604C3.86667 100.884 3.48667 101.024 2.98 101.024ZM17.4255 101.024C17.0521 101.024 16.7455 100.938 16.5055 100.764C16.2788 100.591 16.1321 100.358 16.0655 100.064C16.0121 99.7711 16.0721 99.4445 16.2455 99.0845L21.3655 87.8645C21.5788 87.4111 21.8321 87.0845 22.1255 86.8845C22.4188 86.6711 22.7588 86.5645 23.1455 86.5645C23.5321 86.5645 23.8721 86.6711 24.1655 86.8845C24.4588 87.0845 24.7055 87.4111 24.9055 87.8645L30.0655 99.0845C30.2388 99.4445 30.2988 99.7778 30.2455 100.084C30.2055 100.378 30.0721 100.611 29.8455 100.784C29.6188 100.944 29.3255 101.024 28.9655 101.024C28.5121 101.024 28.1588 100.918 27.9055 100.704C27.6655 100.491 27.4521 100.158 27.2655 99.7045L26.0655 96.9245L27.3055 97.7845H18.9655L20.2055 96.9245L19.0255 99.7045C18.8255 100.171 18.6121 100.511 18.3855 100.724C18.1721 100.924 17.8521 101.024 17.4255 101.024ZM23.1055 90.0445L20.5455 96.1445L20.0055 95.3645H26.2655L25.7255 96.1445L23.1455 90.0445H23.1055ZM33.6441 101.024C33.1374 101.024 32.7507 100.884 32.4841 100.604C32.2174 100.324 32.0841 99.9311 32.0841 99.4245V88.3245C32.0841 87.8045 32.2174 87.4111 32.4841 87.1445C32.7641 86.8778 33.1574 86.7445 33.6641 86.7445H38.5241C40.0974 86.7445 41.3107 87.1245 42.1641 87.8845C43.0174 88.6445 43.4441 89.7045 43.4441 91.0645C43.4441 91.9445 43.2507 92.7045 42.8641 93.3445C42.4774 93.9845 41.9174 94.4778 41.1841 94.8245C40.4641 95.1711 39.5774 95.3445 38.5241 95.3445L38.6841 95.0045H39.5041C40.0641 95.0045 40.5507 95.1445 40.9641 95.4245C41.3907 95.6911 41.7574 96.1045 42.0641 96.6645L43.3041 98.9645C43.4907 99.2978 43.5774 99.6245 43.5641 99.9445C43.5507 100.264 43.4307 100.524 43.2041 100.724C42.9774 100.924 42.6441 101.024 42.2041 101.024C41.7641 101.024 41.4041 100.931 41.1241 100.744C40.8574 100.558 40.6174 100.271 40.4041 99.8845L38.4841 96.3445C38.2841 95.9711 38.0374 95.7178 37.7441 95.5845C37.4641 95.4511 37.1174 95.3845 36.7041 95.3845H35.1841V99.4245C35.1841 99.9311 35.0507 100.324 34.7841 100.604C34.5307 100.884 34.1507 101.024 33.6441 101.024ZM35.1841 93.1445H37.9641C38.7907 93.1445 39.4107 92.9778 39.8241 92.6445C40.2507 92.3111 40.4641 91.8111 40.4641 91.1445C40.4641 90.4911 40.2507 89.9978 39.8241 89.6645C39.4107 89.3311 38.7907 89.1645 37.9641 89.1645H35.1841V93.1445ZM47.4498 101.024C46.9965 101.024 46.6498 100.898 46.4098 100.644C46.1698 100.391 46.0498 100.038 46.0498 99.5845V88.0045C46.0498 87.5511 46.1765 87.1978 46.4298 86.9445C46.6965 86.6911 47.0565 86.5645 47.5098 86.5645C47.9098 86.5645 48.2232 86.6445 48.4498 86.8045C48.6898 86.9511 48.9098 87.2111 49.1098 87.5845L53.7298 96.0245H53.0498L57.6698 87.5845C57.8698 87.2111 58.0832 86.9511 58.3098 86.8045C58.5498 86.6445 58.8632 86.5645 59.2498 86.5645C59.7032 86.5645 60.0498 86.6911 60.2898 86.9445C60.5432 87.1978 60.6698 87.5511 60.6698 88.0045V99.5845C60.6698 100.038 60.5498 100.391 60.3098 100.644C60.0698 100.898 59.7232 101.024 59.2698 101.024C58.8165 101.024 58.4632 100.898 58.2098 100.644C57.9698 100.391 57.8498 100.038 57.8498 99.5845V91.4845H58.2898L54.5698 98.1445C54.4098 98.3978 54.2365 98.5911 54.0498 98.7245C53.8765 98.8445 53.6432 98.9045 53.3498 98.9045C53.0565 98.9045 52.8165 98.8378 52.6298 98.7045C52.4432 98.5711 52.2765 98.3845 52.1298 98.1445L48.3698 91.4645H48.8498V99.5845C48.8498 100.038 48.7298 100.391 48.4898 100.644C48.2632 100.898 47.9165 101.024 47.4498 101.024ZM70.0694 101.064C68.6827 101.064 67.4627 100.764 66.4094 100.164C65.3694 99.5511 64.556 98.6978 63.9694 97.6045C63.396 96.5111 63.1094 95.2378 63.1094 93.7845C63.1094 92.6778 63.2694 91.6845 63.5894 90.8045C63.9227 89.9111 64.396 89.1511 65.0094 88.5245C65.6227 87.8845 66.356 87.3911 67.2094 87.0445C68.076 86.6978 69.0294 86.5245 70.0694 86.5245C71.4827 86.5245 72.7094 86.8245 73.7494 87.4245C74.7894 88.0245 75.596 88.8711 76.1694 89.9645C76.756 91.0445 77.0494 92.3111 77.0494 93.7645C77.0494 94.8711 76.8827 95.8711 76.5494 96.7645C76.216 97.6578 75.7427 98.4245 75.1294 99.0645C74.516 99.7045 73.7827 100.198 72.9294 100.544C72.076 100.891 71.1227 101.064 70.0694 101.064ZM70.0694 98.4245C70.856 98.4245 71.5227 98.2445 72.0694 97.8845C72.6294 97.5111 73.056 96.9778 73.3494 96.2845C73.656 95.5778 73.8094 94.7445 73.8094 93.7845C73.8094 92.3178 73.4827 91.1845 72.8294 90.3845C72.176 89.5711 71.256 89.1645 70.0694 89.1645C69.296 89.1645 68.6294 89.3445 68.0694 89.7045C67.5094 90.0645 67.0827 90.5911 66.7894 91.2845C66.496 91.9778 66.3494 92.8111 66.3494 93.7845C66.3494 95.2378 66.676 96.3778 67.3294 97.2045C67.9827 98.0178 68.896 98.4245 70.0694 98.4245ZM80.8873 101.024C80.4207 101.024 80.0607 100.898 79.8073 100.644C79.5673 100.378 79.4473 100.004 79.4473 99.5245V88.1245C79.4473 87.6178 79.5673 87.2311 79.8073 86.9645C80.0607 86.6978 80.394 86.5645 80.8073 86.5645C81.1673 86.5645 81.4407 86.6378 81.6273 86.7845C81.8273 86.9178 82.054 87.1445 82.3073 87.4645L89.3273 96.4045H88.7873V88.0445C88.7873 87.5778 88.9073 87.2178 89.1473 86.9645C89.4007 86.6978 89.7607 86.5645 90.2273 86.5645C90.694 86.5645 91.0473 86.6978 91.2873 86.9645C91.5407 87.2178 91.6673 87.5778 91.6673 88.0445V99.5845C91.6673 100.024 91.554 100.378 91.3273 100.644C91.1007 100.898 90.794 101.024 90.4073 101.024C90.034 101.024 89.734 100.951 89.5073 100.804C89.294 100.658 89.0607 100.424 88.8073 100.104L81.8073 91.1645H82.3273V99.5245C82.3273 100.004 82.2073 100.378 81.9673 100.644C81.7273 100.898 81.3673 101.024 80.8873 101.024ZM99.4059 101.024C98.8993 101.024 98.5126 100.884 98.2459 100.604C97.9793 100.324 97.8459 99.9245 97.8459 99.4045V93.6045L98.4859 95.3845L93.7659 88.6845C93.5793 88.4045 93.4993 88.1045 93.5259 87.7845C93.5526 87.4511 93.6859 87.1645 93.9259 86.9245C94.1659 86.6845 94.5059 86.5645 94.9459 86.5645C95.2659 86.5645 95.5526 86.6445 95.8059 86.8045C96.0726 86.9645 96.3259 87.2178 96.5659 87.5645L99.7659 92.1845H99.1259L102.326 87.5645C102.579 87.2045 102.826 86.9511 103.066 86.8045C103.319 86.6445 103.613 86.5645 103.946 86.5645C104.373 86.5645 104.706 86.6778 104.946 86.9045C105.186 87.1178 105.313 87.3911 105.326 87.7245C105.339 88.0445 105.226 88.3778 104.986 88.7245L100.326 95.3845L100.946 93.6045V99.4045C100.946 100.484 100.433 101.024 99.4059 101.024Z" fill="url(#paint0_linear_50_2)"/>
<path d="M39.7715 70.1716C37.7746 71.3317 35.2707 69.8951 35.2645 67.5857L35.1395 21.5092C35.1333 19.1998 37.6294 17.7496 39.6325 18.8989L79.5984 41.829C81.6016 42.9783 81.6094 45.865 79.6125 47.0251L39.7715 70.1716Z" fill="url(#paint1_linear_50_2)"/>
<defs>
<linearGradient id="paint0_linear_50_2" x1="56" y1="80.8445" x2="55.6599" y2="110.844" gradientUnits="userSpaceOnUse">
<stop stop-color="#00B2FF"/>
<stop offset="1" stop-color="#00BC6D" stop-opacity="0.99"/>
</linearGradient>
<linearGradient id="paint1_linear_50_2" x1="50.8809" y1="81.1408" x2="54.2077" y2="7.95167" gradientUnits="userSpaceOnUse">
<stop stop-color="#00BC6D" stop-opacity="0.99"/>
<stop offset="1" stop-color="#01004A"/>
</linearGradient>
</defs>
</svg>
