<svg width="277" height="60" viewBox="0 0 277 60" fill="none" xmlns="http://www.w3.org/2000/svg">
<rect x="0.5" y="0.5" width="276" height="59" rx="14.5" fill="#161616" stroke="white"/>
<path d="M58.9727 43.5513L47.5601 32.1387C49.3311 29.8491 50.2891 27.0498 50.2891 24.1055C50.2891 20.5811 48.9136 17.2764 46.4263 14.7847C43.939 12.293 40.6255 10.9219 37.1055 10.9219C33.5854 10.9219 30.272 12.2974 27.7847 14.7847C25.293 17.272 23.9219 20.5811 23.9219 24.1055C23.9219 27.6255 25.2974 30.939 27.7847 33.4263C30.272 35.918 33.5811 37.2891 37.1055 37.2891C40.0498 37.2891 42.8447 36.3311 45.1343 34.5645L56.5469 45.9727C56.5803 46.0061 56.6201 46.0327 56.6638 46.0508C56.7075 46.0689 56.7544 46.0783 56.8018 46.0783C56.8491 46.0783 56.896 46.0689 56.9397 46.0508C56.9834 46.0327 57.0232 46.0061 57.0566 45.9727L58.9727 44.061C59.0061 44.0276 59.0327 43.9878 59.0508 43.9441C59.0689 43.9004 59.0783 43.8535 59.0783 43.8062C59.0783 43.7588 59.0689 43.7119 59.0508 43.6682C59.0327 43.6245 59.0061 43.5847 58.9727 43.5513ZM44.0664 31.0664C42.2031 32.9253 39.7334 33.9492 37.1055 33.9492C34.4775 33.9492 32.0078 32.9253 30.1445 31.0664C28.2856 29.2031 27.2617 26.7334 27.2617 24.1055C27.2617 21.4775 28.2856 19.0034 30.1445 17.1445C32.0078 15.2856 34.4775 14.2617 37.1055 14.2617C39.7334 14.2617 42.2075 15.2812 44.0664 17.1445C45.9253 19.0078 46.9492 21.4775 46.9492 24.1055C46.9492 26.7334 45.9253 29.2075 44.0664 31.0664Z" fill="white"/>
<path d="M109.931 37.14C109.011 37.14 108.184 36.98 107.451 36.66C106.731 36.3267 106.164 35.8733 105.751 35.3C105.337 34.7133 105.124 34.04 105.111 33.28H107.051C107.117 33.9333 107.384 34.4867 107.851 34.94C108.331 35.38 109.024 35.6 109.931 35.6C110.797 35.6 111.477 35.3867 111.971 34.96C112.477 34.52 112.731 33.96 112.731 33.28C112.731 32.7467 112.584 32.3133 112.291 31.98C111.997 31.6467 111.631 31.3933 111.191 31.22C110.751 31.0467 110.157 30.86 109.411 30.66C108.491 30.42 107.751 30.18 107.191 29.94C106.644 29.7 106.171 29.3267 105.771 28.82C105.384 28.3 105.191 27.6067 105.191 26.74C105.191 25.98 105.384 25.3067 105.771 24.72C106.157 24.1333 106.697 23.68 107.391 23.36C108.097 23.04 108.904 22.88 109.811 22.88C111.117 22.88 112.184 23.2067 113.011 23.86C113.851 24.5133 114.324 25.38 114.431 26.46H112.431C112.364 25.9267 112.084 25.46 111.591 25.06C111.097 24.6467 110.444 24.44 109.631 24.44C108.871 24.44 108.251 24.64 107.771 25.04C107.291 25.4267 107.051 25.9733 107.051 26.68C107.051 27.1867 107.191 27.6 107.471 27.92C107.764 28.24 108.117 28.4867 108.531 28.66C108.957 28.82 109.551 29.0067 110.311 29.22C111.231 29.4733 111.971 29.7267 112.531 29.98C113.091 30.22 113.571 30.6 113.971 31.12C114.371 31.6267 114.571 32.32 114.571 33.2C114.571 33.88 114.391 34.52 114.031 35.12C113.671 35.72 113.137 36.2067 112.431 36.58C111.724 36.9533 110.891 37.14 109.931 37.14ZM127.249 31.1C127.249 31.4467 127.229 31.8133 127.189 32.2H118.429C118.496 33.28 118.862 34.1267 119.529 34.74C120.209 35.34 121.029 35.64 121.989 35.64C122.776 35.64 123.429 35.46 123.949 35.1C124.482 34.7267 124.856 34.2333 125.069 33.62H127.029C126.736 34.6733 126.149 35.5333 125.269 36.2C124.389 36.8533 123.296 37.18 121.989 37.18C120.949 37.18 120.016 36.9467 119.189 36.48C118.376 36.0133 117.736 35.3533 117.269 34.5C116.802 33.6333 116.569 32.6333 116.569 31.5C116.569 30.3667 116.796 29.3733 117.249 28.52C117.702 27.6667 118.336 27.0133 119.149 26.56C119.976 26.0933 120.922 25.86 121.989 25.86C123.029 25.86 123.949 26.0867 124.749 26.54C125.549 26.9933 126.162 27.62 126.589 28.42C127.029 29.2067 127.249 30.1 127.249 31.1ZM125.369 30.72C125.369 30.0267 125.216 29.4333 124.909 28.94C124.602 28.4333 124.182 28.0533 123.649 27.8C123.129 27.5333 122.549 27.4 121.909 27.4C120.989 27.4 120.202 27.6933 119.549 28.28C118.909 28.8667 118.542 29.68 118.449 30.72H125.369ZM128.971 31.48C128.971 30.36 129.198 29.38 129.651 28.54C130.105 27.6867 130.725 27.0267 131.511 26.56C132.311 26.0933 133.198 25.86 134.171 25.86C135.131 25.86 135.965 26.0667 136.671 26.48C137.378 26.8933 137.905 27.4133 138.251 28.04V26.04H140.091V37H138.251V34.96C137.891 35.6 137.351 36.1333 136.631 36.56C135.925 36.9733 135.098 37.18 134.151 37.18C133.178 37.18 132.298 36.94 131.511 36.46C130.725 35.98 130.105 35.3067 129.651 34.44C129.198 33.5733 128.971 32.5867 128.971 31.48ZM138.251 31.5C138.251 30.6733 138.085 29.9533 137.751 29.34C137.418 28.7267 136.965 28.26 136.391 27.94C135.831 27.6067 135.211 27.44 134.531 27.44C133.851 27.44 133.231 27.6 132.671 27.92C132.111 28.24 131.665 28.7067 131.331 29.32C130.998 29.9333 130.831 30.6533 130.831 31.48C130.831 32.32 130.998 33.0533 131.331 33.68C131.665 34.2933 132.111 34.7667 132.671 35.1C133.231 35.42 133.851 35.58 134.531 35.58C135.211 35.58 135.831 35.42 136.391 35.1C136.965 34.7667 137.418 34.2933 137.751 33.68C138.085 33.0533 138.251 32.3267 138.251 31.5ZM144.987 27.82C145.307 27.1933 145.76 26.7067 146.347 26.36C146.947 26.0133 147.674 25.84 148.527 25.84V27.72H148.047C146.007 27.72 144.987 28.8267 144.987 31.04V37H143.167V26.04H144.987V27.82ZM149.948 31.5C149.948 30.3667 150.175 29.38 150.628 28.54C151.081 27.6867 151.708 27.0267 152.508 26.56C153.321 26.0933 154.248 25.86 155.288 25.86C156.635 25.86 157.741 26.1867 158.608 26.84C159.488 27.4933 160.068 28.4 160.348 29.56H158.388C158.201 28.8933 157.835 28.3667 157.288 27.98C156.755 27.5933 156.088 27.4 155.288 27.4C154.248 27.4 153.408 27.76 152.768 28.48C152.128 29.1867 151.808 30.1933 151.808 31.5C151.808 32.82 152.128 33.84 152.768 34.56C153.408 35.28 154.248 35.64 155.288 35.64C156.088 35.64 156.755 35.4533 157.288 35.08C157.821 34.7067 158.188 34.1733 158.388 33.48H160.348C160.055 34.6 159.468 35.5 158.588 36.18C157.708 36.8467 156.608 37.18 155.288 37.18C154.248 37.18 153.321 36.9467 152.508 36.48C151.708 36.0133 151.081 35.3533 150.628 34.5C150.175 33.6467 149.948 32.6467 149.948 31.5ZM168.216 25.84C169.043 25.84 169.79 26.02 170.456 26.38C171.123 26.7267 171.643 27.2533 172.016 27.96C172.403 28.6667 172.596 29.5267 172.596 30.54V37H170.796V30.8C170.796 29.7067 170.523 28.8733 169.976 28.3C169.43 27.7133 168.683 27.42 167.736 27.42C166.776 27.42 166.01 27.72 165.436 28.32C164.876 28.92 164.596 29.7933 164.596 30.94V37H162.776V22.2H164.596V27.6C164.956 27.04 165.45 26.6067 166.076 26.3C166.716 25.9933 167.43 25.84 168.216 25.84Z" fill="white"/>
</svg>
