<svg width="103" height="75" viewBox="0 0 103 75" fill="none" xmlns="http://www.w3.org/2000/svg">
<rect x="0.5" y="1.34448" width="102" height="73" rx="24.5" fill="black" stroke="white"/>
<path d="M40.2 46.9845C39.2267 46.9845 38.3467 46.8178 37.56 46.4845C36.7867 46.1511 36.1733 45.6711 35.72 45.0445C35.2667 44.4178 35.0333 43.6778 35.02 42.8245H38.02C38.06 43.3978 38.26 43.8511 38.62 44.1845C38.9933 44.5178 39.5 44.6845 40.14 44.6845C40.7933 44.6845 41.3067 44.5311 41.68 44.2245C42.0533 43.9045 42.24 43.4911 42.24 42.9845C42.24 42.5711 42.1133 42.2311 41.86 41.9645C41.6067 41.6978 41.2867 41.4911 40.9 41.3445C40.5267 41.1845 40.0067 41.0111 39.34 40.8245C38.4333 40.5578 37.6933 40.2978 37.12 40.0445C36.56 39.7778 36.0733 39.3845 35.66 38.8645C35.26 38.3311 35.06 37.6245 35.06 36.7445C35.06 35.9178 35.2667 35.1978 35.68 34.5845C36.0933 33.9711 36.6733 33.5045 37.42 33.1845C38.1667 32.8511 39.02 32.6845 39.98 32.6845C41.42 32.6845 42.5867 33.0378 43.48 33.7445C44.3867 34.4378 44.8867 35.4111 44.98 36.6645H41.9C41.8733 36.1845 41.6667 35.7911 41.28 35.4845C40.9067 35.1645 40.4067 35.0045 39.78 35.0045C39.2333 35.0045 38.7933 35.1445 38.46 35.4245C38.14 35.7045 37.98 36.1111 37.98 36.6445C37.98 37.0178 38.1 37.3311 38.34 37.5845C38.5933 37.8245 38.9 38.0245 39.26 38.1845C39.6333 38.3311 40.1533 38.5045 40.82 38.7045C41.7267 38.9711 42.4667 39.2378 43.04 39.5045C43.6133 39.7711 44.1067 40.1711 44.52 40.7045C44.9333 41.2378 45.14 41.9378 45.14 42.8045C45.14 43.5511 44.9467 44.2445 44.56 44.8845C44.1733 45.5245 43.6067 46.0378 42.86 46.4245C42.1133 46.7978 41.2267 46.9845 40.2 46.9845ZM57.8675 41.0645C57.8675 41.4645 57.8408 41.8245 57.7875 42.1445H49.6875C49.7542 42.9445 50.0342 43.5711 50.5275 44.0245C51.0208 44.4778 51.6275 44.7045 52.3475 44.7045C53.3875 44.7045 54.1275 44.2578 54.5675 43.3645H57.5875C57.2675 44.4311 56.6542 45.3111 55.7475 46.0045C54.8408 46.6845 53.7275 47.0245 52.4075 47.0245C51.3408 47.0245 50.3808 46.7911 49.5275 46.3245C48.6875 45.8445 48.0275 45.1711 47.5475 44.3045C47.0808 43.4378 46.8475 42.4378 46.8475 41.3045C46.8475 40.1578 47.0808 39.1511 47.5475 38.2845C48.0142 37.4178 48.6675 36.7511 49.5075 36.2845C50.3475 35.8178 51.3142 35.5845 52.4075 35.5845C53.4608 35.5845 54.4008 35.8111 55.2275 36.2645C56.0675 36.7178 56.7142 37.3645 57.1675 38.2045C57.6342 39.0311 57.8675 39.9845 57.8675 41.0645ZM54.9675 40.2645C54.9542 39.5445 54.6942 38.9711 54.1875 38.5445C53.6808 38.1045 53.0608 37.8845 52.3275 37.8845C51.6342 37.8845 51.0475 38.0978 50.5675 38.5245C50.1008 38.9378 49.8142 39.5178 49.7075 40.2645H54.9675ZM62.7113 32.0445V46.8445H59.9113V32.0445H62.7113ZM68.2777 32.0445V46.8445H65.4777V32.0445H68.2777Z" fill="white"/>
</svg>
