<svg width="197" height="74" viewBox="0 0 197 74" fill="none" xmlns="http://www.w3.org/2000/svg">
<rect width="194" height="74" rx="25" fill="url(#paint0_linear_58_17)"/>
<path d="M19.7 38C19.7 36.6267 20.0067 35.4 20.62 34.32C21.2467 33.2267 22.0933 32.38 23.16 31.78C24.24 31.1667 25.4467 30.86 26.78 30.86C28.34 30.86 29.7067 31.26 30.88 32.06C32.0533 32.86 32.8733 33.9667 33.34 35.38H30.12C29.8 34.7133 29.3467 34.2133 28.76 33.88C28.1867 33.5467 27.52 33.38 26.76 33.38C25.9467 33.38 25.22 33.5733 24.58 33.96C23.9533 34.3333 23.46 34.8667 23.1 35.56C22.7533 36.2533 22.58 37.0667 22.58 38C22.58 38.92 22.7533 39.7333 23.1 40.44C23.46 41.1333 23.9533 41.6733 24.58 42.06C25.22 42.4333 25.9467 42.62 26.76 42.62C27.52 42.62 28.1867 42.4533 28.76 42.12C29.3467 41.7733 29.8 41.2667 30.12 40.6H33.34C32.8733 42.0267 32.0533 43.14 30.88 43.94C29.72 44.7267 28.3533 45.12 26.78 45.12C25.4467 45.12 24.24 44.82 23.16 44.22C22.0933 43.6067 21.2467 42.76 20.62 41.68C20.0067 40.6 19.7 39.3733 19.7 38ZM40.6516 45.18C39.5849 45.18 38.6249 44.9467 37.7716 44.48C36.9182 44 36.2449 43.3267 35.7516 42.46C35.2716 41.5933 35.0316 40.5933 35.0316 39.46C35.0316 38.3267 35.2782 37.3267 35.7716 36.46C36.2782 35.5933 36.9649 34.9267 37.8316 34.46C38.6982 33.98 39.6649 33.74 40.7316 33.74C41.7982 33.74 42.7649 33.98 43.6316 34.46C44.4982 34.9267 45.1782 35.5933 45.6716 36.46C46.1782 37.3267 46.4316 38.3267 46.4316 39.46C46.4316 40.5933 46.1716 41.5933 45.6516 42.46C45.1449 43.3267 44.4516 44 43.5716 44.48C42.7049 44.9467 41.7316 45.18 40.6516 45.18ZM40.6516 42.74C41.1582 42.74 41.6316 42.62 42.0716 42.38C42.5249 42.1267 42.8849 41.7533 43.1516 41.26C43.4182 40.7667 43.5516 40.1667 43.5516 39.46C43.5516 38.4067 43.2716 37.6 42.7116 37.04C42.1649 36.4667 41.4916 36.18 40.6916 36.18C39.8916 36.18 39.2182 36.4667 38.6716 37.04C38.1382 37.6 37.8716 38.4067 37.8716 39.46C37.8716 40.5133 38.1316 41.3267 38.6516 41.9C39.1849 42.46 39.8516 42.74 40.6516 42.74ZM54.6255 33.76C55.9455 33.76 57.0121 34.18 57.8255 35.02C58.6388 35.8467 59.0455 37.0067 59.0455 38.5V45H56.2455V38.88C56.2455 38 56.0255 37.3267 55.5855 36.86C55.1455 36.38 54.5455 36.14 53.7855 36.14C53.0121 36.14 52.3988 36.38 51.9455 36.86C51.5055 37.3267 51.2855 38 51.2855 38.88V45H48.4855V33.92H51.2855V35.3C51.6588 34.82 52.1321 34.4467 52.7055 34.18C53.2921 33.9 53.9321 33.76 54.6255 33.76ZM67.8481 33.76C69.1681 33.76 70.2348 34.18 71.0481 35.02C71.8615 35.8467 72.2681 37.0067 72.2681 38.5V45H69.4681V38.88C69.4681 38 69.2481 37.3267 68.8081 36.86C68.3681 36.38 67.7681 36.14 67.0081 36.14C66.2348 36.14 65.6215 36.38 65.1681 36.86C64.7281 37.3267 64.5081 38 64.5081 38.88V45H61.7081V33.92H64.5081V35.3C64.8815 34.82 65.3548 34.4467 65.9281 34.18C66.5148 33.9 67.1548 33.76 67.8481 33.76ZM85.2308 39.22C85.2308 39.62 85.2041 39.98 85.1508 40.3H77.0508C77.1174 41.1 77.3974 41.7267 77.8908 42.18C78.3841 42.6333 78.9908 42.86 79.7108 42.86C80.7508 42.86 81.4908 42.4133 81.9308 41.52H84.9508C84.6308 42.5867 84.0174 43.4667 83.1108 44.16C82.2041 44.84 81.0908 45.18 79.7708 45.18C78.7041 45.18 77.7441 44.9467 76.8908 44.48C76.0508 44 75.3908 43.3267 74.9108 42.46C74.4441 41.5933 74.2108 40.5933 74.2108 39.46C74.2108 38.3133 74.4441 37.3067 74.9108 36.44C75.3774 35.5733 76.0308 34.9067 76.8708 34.44C77.7108 33.9733 78.6774 33.74 79.7708 33.74C80.8241 33.74 81.7641 33.9667 82.5908 34.42C83.4308 34.8733 84.0774 35.52 84.5308 36.36C84.9974 37.1867 85.2308 38.14 85.2308 39.22ZM82.3308 38.42C82.3174 37.7 82.0574 37.1267 81.5508 36.7C81.0441 36.26 80.4241 36.04 79.6908 36.04C78.9974 36.04 78.4108 36.2533 77.9308 36.68C77.4641 37.0933 77.1774 37.6733 77.0708 38.42H82.3308ZM86.5545 39.46C86.5545 38.3133 86.7879 37.3133 87.2545 36.46C87.7212 35.5933 88.3679 34.9267 89.1945 34.46C90.0212 33.98 90.9679 33.74 92.0345 33.74C93.4079 33.74 94.5412 34.0867 95.4345 34.78C96.3412 35.46 96.9479 36.42 97.2545 37.66H94.2345C94.0745 37.18 93.8012 36.8067 93.4145 36.54C93.0412 36.26 92.5745 36.12 92.0145 36.12C91.2145 36.12 90.5812 36.4133 90.1145 37C89.6479 37.5733 89.4145 38.3933 89.4145 39.46C89.4145 40.5133 89.6479 41.3333 90.1145 41.92C90.5812 42.4933 91.2145 42.78 92.0145 42.78C93.1479 42.78 93.8879 42.2733 94.2345 41.26H97.2545C96.9479 42.46 96.3412 43.4133 95.4345 44.12C94.5279 44.8267 93.3945 45.18 92.0345 45.18C90.9679 45.18 90.0212 44.9467 89.1945 44.48C88.3679 44 87.7212 43.3333 87.2545 42.48C86.7879 41.6133 86.5545 40.6067 86.5545 39.46ZM102.566 36.22V41.58C102.566 41.9533 102.652 42.2267 102.826 42.4C103.012 42.56 103.319 42.64 103.746 42.64H105.046V45H103.286C100.926 45 99.7458 43.8533 99.7458 41.56V36.22H98.4258V33.92H99.7458V31.18H102.566V33.92H105.046V36.22H102.566ZM130.485 31.04L126.585 45H123.285L120.665 35.06L117.925 45L114.645 45.02L110.885 31.04H113.885L116.345 41.88L119.185 31.04H122.305L124.985 41.82L127.465 31.04H130.485ZM131.594 39.42C131.594 38.3 131.814 37.3067 132.254 36.44C132.707 35.5733 133.314 34.9067 134.074 34.44C134.847 33.9733 135.707 33.74 136.654 33.74C137.48 33.74 138.2 33.9067 138.814 34.24C139.44 34.5733 139.94 34.9933 140.314 35.5V33.92H143.134V45H140.314V43.38C139.954 43.9 139.454 44.3333 138.814 44.68C138.187 45.0133 137.46 45.18 136.634 45.18C135.7 45.18 134.847 44.94 134.074 44.46C133.314 43.98 132.707 43.3067 132.254 42.44C131.814 41.56 131.594 40.5533 131.594 39.42ZM140.314 39.46C140.314 38.78 140.18 38.2 139.914 37.72C139.647 37.2267 139.287 36.8533 138.834 36.6C138.38 36.3333 137.894 36.2 137.374 36.2C136.854 36.2 136.374 36.3267 135.934 36.58C135.494 36.8333 135.134 37.2067 134.854 37.7C134.587 38.18 134.454 38.7533 134.454 39.42C134.454 40.0867 134.587 40.6733 134.854 41.18C135.134 41.6733 135.494 42.0533 135.934 42.32C136.387 42.5867 136.867 42.72 137.374 42.72C137.894 42.72 138.38 42.5933 138.834 42.34C139.287 42.0733 139.647 41.7 139.914 41.22C140.18 40.7267 140.314 40.14 140.314 39.46ZM148.668 30.2V45H145.868V30.2H148.668ZM154.235 30.2V45H151.435V30.2H154.235ZM167.301 39.22C167.301 39.62 167.274 39.98 167.221 40.3H159.121C159.188 41.1 159.468 41.7267 159.961 42.18C160.454 42.6333 161.061 42.86 161.781 42.86C162.821 42.86 163.561 42.4133 164.001 41.52H167.021C166.701 42.5867 166.088 43.4667 165.181 44.16C164.274 44.84 163.161 45.18 161.841 45.18C160.774 45.18 159.814 44.9467 158.961 44.48C158.121 44 157.461 43.3267 156.981 42.46C156.514 41.5933 156.281 40.5933 156.281 39.46C156.281 38.3133 156.514 37.3067 156.981 36.44C157.448 35.5733 158.101 34.9067 158.941 34.44C159.781 33.9733 160.748 33.74 161.841 33.74C162.894 33.74 163.834 33.9667 164.661 34.42C165.501 34.8733 166.148 35.52 166.601 36.36C167.068 37.1867 167.301 38.14 167.301 39.22ZM164.401 38.42C164.388 37.7 164.128 37.1267 163.621 36.7C163.114 36.26 162.494 36.04 161.761 36.04C161.068 36.04 160.481 36.2533 160.001 36.68C159.534 37.0933 159.248 37.6733 159.141 38.42H164.401ZM172.605 36.22V41.58C172.605 41.9533 172.692 42.2267 172.865 42.4C173.052 42.56 173.358 42.64 173.785 42.64H175.085V45H173.325C170.965 45 169.785 43.8533 169.785 41.56V36.22H168.465V33.92H169.785V31.18H172.605V33.92H175.085V36.22H172.605Z" fill="white"/>
<defs>
<linearGradient id="paint0_linear_58_17" x1="97" y1="0" x2="97" y2="74" gradientUnits="userSpaceOnUse">
<stop stop-color="#00BC6D" stop-opacity="0.99"/>
<stop offset="1" stop-color="#030087"/>
</linearGradient>
</defs>
</svg>
