<svg width="1440" height="388" viewBox="0 0 1440 388" fill="none" xmlns="http://www.w3.org/2000/svg">
<rect width="1440" height="388" fill="url(#paint0_linear_58_25)"/>
<path d="M543.639 55.0909V90H537.264L522.077 68.0284H521.821V90H514.44V55.0909H520.918L535.986 77.0455H536.293V55.0909H543.639ZM561.533 90.5114C558.839 90.5114 556.521 89.9659 554.578 88.875C552.646 87.7727 551.158 86.2159 550.112 84.2045C549.067 82.1818 548.544 79.7898 548.544 77.0284C548.544 74.3352 549.067 71.9716 550.112 69.9375C551.158 67.9034 552.629 66.3182 554.527 65.1818C556.436 64.0455 558.675 63.4773 561.243 63.4773C562.97 63.4773 564.578 63.7557 566.067 64.3125C567.567 64.858 568.874 65.6818 569.987 66.7841C571.112 67.8864 571.987 69.2727 572.612 70.9432C573.237 72.6023 573.55 74.5455 573.55 76.7727V78.767H551.442V74.267H566.714C566.714 73.2216 566.487 72.2955 566.033 71.4886C565.578 70.6818 564.947 70.0511 564.141 69.5966C563.345 69.1307 562.419 68.8977 561.362 68.8977C560.26 68.8977 559.283 69.1534 558.43 69.6648C557.589 70.1648 556.93 70.8409 556.453 71.6932C555.976 72.5341 555.732 73.4716 555.72 74.5057V78.7841C555.72 80.0795 555.959 81.1989 556.436 82.142C556.925 83.0852 557.612 83.8125 558.499 84.3239C559.385 84.8352 560.436 85.0909 561.652 85.0909C562.459 85.0909 563.197 84.9773 563.868 84.75C564.538 84.5227 565.112 84.1818 565.589 83.7273C566.067 83.2727 566.43 82.7159 566.68 82.0568L573.396 82.5C573.055 84.1136 572.357 85.5227 571.3 86.7273C570.254 87.9205 568.902 88.8523 567.243 89.5227C565.595 90.1818 563.692 90.5114 561.533 90.5114ZM601.994 63.8182L592.841 90H584.659L575.506 63.8182H583.176L588.614 82.5511H588.886L594.307 63.8182H601.994ZM616.798 90.5114C614.105 90.5114 611.787 89.9659 609.844 88.875C607.912 87.7727 606.423 86.2159 605.378 84.2045C604.332 82.1818 603.81 79.7898 603.81 77.0284C603.81 74.3352 604.332 71.9716 605.378 69.9375C606.423 67.9034 607.895 66.3182 609.793 65.1818C611.702 64.0455 613.94 63.4773 616.509 63.4773C618.236 63.4773 619.844 63.7557 621.332 64.3125C622.832 64.858 624.139 65.6818 625.253 66.7841C626.378 67.8864 627.253 69.2727 627.878 70.9432C628.503 72.6023 628.815 74.5455 628.815 76.7727V78.767H606.707V74.267H621.98C621.98 73.2216 621.753 72.2955 621.298 71.4886C620.844 70.6818 620.213 70.0511 619.406 69.5966C618.611 69.1307 617.685 68.8977 616.628 68.8977C615.526 68.8977 614.548 69.1534 613.696 69.6648C612.855 70.1648 612.196 70.8409 611.719 71.6932C611.241 72.5341 610.997 73.4716 610.986 74.5057V78.7841C610.986 80.0795 611.224 81.1989 611.702 82.142C612.19 83.0852 612.878 83.8125 613.764 84.3239C614.651 84.8352 615.702 85.0909 616.918 85.0909C617.724 85.0909 618.463 84.9773 619.134 84.75C619.804 84.5227 620.378 84.1818 620.855 83.7273C621.332 83.2727 621.696 82.7159 621.946 82.0568L628.662 82.5C628.321 84.1136 627.622 85.5227 626.565 86.7273C625.52 87.9205 624.168 88.8523 622.509 89.5227C620.861 90.1818 618.957 90.5114 616.798 90.5114ZM633.554 90V63.8182H640.594V68.3864H640.866C641.344 66.7614 642.145 65.5341 643.27 64.7045C644.395 63.8636 645.69 63.4432 647.156 63.4432C647.52 63.4432 647.912 63.4659 648.332 63.5114C648.753 63.5568 649.122 63.6193 649.44 63.6989V70.142C649.099 70.0398 648.628 69.9489 648.026 69.8693C647.423 69.7898 646.872 69.75 646.372 69.75C645.304 69.75 644.349 69.983 643.509 70.4489C642.679 70.9034 642.02 71.5398 641.531 72.358C641.054 73.1761 640.815 74.1193 640.815 75.1875V90H633.554ZM664.304 90V63.8182H671.224V68.4375H671.531C672.077 66.9034 672.986 65.6932 674.259 64.8068C675.531 63.9205 677.054 63.4773 678.827 63.4773C680.622 63.4773 682.151 63.9261 683.412 64.8239C684.673 65.7102 685.514 66.9148 685.935 68.4375H686.207C686.741 66.9375 687.707 65.7386 689.105 64.8409C690.514 63.9318 692.179 63.4773 694.099 63.4773C696.543 63.4773 698.526 64.2557 700.048 65.8125C701.582 67.358 702.349 69.5511 702.349 72.392V90H695.105V73.8239C695.105 72.3693 694.719 71.2784 693.946 70.5511C693.173 69.8239 692.207 69.4602 691.048 69.4602C689.73 69.4602 688.702 69.8807 687.963 70.7216C687.224 71.5511 686.855 72.6477 686.855 74.0114V90H679.815V73.6705C679.815 72.3864 679.446 71.3636 678.707 70.6023C677.98 69.8409 677.02 69.4602 675.827 69.4602C675.02 69.4602 674.293 69.6648 673.645 70.0739C673.009 70.4716 672.503 71.0341 672.128 71.7614C671.753 72.4773 671.565 73.3182 671.565 74.2841V90H664.304ZM708.085 90V63.8182H715.347V90H708.085ZM711.733 60.4432C710.653 60.4432 709.727 60.0852 708.955 59.3693C708.193 58.642 707.812 57.7727 707.812 56.7614C707.812 55.7614 708.193 54.9034 708.955 54.1875C709.727 53.4602 710.653 53.0966 711.733 53.0966C712.813 53.0966 713.733 53.4602 714.494 54.1875C715.267 54.9034 715.653 55.7614 715.653 56.7614C715.653 57.7727 715.267 58.642 714.494 59.3693C713.733 60.0852 712.813 60.4432 711.733 60.4432ZM742.947 71.2841L736.3 71.6932C736.186 71.125 735.942 70.6136 735.567 70.1591C735.192 69.6932 734.697 69.3239 734.084 69.0511C733.482 68.767 732.76 68.625 731.919 68.625C730.794 68.625 729.845 68.8636 729.072 69.3409C728.3 69.8068 727.913 70.4318 727.913 71.2159C727.913 71.8409 728.163 72.3693 728.663 72.8011C729.163 73.233 730.021 73.5795 731.237 73.8409L735.976 74.7955C738.521 75.3182 740.419 76.1591 741.669 77.3182C742.919 78.4773 743.544 80 743.544 81.8864C743.544 83.6023 743.038 85.108 742.027 86.4034C741.027 87.6989 739.652 88.7102 737.902 89.4375C736.163 90.1534 734.158 90.5114 731.885 90.5114C728.419 90.5114 725.658 89.7898 723.601 88.3466C721.555 86.892 720.357 84.9148 720.004 82.4148L727.146 82.0398C727.362 83.0966 727.885 83.9034 728.714 84.4602C729.544 85.0057 730.607 85.2784 731.902 85.2784C733.175 85.2784 734.197 85.0341 734.97 84.5455C735.754 84.0455 736.152 83.4034 736.163 82.6193C736.152 81.9602 735.874 81.4205 735.328 81C734.783 80.5682 733.942 80.2386 732.805 80.0114L728.271 79.108C725.714 78.5966 723.811 77.7102 722.561 76.4489C721.322 75.1875 720.703 73.5795 720.703 71.625C720.703 69.9432 721.158 68.4943 722.067 67.2784C722.987 66.0625 724.277 65.125 725.936 64.4659C727.607 63.8068 729.561 63.4773 731.8 63.4773C735.107 63.4773 737.709 64.1761 739.607 65.5739C741.516 66.9716 742.629 68.875 742.947 71.2841ZM769.901 71.2841L763.253 71.6932C763.139 71.125 762.895 70.6136 762.52 70.1591C762.145 69.6932 761.651 69.3239 761.037 69.0511C760.435 68.767 759.713 68.625 758.872 68.625C757.747 68.625 756.798 68.8636 756.026 69.3409C755.253 69.8068 754.866 70.4318 754.866 71.2159C754.866 71.8409 755.116 72.3693 755.616 72.8011C756.116 73.233 756.974 73.5795 758.19 73.8409L762.929 74.7955C765.474 75.3182 767.372 76.1591 768.622 77.3182C769.872 78.4773 770.497 80 770.497 81.8864C770.497 83.6023 769.991 85.108 768.98 86.4034C767.98 87.6989 766.605 88.7102 764.855 89.4375C763.116 90.1534 761.111 90.5114 758.838 90.5114C755.372 90.5114 752.611 89.7898 750.554 88.3466C748.509 86.892 747.31 84.9148 746.957 82.4148L754.099 82.0398C754.315 83.0966 754.838 83.9034 755.668 84.4602C756.497 85.0057 757.56 85.2784 758.855 85.2784C760.128 85.2784 761.151 85.0341 761.923 84.5455C762.707 84.0455 763.105 83.4034 763.116 82.6193C763.105 81.9602 762.827 81.4205 762.281 81C761.736 80.5682 760.895 80.2386 759.759 80.0114L755.224 79.108C752.668 78.5966 750.764 77.7102 749.514 76.4489C748.276 75.1875 747.656 73.5795 747.656 71.625C747.656 69.9432 748.111 68.4943 749.02 67.2784C749.94 66.0625 751.23 65.125 752.889 64.4659C754.56 63.8068 756.514 63.4773 758.753 63.4773C762.06 63.4773 764.662 64.1761 766.56 65.5739C768.469 66.9716 769.582 68.875 769.901 71.2841ZM793.645 90.4943C791.974 90.4943 790.486 90.2045 789.179 89.625C787.872 89.0341 786.838 88.1648 786.077 87.017C785.327 85.858 784.952 84.4148 784.952 82.6875C784.952 81.233 785.219 80.0114 785.753 79.0227C786.287 78.0341 787.014 77.2386 787.935 76.6364C788.855 76.0341 789.901 75.5795 791.071 75.2727C792.253 74.9659 793.491 74.75 794.787 74.625C796.31 74.4659 797.537 74.3182 798.469 74.1818C799.401 74.0341 800.077 73.8182 800.497 73.5341C800.918 73.25 801.128 72.8295 801.128 72.2727V72.1705C801.128 71.0909 800.787 70.2557 800.105 69.6648C799.435 69.0739 798.48 68.7784 797.241 68.7784C795.935 68.7784 794.895 69.0682 794.122 69.6477C793.349 70.2159 792.838 70.9318 792.588 71.7955L785.872 71.25C786.213 69.6591 786.884 68.2841 787.884 67.125C788.884 65.9545 790.173 65.0568 791.753 64.4318C793.344 63.7955 795.185 63.4773 797.276 63.4773C798.73 63.4773 800.122 63.6477 801.452 63.9886C802.793 64.3295 803.98 64.858 805.014 65.5739C806.06 66.2898 806.884 67.2102 807.486 68.3352C808.088 69.4489 808.389 70.7841 808.389 72.3409V90H801.503V86.3693H801.298C800.878 87.1875 800.315 87.9091 799.611 88.5341C798.906 89.1477 798.06 89.6307 797.071 89.983C796.082 90.3239 794.94 90.4943 793.645 90.4943ZM795.724 85.483C796.793 85.483 797.736 85.2727 798.554 84.8523C799.372 84.4205 800.014 83.8409 800.48 83.1136C800.946 82.3864 801.179 81.5625 801.179 80.642V77.8636C800.952 78.0114 800.639 78.1477 800.241 78.2727C799.855 78.3864 799.418 78.4943 798.929 78.5966C798.44 78.6875 797.952 78.7727 797.463 78.8523C796.974 78.9205 796.531 78.983 796.134 79.0398C795.281 79.1648 794.537 79.3636 793.901 79.6364C793.264 79.9091 792.77 80.2784 792.418 80.7443C792.065 81.1989 791.889 81.767 791.889 82.4489C791.889 83.4375 792.247 84.1932 792.963 84.7159C793.69 85.2273 794.611 85.483 795.724 85.483ZM832.393 74.8636V90H825.132V63.8182H832.053V68.4375H832.359C832.939 66.9148 833.911 65.7102 835.274 64.8239C836.638 63.9261 838.291 63.4773 840.234 63.4773C842.053 63.4773 843.638 63.875 844.99 64.6705C846.342 65.4659 847.393 66.6023 848.143 68.0795C848.893 69.5455 849.268 71.2955 849.268 73.3295V90H842.007V74.625C842.018 73.0227 841.609 71.7727 840.78 70.875C839.95 69.9659 838.808 69.5114 837.354 69.5114C836.376 69.5114 835.513 69.7216 834.763 70.142C834.024 70.5625 833.445 71.1761 833.024 71.983C832.615 72.7784 832.405 73.7386 832.393 74.8636ZM866.821 90.5114C864.173 90.5114 861.884 89.9489 859.952 88.8239C858.031 87.6875 856.548 86.108 855.503 84.0852C854.457 82.0511 853.935 79.6932 853.935 77.0114C853.935 74.3068 854.457 71.9432 855.503 69.9205C856.548 67.8864 858.031 66.3068 859.952 65.1818C861.884 64.0455 864.173 63.4773 866.821 63.4773C869.469 63.4773 871.753 64.0455 873.673 65.1818C875.605 66.3068 877.094 67.8864 878.139 69.9205C879.185 71.9432 879.707 74.3068 879.707 77.0114C879.707 79.6932 879.185 82.0511 878.139 84.0852C877.094 86.108 875.605 87.6875 873.673 88.8239C871.753 89.9489 869.469 90.5114 866.821 90.5114ZM866.855 84.8864C868.06 84.8864 869.065 84.5455 869.872 83.8636C870.679 83.1705 871.287 82.2273 871.696 81.0341C872.116 79.8409 872.327 78.483 872.327 76.9602C872.327 75.4375 872.116 74.0795 871.696 72.8864C871.287 71.6932 870.679 70.75 869.872 70.0568C869.065 69.3636 868.06 69.017 866.855 69.017C865.639 69.017 864.616 69.3636 863.787 70.0568C862.969 70.75 862.349 71.6932 861.929 72.8864C861.52 74.0795 861.315 75.4375 861.315 76.9602C861.315 78.483 861.52 79.8409 861.929 81.0341C862.349 82.2273 862.969 83.1705 863.787 83.8636C864.616 84.5455 865.639 84.8864 866.855 84.8864ZM898.355 63.8182V69.2727H882.588V63.8182H898.355ZM886.168 57.5455H893.429V81.9545C893.429 82.625 893.531 83.1477 893.736 83.5227C893.94 83.8864 894.224 84.142 894.588 84.2898C894.963 84.4375 895.395 84.5114 895.884 84.5114C896.224 84.5114 896.565 84.483 896.906 84.4261C897.247 84.358 897.509 84.3068 897.69 84.2727L898.832 89.6761C898.469 89.7898 897.957 89.9205 897.298 90.0682C896.639 90.2273 895.838 90.3239 894.895 90.358C893.145 90.4261 891.611 90.1932 890.293 89.6591C888.986 89.125 887.969 88.2955 887.241 87.1705C886.514 86.0455 886.156 84.625 886.168 82.9091V57.5455ZM914.736 90.5114C912.043 90.5114 909.724 89.9659 907.781 88.875C905.849 87.7727 904.361 86.2159 903.315 84.2045C902.27 82.1818 901.747 79.7898 901.747 77.0284C901.747 74.3352 902.27 71.9716 903.315 69.9375C904.361 67.9034 905.832 66.3182 907.73 65.1818C909.639 64.0455 911.878 63.4773 914.446 63.4773C916.173 63.4773 917.781 63.7557 919.27 64.3125C920.77 64.858 922.077 65.6818 923.19 66.7841C924.315 67.8864 925.19 69.2727 925.815 70.9432C926.44 72.6023 926.753 74.5455 926.753 76.7727V78.767H904.645V74.267H919.918C919.918 73.2216 919.69 72.2955 919.236 71.4886C918.781 70.6818 918.151 70.0511 917.344 69.5966C916.548 69.1307 915.622 68.8977 914.565 68.8977C913.463 68.8977 912.486 69.1534 911.634 69.6648C910.793 70.1648 910.134 70.8409 909.656 71.6932C909.179 72.5341 908.935 73.4716 908.923 74.5057V78.7841C908.923 80.0795 909.162 81.1989 909.639 82.142C910.128 83.0852 910.815 83.8125 911.702 84.3239C912.588 84.8352 913.639 85.0909 914.855 85.0909C915.662 85.0909 916.401 84.9773 917.071 84.75C917.741 84.5227 918.315 84.1818 918.793 83.7273C919.27 83.2727 919.634 82.7159 919.884 82.0568L926.599 82.5C926.259 84.1136 925.56 85.5227 924.503 86.7273C923.457 87.9205 922.105 88.8523 920.446 89.5227C918.798 90.1818 916.895 90.5114 914.736 90.5114Z" fill="white"/>
<path d="M444.992 147.131C444.901 146.324 444.526 145.699 443.867 145.256C443.208 144.807 442.379 144.582 441.379 144.582C440.663 144.582 440.043 144.696 439.521 144.923C438.998 145.145 438.592 145.452 438.302 145.844C438.018 146.23 437.876 146.67 437.876 147.165C437.876 147.58 437.972 147.937 438.165 148.239C438.364 148.54 438.623 148.793 438.941 148.997C439.265 149.196 439.612 149.364 439.981 149.5C440.35 149.631 440.705 149.739 441.046 149.824L442.751 150.267C443.308 150.403 443.879 150.588 444.464 150.821C445.049 151.054 445.592 151.361 446.092 151.741C446.592 152.122 446.995 152.594 447.302 153.156C447.614 153.719 447.771 154.392 447.771 155.176C447.771 156.165 447.515 157.043 447.004 157.81C446.498 158.577 445.762 159.182 444.796 159.625C443.836 160.068 442.674 160.29 441.31 160.29C440.004 160.29 438.873 160.082 437.918 159.668C436.964 159.253 436.217 158.665 435.677 157.903C435.137 157.136 434.839 156.227 434.782 155.176H437.424C437.475 155.807 437.68 156.332 438.038 156.753C438.401 157.168 438.864 157.477 439.427 157.682C439.995 157.881 440.617 157.98 441.293 157.98C442.038 157.98 442.7 157.864 443.279 157.631C443.864 157.392 444.325 157.062 444.66 156.642C444.995 156.216 445.163 155.719 445.163 155.151C445.163 154.634 445.015 154.21 444.719 153.881C444.43 153.551 444.035 153.278 443.535 153.062C443.04 152.847 442.481 152.656 441.856 152.491L439.793 151.929C438.396 151.548 437.288 150.989 436.469 150.25C435.657 149.511 435.251 148.534 435.251 147.318C435.251 146.312 435.523 145.435 436.069 144.685C436.614 143.935 437.353 143.352 438.285 142.938C439.217 142.517 440.268 142.307 441.438 142.307C442.62 142.307 443.663 142.514 444.566 142.929C445.475 143.344 446.191 143.915 446.714 144.642C447.237 145.364 447.509 146.193 447.532 147.131H444.992ZM459.006 154.571V146.909H461.562V160H459.057V157.733H458.92C458.619 158.432 458.136 159.014 457.472 159.48C456.813 159.94 455.991 160.17 455.009 160.17C454.168 160.17 453.423 159.986 452.776 159.616C452.134 159.241 451.628 158.688 451.259 157.955C450.895 157.222 450.713 156.315 450.713 155.236V146.909H453.261V154.929C453.261 155.821 453.509 156.531 454.003 157.06C454.497 157.588 455.139 157.852 455.929 157.852C456.406 157.852 456.881 157.733 457.352 157.494C457.83 157.256 458.224 156.895 458.537 156.412C458.855 155.929 459.011 155.315 459.006 154.571ZM465.191 160V142.545H467.739V149.031H467.893C468.04 148.759 468.254 148.443 468.532 148.085C468.81 147.727 469.197 147.415 469.691 147.148C470.185 146.875 470.839 146.739 471.651 146.739C472.708 146.739 473.651 147.006 474.481 147.54C475.31 148.074 475.961 148.844 476.433 149.849C476.91 150.855 477.148 152.065 477.148 153.48C477.148 154.895 476.913 156.108 476.441 157.119C475.969 158.125 475.322 158.901 474.498 159.446C473.674 159.986 472.734 160.256 471.677 160.256C470.881 160.256 470.231 160.122 469.725 159.855C469.225 159.588 468.833 159.276 468.549 158.918C468.265 158.56 468.046 158.241 467.893 157.963H467.68V160H465.191ZM467.688 153.455C467.688 154.375 467.822 155.182 468.089 155.875C468.356 156.568 468.742 157.111 469.248 157.503C469.754 157.889 470.373 158.082 471.106 158.082C471.867 158.082 472.504 157.881 473.015 157.477C473.526 157.068 473.913 156.514 474.174 155.815C474.441 155.116 474.575 154.33 474.575 153.455C474.575 152.591 474.444 151.815 474.183 151.128C473.927 150.44 473.54 149.898 473.023 149.5C472.512 149.102 471.873 148.903 471.106 148.903C470.367 148.903 469.742 149.094 469.231 149.474C468.725 149.855 468.342 150.386 468.08 151.068C467.819 151.75 467.688 152.545 467.688 153.455ZM489.82 150.105L487.51 150.514C487.413 150.219 487.26 149.937 487.05 149.67C486.845 149.403 486.567 149.185 486.214 149.014C485.862 148.844 485.422 148.759 484.893 148.759C484.172 148.759 483.57 148.92 483.087 149.244C482.604 149.562 482.362 149.974 482.362 150.48C482.362 150.918 482.524 151.27 482.848 151.537C483.172 151.804 483.695 152.023 484.416 152.193L486.496 152.67C487.7 152.949 488.598 153.378 489.189 153.957C489.78 154.537 490.075 155.29 490.075 156.216C490.075 157 489.848 157.699 489.393 158.312C488.945 158.92 488.317 159.398 487.51 159.744C486.709 160.091 485.78 160.264 484.723 160.264C483.257 160.264 482.061 159.952 481.135 159.327C480.209 158.696 479.641 157.801 479.43 156.642L481.893 156.267C482.047 156.909 482.362 157.395 482.839 157.724C483.317 158.048 483.939 158.21 484.706 158.21C485.541 158.21 486.209 158.037 486.709 157.69C487.209 157.338 487.459 156.909 487.459 156.403C487.459 155.994 487.305 155.651 486.999 155.372C486.697 155.094 486.234 154.884 485.609 154.741L483.393 154.256C482.172 153.977 481.268 153.534 480.683 152.926C480.104 152.318 479.814 151.548 479.814 150.616C479.814 149.844 480.03 149.168 480.462 148.588C480.893 148.009 481.49 147.557 482.251 147.233C483.013 146.903 483.885 146.739 484.868 146.739C486.283 146.739 487.396 147.045 488.209 147.659C489.021 148.267 489.558 149.082 489.82 150.105ZM498.391 160.264C497.124 160.264 496.033 159.977 495.119 159.403C494.21 158.824 493.511 158.026 493.022 157.009C492.533 155.991 492.289 154.827 492.289 153.514C492.289 152.185 492.539 151.011 493.039 149.994C493.539 148.972 494.244 148.173 495.153 147.599C496.062 147.026 497.133 146.739 498.366 146.739C499.36 146.739 500.246 146.923 501.025 147.293C501.803 147.656 502.431 148.168 502.908 148.827C503.391 149.486 503.678 150.256 503.769 151.136H501.289C501.153 150.523 500.84 149.994 500.352 149.551C499.869 149.108 499.221 148.886 498.408 148.886C497.698 148.886 497.076 149.074 496.542 149.449C496.013 149.818 495.602 150.347 495.306 151.034C495.011 151.716 494.863 152.523 494.863 153.455C494.863 154.409 495.008 155.233 495.298 155.926C495.587 156.619 495.996 157.156 496.525 157.537C497.059 157.918 497.687 158.108 498.408 158.108C498.891 158.108 499.329 158.02 499.721 157.844C500.119 157.662 500.451 157.403 500.718 157.068C500.991 156.733 501.181 156.33 501.289 155.858H503.769C503.678 156.705 503.403 157.46 502.942 158.125C502.482 158.79 501.866 159.312 501.093 159.693C500.326 160.074 499.425 160.264 498.391 160.264ZM506.494 160V146.909H508.957V148.989H509.094C509.332 148.284 509.753 147.73 510.355 147.327C510.963 146.918 511.651 146.713 512.418 146.713C512.577 146.713 512.764 146.719 512.98 146.73C513.202 146.741 513.375 146.756 513.5 146.773V149.21C513.398 149.182 513.216 149.151 512.955 149.116C512.693 149.077 512.432 149.057 512.17 149.057C511.568 149.057 511.031 149.185 510.56 149.44C510.094 149.69 509.724 150.04 509.452 150.489C509.179 150.932 509.043 151.437 509.043 152.006V160H506.494ZM515.705 160V146.909H518.254V160H515.705ZM516.992 144.889C516.549 144.889 516.168 144.741 515.85 144.446C515.538 144.145 515.381 143.787 515.381 143.372C515.381 142.952 515.538 142.594 515.85 142.298C516.168 141.997 516.549 141.847 516.992 141.847C517.435 141.847 517.813 141.997 518.126 142.298C518.444 142.594 518.603 142.952 518.603 143.372C518.603 143.787 518.444 144.145 518.126 144.446C517.813 144.741 517.435 144.889 516.992 144.889ZM521.886 160V142.545H524.435V149.031H524.588C524.736 148.759 524.949 148.443 525.227 148.085C525.506 147.727 525.892 147.415 526.386 147.148C526.881 146.875 527.534 146.739 528.347 146.739C529.403 146.739 530.347 147.006 531.176 147.54C532.006 148.074 532.656 148.844 533.128 149.849C533.605 150.855 533.844 152.065 533.844 153.48C533.844 154.895 533.608 156.108 533.136 157.119C532.665 158.125 532.017 158.901 531.193 159.446C530.369 159.986 529.429 160.256 528.372 160.256C527.577 160.256 526.926 160.122 526.42 159.855C525.92 159.588 525.528 159.276 525.244 158.918C524.96 158.56 524.741 158.241 524.588 157.963H524.375V160H521.886ZM524.384 153.455C524.384 154.375 524.517 155.182 524.784 155.875C525.051 156.568 525.438 157.111 525.943 157.503C526.449 157.889 527.068 158.082 527.801 158.082C528.562 158.082 529.199 157.881 529.71 157.477C530.222 157.068 530.608 156.514 530.869 155.815C531.136 155.116 531.27 154.33 531.27 153.455C531.27 152.591 531.139 151.815 530.878 151.128C530.622 150.44 530.236 149.898 529.719 149.5C529.207 149.102 528.568 148.903 527.801 148.903C527.062 148.903 526.438 149.094 525.926 149.474C525.42 149.855 525.037 150.386 524.776 151.068C524.514 151.75 524.384 152.545 524.384 153.455ZM542.347 160.264C541.058 160.264 539.947 159.989 539.015 159.438C538.089 158.881 537.373 158.099 536.867 157.094C536.367 156.082 536.117 154.898 536.117 153.54C536.117 152.199 536.367 151.017 536.867 149.994C537.373 148.972 538.077 148.173 538.981 147.599C539.89 147.026 540.952 146.739 542.168 146.739C542.907 146.739 543.623 146.861 544.316 147.105C545.009 147.349 545.631 147.733 546.183 148.256C546.734 148.778 547.168 149.457 547.487 150.293C547.805 151.122 547.964 152.131 547.964 153.318V154.222H537.558V152.312H545.467C545.467 151.642 545.33 151.048 545.058 150.531C544.785 150.009 544.401 149.597 543.907 149.295C543.418 148.994 542.844 148.844 542.185 148.844C541.469 148.844 540.844 149.02 540.31 149.372C539.782 149.719 539.373 150.173 539.083 150.736C538.799 151.293 538.657 151.898 538.657 152.551V154.043C538.657 154.918 538.81 155.662 539.117 156.276C539.43 156.889 539.864 157.358 540.421 157.682C540.978 158 541.629 158.159 542.373 158.159C542.856 158.159 543.296 158.091 543.694 157.955C544.092 157.812 544.435 157.602 544.725 157.324C545.015 157.045 545.237 156.702 545.39 156.293L547.802 156.727C547.609 157.437 547.262 158.06 546.762 158.594C546.268 159.122 545.646 159.534 544.896 159.83C544.151 160.119 543.302 160.264 542.347 160.264ZM563.373 146.909V148.955H555.975V146.909H563.373ZM558.004 160V145.392C558.004 144.574 558.183 143.895 558.54 143.355C558.898 142.81 559.373 142.403 559.964 142.136C560.555 141.864 561.197 141.727 561.89 141.727C562.401 141.727 562.839 141.77 563.202 141.855C563.566 141.935 563.836 142.009 564.012 142.077L563.415 144.139C563.296 144.105 563.143 144.065 562.955 144.02C562.768 143.969 562.54 143.943 562.273 143.943C561.654 143.943 561.211 144.097 560.944 144.403C560.683 144.71 560.552 145.153 560.552 145.733V160H558.004ZM571.001 160.264C569.773 160.264 568.702 159.983 567.788 159.42C566.873 158.858 566.163 158.071 565.657 157.06C565.151 156.048 564.898 154.866 564.898 153.514C564.898 152.156 565.151 150.969 565.657 149.952C566.163 148.935 566.873 148.145 567.788 147.582C568.702 147.02 569.773 146.739 571.001 146.739C572.228 146.739 573.299 147.02 574.214 147.582C575.129 148.145 575.839 148.935 576.344 149.952C576.85 150.969 577.103 152.156 577.103 153.514C577.103 154.866 576.85 156.048 576.344 157.06C575.839 158.071 575.129 158.858 574.214 159.42C573.299 159.983 572.228 160.264 571.001 160.264ZM571.009 158.125C571.805 158.125 572.464 157.915 572.987 157.494C573.509 157.074 573.896 156.514 574.146 155.815C574.401 155.116 574.529 154.347 574.529 153.506C574.529 152.67 574.401 151.903 574.146 151.205C573.896 150.5 573.509 149.935 572.987 149.509C572.464 149.082 571.805 148.869 571.009 148.869C570.208 148.869 569.543 149.082 569.015 149.509C568.492 149.935 568.103 150.5 567.847 151.205C567.597 151.903 567.472 152.67 567.472 153.506C567.472 154.347 567.597 155.116 567.847 155.815C568.103 156.514 568.492 157.074 569.015 157.494C569.543 157.915 570.208 158.125 571.009 158.125ZM579.947 160V146.909H582.411V148.989H582.547C582.786 148.284 583.206 147.73 583.808 147.327C584.416 146.918 585.104 146.713 585.871 146.713C586.03 146.713 586.217 146.719 586.433 146.73C586.655 146.741 586.828 146.756 586.953 146.773V149.21C586.851 149.182 586.669 149.151 586.408 149.116C586.146 149.077 585.885 149.057 585.624 149.057C585.021 149.057 584.484 149.185 584.013 149.44C583.547 149.69 583.178 150.04 582.905 150.489C582.632 150.932 582.496 151.437 582.496 152.006V160H579.947ZM601.621 146.909V148.955H594.47V146.909H601.621ZM596.388 143.773H598.936V156.156C598.936 156.651 599.01 157.023 599.158 157.273C599.305 157.517 599.496 157.685 599.729 157.776C599.967 157.861 600.226 157.903 600.504 157.903C600.709 157.903 600.888 157.889 601.041 157.861C601.195 157.832 601.314 157.81 601.399 157.793L601.859 159.898C601.712 159.955 601.501 160.011 601.229 160.068C600.956 160.131 600.615 160.165 600.206 160.17C599.536 160.182 598.911 160.062 598.331 159.812C597.751 159.562 597.283 159.176 596.925 158.653C596.567 158.131 596.388 157.474 596.388 156.685V143.773ZM607.269 152.227V160H604.721V142.545H607.235V149.04H607.397C607.704 148.335 608.173 147.776 608.803 147.361C609.434 146.946 610.258 146.739 611.275 146.739C612.173 146.739 612.957 146.923 613.627 147.293C614.303 147.662 614.826 148.213 615.195 148.946C615.57 149.673 615.758 150.582 615.758 151.673V160H613.21V151.98C613.21 151.02 612.962 150.276 612.468 149.747C611.974 149.213 611.286 148.946 610.406 148.946C609.803 148.946 609.263 149.074 608.786 149.33C608.315 149.585 607.942 149.96 607.67 150.455C607.403 150.943 607.269 151.534 607.269 152.227ZM624.8 160.264C623.511 160.264 622.4 159.989 621.468 159.438C620.542 158.881 619.826 158.099 619.32 157.094C618.82 156.082 618.57 154.898 618.57 153.54C618.57 152.199 618.82 151.017 619.32 149.994C619.826 148.972 620.531 148.173 621.434 147.599C622.343 147.026 623.406 146.739 624.621 146.739C625.36 146.739 626.076 146.861 626.769 147.105C627.462 147.349 628.085 147.733 628.636 148.256C629.187 148.778 629.621 149.457 629.94 150.293C630.258 151.122 630.417 152.131 630.417 153.318V154.222H620.011V152.312H627.92C627.92 151.642 627.783 151.048 627.511 150.531C627.238 150.009 626.854 149.597 626.36 149.295C625.871 148.994 625.298 148.844 624.638 148.844C623.923 148.844 623.298 149.02 622.763 149.372C622.235 149.719 621.826 150.173 621.536 150.736C621.252 151.293 621.11 151.898 621.11 152.551V154.043C621.11 154.918 621.263 155.662 621.57 156.276C621.883 156.889 622.317 157.358 622.874 157.682C623.431 158 624.082 158.159 624.826 158.159C625.309 158.159 625.749 158.091 626.147 157.955C626.545 157.812 626.888 157.602 627.178 157.324C627.468 157.045 627.69 156.702 627.843 156.293L630.255 156.727C630.062 157.437 629.715 158.06 629.215 158.594C628.721 159.122 628.099 159.534 627.349 159.83C626.604 160.119 625.755 160.264 624.8 160.264ZM642.144 142.545V160H639.596V142.545H642.144ZM649.382 160.29C648.553 160.29 647.803 160.136 647.132 159.83C646.462 159.517 645.93 159.065 645.538 158.474C645.152 157.884 644.959 157.159 644.959 156.301C644.959 155.562 645.101 154.955 645.385 154.477C645.669 154 646.053 153.622 646.536 153.344C647.018 153.065 647.558 152.855 648.155 152.713C648.751 152.571 649.359 152.463 649.979 152.389C650.763 152.298 651.399 152.224 651.888 152.168C652.376 152.105 652.732 152.006 652.953 151.869C653.175 151.733 653.286 151.511 653.286 151.205V151.145C653.286 150.401 653.075 149.824 652.655 149.415C652.24 149.006 651.621 148.801 650.797 148.801C649.939 148.801 649.263 148.991 648.768 149.372C648.28 149.747 647.942 150.165 647.754 150.625L645.359 150.08C645.643 149.284 646.058 148.642 646.604 148.153C647.155 147.659 647.788 147.301 648.504 147.08C649.22 146.852 649.973 146.739 650.763 146.739C651.286 146.739 651.839 146.801 652.425 146.926C653.016 147.045 653.567 147.267 654.078 147.591C654.595 147.915 655.018 148.378 655.348 148.98C655.678 149.577 655.842 150.352 655.842 151.307V160H653.354V158.21H653.251C653.087 158.54 652.839 158.864 652.51 159.182C652.18 159.5 651.757 159.764 651.24 159.974C650.723 160.185 650.104 160.29 649.382 160.29ZM649.936 158.244C650.641 158.244 651.243 158.105 651.743 157.827C652.249 157.548 652.632 157.185 652.893 156.736C653.161 156.281 653.294 155.795 653.294 155.278V153.591C653.203 153.682 653.027 153.767 652.766 153.847C652.51 153.92 652.217 153.986 651.888 154.043C651.558 154.094 651.237 154.142 650.925 154.188C650.612 154.227 650.351 154.261 650.141 154.29C649.646 154.352 649.195 154.457 648.786 154.605C648.382 154.753 648.058 154.966 647.814 155.244C647.575 155.517 647.456 155.881 647.456 156.335C647.456 156.966 647.689 157.443 648.155 157.767C648.621 158.085 649.214 158.244 649.936 158.244ZM665.347 146.909V148.955H658.197V146.909H665.347ZM660.114 143.773H662.663V156.156C662.663 156.651 662.737 157.023 662.884 157.273C663.032 157.517 663.222 157.685 663.455 157.776C663.694 157.861 663.952 157.903 664.231 157.903C664.435 157.903 664.614 157.889 664.768 157.861C664.921 157.832 665.04 157.81 665.126 157.793L665.586 159.898C665.438 159.955 665.228 160.011 664.955 160.068C664.683 160.131 664.342 160.165 663.933 160.17C663.262 160.182 662.637 160.062 662.058 159.812C661.478 159.562 661.009 159.176 660.651 158.653C660.293 158.131 660.114 157.474 660.114 156.685V143.773ZM673.668 160.264C672.378 160.264 671.267 159.989 670.335 159.438C669.409 158.881 668.693 158.099 668.188 157.094C667.688 156.082 667.438 154.898 667.438 153.54C667.438 152.199 667.688 151.017 668.188 149.994C668.693 148.972 669.398 148.173 670.301 147.599C671.21 147.026 672.273 146.739 673.489 146.739C674.227 146.739 674.943 146.861 675.636 147.105C676.33 147.349 676.952 147.733 677.503 148.256C678.054 148.778 678.489 149.457 678.807 150.293C679.125 151.122 679.284 152.131 679.284 153.318V154.222H668.878V152.312H676.787C676.787 151.642 676.651 151.048 676.378 150.531C676.105 150.009 675.722 149.597 675.227 149.295C674.739 148.994 674.165 148.844 673.506 148.844C672.79 148.844 672.165 149.02 671.631 149.372C671.102 149.719 670.693 150.173 670.403 150.736C670.119 151.293 669.977 151.898 669.977 152.551V154.043C669.977 154.918 670.131 155.662 670.438 156.276C670.75 156.889 671.185 157.358 671.741 157.682C672.298 158 672.949 158.159 673.693 158.159C674.176 158.159 674.616 158.091 675.014 157.955C675.412 157.812 675.756 157.602 676.045 157.324C676.335 157.045 676.557 156.702 676.71 156.293L679.122 156.727C678.929 157.437 678.582 158.06 678.082 158.594C677.588 159.122 676.966 159.534 676.216 159.83C675.472 160.119 674.622 160.264 673.668 160.264ZM691.921 150.105L689.612 150.514C689.515 150.219 689.362 149.937 689.151 149.67C688.947 149.403 688.668 149.185 688.316 149.014C687.964 148.844 687.523 148.759 686.995 148.759C686.273 148.759 685.671 148.92 685.188 149.244C684.705 149.562 684.464 149.974 684.464 150.48C684.464 150.918 684.626 151.27 684.95 151.537C685.273 151.804 685.796 152.023 686.518 152.193L688.597 152.67C689.802 152.949 690.7 153.378 691.29 153.957C691.881 154.537 692.177 155.29 692.177 156.216C692.177 157 691.95 157.699 691.495 158.312C691.046 158.92 690.418 159.398 689.612 159.744C688.81 160.091 687.881 160.264 686.825 160.264C685.359 160.264 684.163 159.952 683.237 159.327C682.31 158.696 681.742 157.801 681.532 156.642L683.995 156.267C684.148 156.909 684.464 157.395 684.941 157.724C685.418 158.048 686.04 158.21 686.808 158.21C687.643 158.21 688.31 158.037 688.81 157.69C689.31 157.338 689.56 156.909 689.56 156.403C689.56 155.994 689.407 155.651 689.1 155.372C688.799 155.094 688.336 154.884 687.711 154.741L685.495 154.256C684.273 153.977 683.37 153.534 682.785 152.926C682.205 152.318 681.915 151.548 681.915 150.616C681.915 149.844 682.131 149.168 682.563 148.588C682.995 148.009 683.592 147.557 684.353 147.233C685.114 146.903 685.987 146.739 686.969 146.739C688.384 146.739 689.498 147.045 690.31 147.659C691.123 148.267 691.66 149.082 691.921 150.105ZM701.089 146.909V148.955H693.939V146.909H701.089ZM695.857 143.773H698.405V156.156C698.405 156.651 698.479 157.023 698.626 157.273C698.774 157.517 698.964 157.685 699.197 157.776C699.436 157.861 699.695 157.903 699.973 157.903C700.178 157.903 700.357 157.889 700.51 157.861C700.663 157.832 700.783 157.81 700.868 157.793L701.328 159.898C701.18 159.955 700.97 160.011 700.697 160.068C700.425 160.131 700.084 160.165 699.675 160.17C699.004 160.182 698.379 160.062 697.8 159.812C697.22 159.562 696.751 159.176 696.393 158.653C696.036 158.131 695.857 157.474 695.857 156.685V143.773ZM712.808 152.227V160H710.26V146.909H712.706V149.04H712.868C713.169 148.347 713.641 147.79 714.283 147.369C714.93 146.949 715.746 146.739 716.729 146.739C717.621 146.739 718.402 146.926 719.072 147.301C719.743 147.67 720.263 148.222 720.632 148.955C721.001 149.687 721.186 150.594 721.186 151.673V160H718.638V151.98C718.638 151.031 718.391 150.29 717.896 149.756C717.402 149.216 716.723 148.946 715.859 148.946C715.268 148.946 714.743 149.074 714.283 149.33C713.828 149.585 713.467 149.96 713.2 150.455C712.939 150.943 712.808 151.534 712.808 152.227ZM730.246 160.264C728.956 160.264 727.845 159.989 726.913 159.438C725.987 158.881 725.271 158.099 724.766 157.094C724.266 156.082 724.016 154.898 724.016 153.54C724.016 152.199 724.266 151.017 724.766 149.994C725.271 148.972 725.976 148.173 726.879 147.599C727.788 147.026 728.851 146.739 730.067 146.739C730.805 146.739 731.521 146.861 732.214 147.105C732.908 147.349 733.53 147.733 734.081 148.256C734.632 148.778 735.067 149.457 735.385 150.293C735.703 151.122 735.862 152.131 735.862 153.318V154.222H725.456V152.312H733.365C733.365 151.642 733.229 151.048 732.956 150.531C732.683 150.009 732.3 149.597 731.805 149.295C731.317 148.994 730.743 148.844 730.084 148.844C729.368 148.844 728.743 149.02 728.209 149.372C727.68 149.719 727.271 150.173 726.982 150.736C726.697 151.293 726.555 151.898 726.555 152.551V154.043C726.555 154.918 726.709 155.662 727.016 156.276C727.328 156.889 727.763 157.358 728.32 157.682C728.876 158 729.527 158.159 730.271 158.159C730.754 158.159 731.195 158.091 731.592 157.955C731.99 157.812 732.334 157.602 732.624 157.324C732.913 157.045 733.135 156.702 733.288 156.293L735.7 156.727C735.507 157.437 735.161 158.06 734.661 158.594C734.166 159.122 733.544 159.534 732.794 159.83C732.05 160.119 731.2 160.264 730.246 160.264ZM741.504 160L737.652 146.909H740.286L742.851 156.523H742.979L745.553 146.909H748.186L750.743 156.48H750.871L753.419 146.909H756.053L752.209 160H749.609L746.95 150.548H746.754L744.095 160H741.504ZM768.281 150.105L765.971 150.514C765.874 150.219 765.721 149.937 765.511 149.67C765.306 149.403 765.028 149.185 764.675 149.014C764.323 148.844 763.883 148.759 763.354 148.759C762.633 148.759 762.031 148.92 761.548 149.244C761.065 149.562 760.823 149.974 760.823 150.48C760.823 150.918 760.985 151.27 761.309 151.537C761.633 151.804 762.156 152.023 762.877 152.193L764.957 152.67C766.161 152.949 767.059 153.378 767.65 153.957C768.241 154.537 768.536 155.29 768.536 156.216C768.536 157 768.309 157.699 767.854 158.312C767.406 158.92 766.778 159.398 765.971 159.744C765.17 160.091 764.241 160.264 763.184 160.264C761.718 160.264 760.522 159.952 759.596 159.327C758.67 158.696 758.102 157.801 757.891 156.642L760.354 156.267C760.508 156.909 760.823 157.395 761.3 157.724C761.778 158.048 762.4 158.21 763.167 158.21C764.002 158.21 764.67 158.037 765.17 157.69C765.67 157.338 765.92 156.909 765.92 156.403C765.92 155.994 765.766 155.651 765.46 155.372C765.158 155.094 764.695 154.884 764.07 154.741L761.854 154.256C760.633 153.977 759.729 153.534 759.144 152.926C758.565 152.318 758.275 151.548 758.275 150.616C758.275 149.844 758.491 149.168 758.923 148.588C759.354 148.009 759.951 147.557 760.712 147.233C761.474 146.903 762.346 146.739 763.329 146.739C764.744 146.739 765.857 147.045 766.67 147.659C767.482 148.267 768.019 149.082 768.281 150.105ZM774.653 157.614L774.526 158.543C774.44 159.224 774.295 159.935 774.091 160.673C773.892 161.418 773.685 162.108 773.469 162.744C773.259 163.381 773.085 163.886 772.949 164.261H771.142C771.216 163.909 771.318 163.432 771.449 162.83C771.58 162.233 771.707 161.565 771.832 160.827C771.957 160.088 772.051 159.335 772.114 158.568L772.199 157.614H774.653ZM789.223 160.256C788.166 160.256 787.223 159.986 786.393 159.446C785.57 158.901 784.922 158.125 784.45 157.119C783.984 156.108 783.751 154.895 783.751 153.48C783.751 152.065 783.987 150.855 784.459 149.849C784.936 148.844 785.589 148.074 786.419 147.54C787.249 147.006 788.189 146.739 789.24 146.739C790.053 146.739 790.706 146.875 791.2 147.148C791.7 147.415 792.087 147.727 792.359 148.085C792.638 148.443 792.854 148.759 793.007 149.031H793.161V142.545H795.709V160H793.22V157.963H793.007C792.854 158.241 792.632 158.56 792.342 158.918C792.058 159.276 791.666 159.588 791.166 159.855C790.666 160.122 790.018 160.256 789.223 160.256ZM789.786 158.082C790.518 158.082 791.138 157.889 791.643 157.503C792.155 157.111 792.541 156.568 792.803 155.875C793.07 155.182 793.203 154.375 793.203 153.455C793.203 152.545 793.072 151.75 792.811 151.068C792.55 150.386 792.166 149.855 791.661 149.474C791.155 149.094 790.53 148.903 789.786 148.903C789.018 148.903 788.379 149.102 787.868 149.5C787.357 149.898 786.97 150.44 786.709 151.128C786.453 151.815 786.325 152.591 786.325 153.455C786.325 154.33 786.456 155.116 786.717 155.815C786.979 156.514 787.365 157.068 787.876 157.477C788.393 157.881 789.03 158.082 789.786 158.082ZM799.346 160V146.909H801.809V148.989H801.945C802.184 148.284 802.604 147.73 803.207 147.327C803.815 146.918 804.502 146.713 805.269 146.713C805.428 146.713 805.616 146.719 805.832 146.73C806.053 146.741 806.227 146.756 806.352 146.773V149.21C806.249 149.182 806.067 149.151 805.806 149.116C805.545 149.077 805.283 149.057 805.022 149.057C804.42 149.057 803.883 149.185 803.411 149.44C802.945 149.69 802.576 150.04 802.303 150.489C802.031 150.932 801.894 151.437 801.894 152.006V160H799.346ZM813.602 160.264C812.375 160.264 811.304 159.983 810.389 159.42C809.474 158.858 808.764 158.071 808.259 157.06C807.753 156.048 807.5 154.866 807.5 153.514C807.5 152.156 807.753 150.969 808.259 149.952C808.764 148.935 809.474 148.145 810.389 147.582C811.304 147.02 812.375 146.739 813.602 146.739C814.83 146.739 815.901 147.02 816.815 147.582C817.73 148.145 818.44 148.935 818.946 149.952C819.452 150.969 819.705 152.156 819.705 153.514C819.705 154.866 819.452 156.048 818.946 157.06C818.44 158.071 817.73 158.858 816.815 159.42C815.901 159.983 814.83 160.264 813.602 160.264ZM813.611 158.125C814.406 158.125 815.065 157.915 815.588 157.494C816.111 157.074 816.497 156.514 816.747 155.815C817.003 155.116 817.131 154.347 817.131 153.506C817.131 152.67 817.003 151.903 816.747 151.205C816.497 150.5 816.111 149.935 815.588 149.509C815.065 149.082 814.406 148.869 813.611 148.869C812.81 148.869 812.145 149.082 811.616 149.509C811.094 149.935 810.705 150.5 810.449 151.205C810.199 151.903 810.074 152.67 810.074 153.506C810.074 154.347 810.199 155.116 810.449 155.815C810.705 156.514 811.094 157.074 811.616 157.494C812.145 157.915 812.81 158.125 813.611 158.125ZM822.549 164.909V146.909H825.038V149.031H825.251C825.398 148.759 825.612 148.443 825.89 148.085C826.168 147.727 826.555 147.415 827.049 147.148C827.543 146.875 828.197 146.739 829.009 146.739C830.066 146.739 831.009 147.006 831.839 147.54C832.668 148.074 833.319 148.844 833.79 149.849C834.268 150.855 834.506 152.065 834.506 153.48C834.506 154.895 834.271 156.108 833.799 157.119C833.327 158.125 832.68 158.901 831.856 159.446C831.032 159.986 830.092 160.256 829.035 160.256C828.239 160.256 827.589 160.122 827.083 159.855C826.583 159.588 826.191 159.276 825.907 158.918C825.623 158.56 825.404 158.241 825.251 157.963H825.097V164.909H822.549ZM825.046 153.455C825.046 154.375 825.18 155.182 825.447 155.875C825.714 156.568 826.1 157.111 826.606 157.503C827.112 157.889 827.731 158.082 828.464 158.082C829.225 158.082 829.862 157.881 830.373 157.477C830.884 157.068 831.271 156.514 831.532 155.815C831.799 155.116 831.933 154.33 831.933 153.455C831.933 152.591 831.802 151.815 831.54 151.128C831.285 150.44 830.898 149.898 830.381 149.5C829.87 149.102 829.231 148.903 828.464 148.903C827.725 148.903 827.1 149.094 826.589 149.474C826.083 149.855 825.7 150.386 825.438 151.068C825.177 151.75 825.046 152.545 825.046 153.455ZM847.171 150.105L844.862 150.514C844.765 150.219 844.612 149.937 844.401 149.67C844.197 149.403 843.918 149.185 843.566 149.014C843.214 148.844 842.773 148.759 842.245 148.759C841.523 148.759 840.921 148.92 840.438 149.244C839.955 149.562 839.714 149.974 839.714 150.48C839.714 150.918 839.876 151.27 840.2 151.537C840.523 151.804 841.046 152.023 841.768 152.193L843.847 152.67C845.052 152.949 845.95 153.378 846.54 153.957C847.131 154.537 847.427 155.29 847.427 156.216C847.427 157 847.2 157.699 846.745 158.312C846.296 158.92 845.668 159.398 844.862 159.744C844.06 160.091 843.131 160.264 842.075 160.264C840.609 160.264 839.413 159.952 838.487 159.327C837.56 158.696 836.992 157.801 836.782 156.642L839.245 156.267C839.398 156.909 839.714 157.395 840.191 157.724C840.668 158.048 841.29 158.21 842.058 158.21C842.893 158.21 843.56 158.037 844.06 157.69C844.56 157.338 844.81 156.909 844.81 156.403C844.81 155.994 844.657 155.651 844.35 155.372C844.049 155.094 843.586 154.884 842.961 154.741L840.745 154.256C839.523 153.977 838.62 153.534 838.035 152.926C837.455 152.318 837.165 151.548 837.165 150.616C837.165 149.844 837.381 149.168 837.813 148.588C838.245 148.009 838.842 147.557 839.603 147.233C840.364 146.903 841.237 146.739 842.219 146.739C843.634 146.739 844.748 147.045 845.56 147.659C846.373 148.267 846.91 149.082 847.171 150.105ZM861.66 160.247C860.489 160.247 859.481 160.034 858.634 159.608C857.793 159.182 857.146 158.602 856.691 157.869C856.237 157.131 856.009 156.295 856.009 155.364C856.009 154.653 856.157 154.023 856.452 153.472C856.748 152.915 857.16 152.401 857.688 151.929C858.217 151.457 858.827 150.983 859.521 150.506L862.333 148.52C862.81 148.207 863.183 147.878 863.45 147.531C863.717 147.179 863.85 146.744 863.85 146.227C863.85 145.818 863.674 145.426 863.322 145.051C862.969 144.676 862.498 144.489 861.907 144.489C861.498 144.489 861.137 144.588 860.825 144.787C860.518 144.986 860.276 145.241 860.1 145.554C859.93 145.861 859.844 146.185 859.844 146.526C859.844 146.923 859.952 147.324 860.168 147.727C860.39 148.131 860.674 148.548 861.021 148.98C861.367 149.406 861.731 149.849 862.112 150.31L870.217 160H867.336L860.629 152.116C860.066 151.452 859.543 150.827 859.06 150.241C858.577 149.651 858.185 149.054 857.884 148.452C857.589 147.844 857.441 147.188 857.441 146.483C857.441 145.682 857.623 144.972 857.987 144.352C858.356 143.727 858.87 143.239 859.529 142.886C860.188 142.534 860.961 142.358 861.847 142.358C862.745 142.358 863.515 142.534 864.157 142.886C864.805 143.233 865.302 143.696 865.648 144.276C866.001 144.849 866.177 145.477 866.177 146.159C866.177 146.989 865.969 147.722 865.555 148.358C865.146 148.989 864.58 149.568 863.859 150.097L860.356 152.679C859.674 153.179 859.2 153.673 858.933 154.162C858.671 154.645 858.54 155.023 858.54 155.295C858.54 155.795 858.668 156.259 858.924 156.685C859.185 157.111 859.549 157.452 860.015 157.707C860.487 157.963 861.038 158.091 861.668 158.091C862.316 158.091 862.947 157.952 863.56 157.673C864.18 157.389 864.739 156.983 865.239 156.455C865.745 155.926 866.146 155.293 866.441 154.554C866.737 153.815 866.884 152.989 866.884 152.074H869.185C869.185 153.199 869.058 154.151 868.802 154.929C868.546 155.702 868.237 156.332 867.873 156.821C867.515 157.304 867.177 157.682 866.859 157.955C866.756 158.045 866.66 158.136 866.569 158.227C866.478 158.318 866.381 158.409 866.279 158.5C865.688 159.097 864.972 159.537 864.131 159.821C863.296 160.105 862.472 160.247 861.66 160.247ZM884.079 160.264C882.812 160.264 881.721 159.977 880.806 159.403C879.897 158.824 879.198 158.026 878.71 157.009C878.221 155.991 877.977 154.827 877.977 153.514C877.977 152.185 878.227 151.011 878.727 149.994C879.227 148.972 879.931 148.173 880.84 147.599C881.749 147.026 882.82 146.739 884.053 146.739C885.048 146.739 885.934 146.923 886.712 147.293C887.491 147.656 888.119 148.168 888.596 148.827C889.079 149.486 889.366 150.256 889.457 151.136H886.977C886.84 150.523 886.528 149.994 886.039 149.551C885.556 149.108 884.908 148.886 884.096 148.886C883.386 148.886 882.763 149.074 882.229 149.449C881.701 149.818 881.289 150.347 880.994 151.034C880.698 151.716 880.55 152.523 880.55 153.455C880.55 154.409 880.695 155.233 880.985 155.926C881.275 156.619 881.684 157.156 882.212 157.537C882.746 157.918 883.374 158.108 884.096 158.108C884.579 158.108 885.016 158.02 885.408 157.844C885.806 157.662 886.138 157.403 886.406 157.068C886.678 156.733 886.869 156.33 886.977 155.858H889.457C889.366 156.705 889.09 157.46 888.63 158.125C888.17 158.79 887.553 159.312 886.781 159.693C886.013 160.074 885.113 160.264 884.079 160.264ZM897.696 160.264C896.469 160.264 895.398 159.983 894.483 159.42C893.568 158.858 892.858 158.071 892.352 157.06C891.847 156.048 891.594 154.866 891.594 153.514C891.594 152.156 891.847 150.969 892.352 149.952C892.858 148.935 893.568 148.145 894.483 147.582C895.398 147.02 896.469 146.739 897.696 146.739C898.923 146.739 899.994 147.02 900.909 147.582C901.824 148.145 902.534 148.935 903.04 149.952C903.545 150.969 903.798 152.156 903.798 153.514C903.798 154.866 903.545 156.048 903.04 157.06C902.534 158.071 901.824 158.858 900.909 159.42C899.994 159.983 898.923 160.264 897.696 160.264ZM897.705 158.125C898.5 158.125 899.159 157.915 899.682 157.494C900.205 157.074 900.591 156.514 900.841 155.815C901.097 155.116 901.224 154.347 901.224 153.506C901.224 152.67 901.097 151.903 900.841 151.205C900.591 150.5 900.205 149.935 899.682 149.509C899.159 149.082 898.5 148.869 897.705 148.869C896.903 148.869 896.239 149.082 895.71 149.509C895.188 149.935 894.798 150.5 894.543 151.205C894.293 151.903 894.168 152.67 894.168 153.506C894.168 154.347 894.293 155.116 894.543 155.815C894.798 156.514 895.188 157.074 895.71 157.494C896.239 157.915 896.903 158.125 897.705 158.125ZM909.191 142.545V160H906.643V142.545H909.191ZM915.168 142.545V160H912.619V142.545H915.168ZM924.238 160.264C922.948 160.264 921.837 159.989 920.906 159.438C919.979 158.881 919.263 158.099 918.758 157.094C918.258 156.082 918.008 154.898 918.008 153.54C918.008 152.199 918.258 151.017 918.758 149.994C919.263 148.972 919.968 148.173 920.871 147.599C921.781 147.026 922.843 146.739 924.059 146.739C924.798 146.739 925.513 146.861 926.207 147.105C926.9 147.349 927.522 147.733 928.073 148.256C928.624 148.778 929.059 149.457 929.377 150.293C929.695 151.122 929.854 152.131 929.854 153.318V154.222H919.448V152.312H927.357C927.357 151.642 927.221 151.048 926.948 150.531C926.675 150.009 926.292 149.597 925.798 149.295C925.309 148.994 924.735 148.844 924.076 148.844C923.36 148.844 922.735 149.02 922.201 149.372C921.673 149.719 921.263 150.173 920.974 150.736C920.69 151.293 920.548 151.898 920.548 152.551V154.043C920.548 154.918 920.701 155.662 921.008 156.276C921.32 156.889 921.755 157.358 922.312 157.682C922.869 158 923.519 158.159 924.263 158.159C924.746 158.159 925.187 158.091 925.585 157.955C925.982 157.812 926.326 157.602 926.616 157.324C926.906 157.045 927.127 156.702 927.281 156.293L929.692 156.727C929.499 157.437 929.153 158.06 928.653 158.594C928.158 159.122 927.536 159.534 926.786 159.83C926.042 160.119 925.192 160.264 924.238 160.264ZM938.196 160.264C936.929 160.264 935.838 159.977 934.923 159.403C934.014 158.824 933.315 158.026 932.827 157.009C932.338 155.991 932.094 154.827 932.094 153.514C932.094 152.185 932.344 151.011 932.844 149.994C933.344 148.972 934.048 148.173 934.957 147.599C935.866 147.026 936.938 146.739 938.17 146.739C939.165 146.739 940.051 146.923 940.83 147.293C941.608 147.656 942.236 148.168 942.713 148.827C943.196 149.486 943.483 150.256 943.574 151.136H941.094C940.957 150.523 940.645 149.994 940.156 149.551C939.673 149.108 939.026 148.886 938.213 148.886C937.503 148.886 936.881 149.074 936.347 149.449C935.818 149.818 935.406 150.347 935.111 151.034C934.815 151.716 934.668 152.523 934.668 153.455C934.668 154.409 934.813 155.233 935.102 155.926C935.392 156.619 935.801 157.156 936.33 157.537C936.864 157.918 937.491 158.108 938.213 158.108C938.696 158.108 939.134 158.02 939.526 157.844C939.923 157.662 940.256 157.403 940.523 157.068C940.795 156.733 940.986 156.33 941.094 155.858H943.574C943.483 156.705 943.207 157.46 942.747 158.125C942.287 158.79 941.67 159.312 940.898 159.693C940.131 160.074 939.23 160.264 938.196 160.264ZM952.41 146.909V148.955H945.259V146.909H952.41ZM947.177 143.773H949.725V156.156C949.725 156.651 949.799 157.023 949.947 157.273C950.094 157.517 950.285 157.685 950.518 157.776C950.756 157.861 951.015 157.903 951.293 157.903C951.498 157.903 951.677 157.889 951.83 157.861C951.984 157.832 952.103 157.81 952.188 157.793L952.648 159.898C952.501 159.955 952.29 160.011 952.018 160.068C951.745 160.131 951.404 160.165 950.995 160.17C950.325 160.182 949.7 160.062 949.12 159.812C948.54 159.562 948.072 159.176 947.714 158.653C947.356 158.131 947.177 157.474 947.177 156.685V143.773ZM955.229 160V146.909H957.777V160H955.229ZM956.516 144.889C956.072 144.889 955.692 144.741 955.374 144.446C955.061 144.145 954.905 143.787 954.905 143.372C954.905 142.952 955.061 142.594 955.374 142.298C955.692 141.997 956.072 141.847 956.516 141.847C956.959 141.847 957.337 141.997 957.649 142.298C957.967 142.594 958.126 142.952 958.126 143.372C958.126 143.787 957.967 144.145 957.649 144.446C957.337 144.741 956.959 144.889 956.516 144.889ZM961.41 160V142.545H963.958V149.031H964.112C964.259 148.759 964.472 148.443 964.751 148.085C965.029 147.727 965.415 147.415 965.91 147.148C966.404 146.875 967.058 146.739 967.87 146.739C968.927 146.739 969.87 147.006 970.7 147.54C971.529 148.074 972.18 148.844 972.651 149.849C973.129 150.855 973.367 152.065 973.367 153.48C973.367 154.895 973.131 156.108 972.66 157.119C972.188 158.125 971.54 158.901 970.717 159.446C969.893 159.986 968.952 160.256 967.896 160.256C967.1 160.256 966.45 160.122 965.944 159.855C965.444 159.588 965.052 159.276 964.768 158.918C964.484 158.56 964.265 158.241 964.112 157.963H963.898V160H961.41ZM963.907 153.455C963.907 154.375 964.04 155.182 964.308 155.875C964.575 156.568 964.961 157.111 965.467 157.503C965.972 157.889 966.592 158.082 967.325 158.082C968.086 158.082 968.722 157.881 969.234 157.477C969.745 157.068 970.131 156.514 970.393 155.815C970.66 155.116 970.793 154.33 970.793 153.455C970.793 152.591 970.663 151.815 970.401 151.128C970.146 150.44 969.759 149.898 969.242 149.5C968.731 149.102 968.092 148.903 967.325 148.903C966.586 148.903 965.961 149.094 965.45 149.474C964.944 149.855 964.56 150.386 964.299 151.068C964.038 151.75 963.907 152.545 963.907 153.455ZM978.777 142.545V160H976.229V142.545H978.777ZM987.847 160.264C986.558 160.264 985.447 159.989 984.515 159.438C983.589 158.881 982.873 158.099 982.367 157.094C981.867 156.082 981.617 154.898 981.617 153.54C981.617 152.199 981.867 151.017 982.367 149.994C982.873 148.972 983.577 148.173 984.481 147.599C985.39 147.026 986.452 146.739 987.668 146.739C988.407 146.739 989.123 146.861 989.816 147.105C990.509 147.349 991.131 147.733 991.683 148.256C992.234 148.778 992.668 149.457 992.987 150.293C993.305 151.122 993.464 152.131 993.464 153.318V154.222H983.058V152.312H990.967C990.967 151.642 990.83 151.048 990.558 150.531C990.285 150.009 989.901 149.597 989.407 149.295C988.918 148.994 988.344 148.844 987.685 148.844C986.969 148.844 986.344 149.02 985.81 149.372C985.282 149.719 984.873 150.173 984.583 150.736C984.299 151.293 984.157 151.898 984.157 152.551V154.043C984.157 154.918 984.31 155.662 984.617 156.276C984.93 156.889 985.364 157.358 985.921 157.682C986.478 158 987.129 158.159 987.873 158.159C988.356 158.159 988.796 158.091 989.194 157.955C989.592 157.812 989.935 157.602 990.225 157.324C990.515 157.045 990.737 156.702 990.89 156.293L993.302 156.727C993.109 157.437 992.762 158.06 992.262 158.594C991.768 159.122 991.146 159.534 990.396 159.83C989.651 160.119 988.802 160.264 987.847 160.264ZM1006.1 150.105L1003.79 150.514C1003.69 150.219 1003.54 149.937 1003.33 149.67C1003.13 149.403 1002.85 149.185 1002.5 149.014C1002.14 148.844 1001.7 148.759 1001.17 148.759C1000.45 148.759 999.851 148.92 999.368 149.244C998.885 149.562 998.643 149.974 998.643 150.48C998.643 150.918 998.805 151.27 999.129 151.537C999.453 151.804 999.976 152.023 1000.7 152.193L1002.78 152.67C1003.98 152.949 1004.88 153.378 1005.47 153.957C1006.06 154.537 1006.36 155.29 1006.36 156.216C1006.36 157 1006.13 157.699 1005.67 158.312C1005.23 158.92 1004.6 159.398 1003.79 159.744C1002.99 160.091 1002.06 160.264 1001 160.264C999.538 160.264 998.342 159.952 997.416 159.327C996.49 158.696 995.922 157.801 995.712 156.642L998.175 156.267C998.328 156.909 998.643 157.395 999.121 157.724C999.598 158.048 1000.22 158.21 1000.99 158.21C1001.82 158.21 1002.49 158.037 1002.99 157.69C1003.49 157.338 1003.74 156.909 1003.74 156.403C1003.74 155.994 1003.59 155.651 1003.28 155.372C1002.98 155.094 1002.52 154.884 1001.89 154.741L999.675 154.256C998.453 153.977 997.55 153.534 996.964 152.926C996.385 152.318 996.095 151.548 996.095 150.616C996.095 149.844 996.311 149.168 996.743 148.588C997.175 148.009 997.771 147.557 998.533 147.233C999.294 146.903 1000.17 146.739 1001.15 146.739C1002.56 146.739 1003.68 147.045 1004.49 147.659C1005.3 148.267 1005.84 149.082 1006.1 150.105Z" fill="white"/>
<path d="M678.865 305H646.135C644.404 305 643 306.404 643 308.135V340.865C643 342.596 644.404 344 646.135 344H678.865C680.596 344 682 342.596 682 340.865V308.135C682 306.404 680.596 305 678.865 305ZM678.865 340.88C657.035 340.875 646.12 340.87 646.12 340.865C646.125 319.035 646.13 308.12 646.135 308.12C667.965 308.125 678.88 308.13 678.88 308.135C678.875 329.965 678.87 340.88 678.865 340.88ZM648.782 319.62H654.568V338.233H648.782V319.62ZM651.677 317.075C653.525 317.075 655.031 315.574 655.031 313.721C655.031 313.281 654.945 312.845 654.776 312.438C654.608 312.031 654.361 311.661 654.049 311.35C653.738 311.038 653.368 310.791 652.961 310.623C652.554 310.454 652.118 310.367 651.677 310.367C651.237 310.367 650.801 310.454 650.394 310.623C649.987 310.791 649.617 311.038 649.306 311.35C648.994 311.661 648.747 312.031 648.579 312.438C648.41 312.845 648.323 313.281 648.323 313.721C648.319 315.574 649.82 317.075 651.677 317.075ZM663.977 329.024C663.977 326.596 664.44 324.246 667.448 324.246C670.412 324.246 670.456 327.02 670.456 329.18V338.233H676.238V328.025C676.238 323.013 675.155 319.157 669.301 319.157C666.488 319.157 664.601 320.702 663.826 322.165H663.748V319.62H658.195V338.233H663.977V329.024Z" fill="white"/>
<g clip-path="url(#clip0_58_25)">
<path fill-rule="evenodd" clip-rule="evenodd" d="M703 325.101C703 334.05 709.68 341.491 718.417 343V330H713.792V325H718.417V321C718.417 316.5 721.397 314 725.612 314C726.947 314 728.387 314.2 729.722 314.399V319H727.358C725.097 319 724.583 320.099 724.583 321.5V325H729.517L728.695 330H724.583V343C733.32 341.491 740 334.051 740 325.101C740 315.145 731.675 307 721.5 307C711.325 307 703 315.145 703 325.101Z" fill="white"/>
</g>
<path fill-rule="evenodd" clip-rule="evenodd" d="M771.579 307.108C773.499 307.02 774.111 307 779 307C783.889 307 784.501 307.021 786.419 307.108C788.337 307.195 789.646 307.501 790.792 307.944C791.991 308.397 793.079 309.106 793.979 310.022C794.896 310.921 795.603 312.007 796.054 313.208C796.499 314.354 796.804 315.663 796.892 317.577C796.98 319.5 797 320.112 797 325C797 329.889 796.979 330.501 796.892 332.421C796.805 334.335 796.499 335.645 796.054 336.79C795.603 337.991 794.894 339.08 793.979 339.979C793.079 340.896 791.991 341.603 790.792 342.054C789.646 342.499 788.337 342.804 786.423 342.892C784.501 342.98 783.889 343 779 343C774.111 343 773.499 342.979 771.579 342.892C769.665 342.805 768.355 342.499 767.21 342.054C766.009 341.602 764.92 340.894 764.021 339.979C763.105 339.08 762.396 337.993 761.944 336.792C761.501 335.646 761.196 334.337 761.108 332.423C761.02 330.5 761 329.888 761 325C761 320.111 761.021 319.499 761.108 317.581C761.195 315.663 761.501 314.354 761.944 313.208C762.397 312.007 763.106 310.92 764.022 310.021C764.921 309.105 766.008 308.397 767.208 307.944C768.354 307.501 769.663 307.196 771.577 307.108H771.579ZM786.274 310.348C784.375 310.261 783.806 310.243 779 310.243C774.194 310.243 773.625 310.261 771.726 310.348C769.971 310.428 769.018 310.721 768.383 310.968C767.544 311.295 766.943 311.683 766.313 312.313C765.716 312.894 765.256 313.602 764.968 314.383C764.721 315.018 764.428 315.971 764.348 317.726C764.261 319.625 764.243 320.194 764.243 325C764.243 329.806 764.261 330.375 764.348 332.274C764.428 334.029 764.721 334.982 764.968 335.617C765.256 336.397 765.716 337.106 766.313 337.687C766.894 338.284 767.603 338.744 768.383 339.032C769.018 339.279 769.971 339.572 771.726 339.652C773.625 339.739 774.192 339.757 779 339.757C783.808 339.757 784.375 339.739 786.274 339.652C788.029 339.572 788.982 339.279 789.617 339.032C790.456 338.705 791.057 338.317 791.687 337.687C792.284 337.106 792.744 336.397 793.032 335.617C793.279 334.982 793.572 334.029 793.652 332.274C793.739 330.375 793.757 329.806 793.757 325C793.757 320.194 793.739 319.625 793.652 317.726C793.572 315.971 793.279 315.018 793.032 314.383C792.705 313.544 792.317 312.943 791.687 312.313C791.106 311.716 790.398 311.257 789.617 310.968C788.982 310.721 788.029 310.428 786.274 310.348ZM776.701 330.549C777.985 331.083 779.415 331.156 780.746 330.753C782.077 330.35 783.227 329.498 784 328.342C784.773 327.185 785.12 325.797 784.983 324.413C784.845 323.029 784.231 321.735 783.246 320.754C782.618 320.126 781.859 319.646 781.023 319.347C780.187 319.048 779.295 318.938 778.412 319.025C777.528 319.112 776.675 319.394 775.913 319.851C775.152 320.307 774.501 320.927 774.008 321.665C773.515 322.403 773.191 323.241 773.061 324.12C772.93 324.998 772.996 325.894 773.254 326.744C773.512 327.593 773.954 328.375 774.55 329.033C775.146 329.691 775.881 330.209 776.701 330.549ZM772.458 318.458C773.317 317.599 774.337 316.917 775.459 316.452C776.582 315.987 777.785 315.748 779 315.748C780.215 315.748 781.418 315.987 782.541 316.452C783.663 316.917 784.683 317.599 785.542 318.458C786.401 319.317 787.083 320.337 787.548 321.459C788.013 322.582 788.252 323.785 788.252 325C788.252 326.215 788.013 327.418 787.548 328.541C787.083 329.663 786.401 330.683 785.542 331.542C783.807 333.277 781.454 334.252 779 334.252C776.546 334.252 774.193 333.277 772.458 331.542C770.723 329.807 769.748 327.454 769.748 325C769.748 322.546 770.723 320.193 772.458 318.458ZM790.304 317.126C790.517 316.925 790.687 316.683 790.805 316.416C790.923 316.148 790.986 315.859 790.99 315.566C790.995 315.274 790.94 314.983 790.83 314.712C790.72 314.441 790.557 314.194 790.35 313.987C790.143 313.78 789.896 313.617 789.625 313.507C789.354 313.397 789.063 313.343 788.771 313.347C788.478 313.351 788.189 313.414 787.921 313.532C787.654 313.65 787.412 313.82 787.211 314.033C786.821 314.447 786.607 314.997 786.615 315.566C786.623 316.135 786.853 316.679 787.256 317.081C787.658 317.484 788.202 317.714 788.771 317.722C789.34 317.73 789.89 317.516 790.304 317.126Z" fill="white"/>
<rect x="470" y="201" width="345" height="60" rx="15" fill="white"/>
<rect x="796" y="201" width="177" height="61" rx="15" fill="#00BC6D" fill-opacity="0.99"/>
<path d="M844.196 229.841L842.389 230.352C842.275 230.051 842.108 229.759 841.886 229.474C841.67 229.185 841.375 228.946 841 228.759C840.625 228.571 840.145 228.477 839.559 228.477C838.758 228.477 838.091 228.662 837.556 229.031C837.028 229.395 836.764 229.858 836.764 230.42C836.764 230.92 836.946 231.315 837.309 231.605C837.673 231.895 838.241 232.136 839.014 232.33L840.957 232.807C842.127 233.091 843 233.526 843.574 234.111C844.147 234.69 844.434 235.437 844.434 236.352C844.434 237.102 844.218 237.773 843.787 238.364C843.36 238.955 842.764 239.42 841.997 239.761C841.23 240.102 840.338 240.273 839.321 240.273C837.985 240.273 836.88 239.983 836.005 239.403C835.13 238.824 834.576 237.977 834.343 236.864L836.252 236.386C836.434 237.091 836.778 237.619 837.284 237.972C837.795 238.324 838.463 238.5 839.287 238.5C840.224 238.5 840.968 238.301 841.52 237.903C842.076 237.5 842.355 237.017 842.355 236.455C842.355 236 842.196 235.619 841.877 235.312C841.559 235 841.071 234.767 840.412 234.614L838.23 234.102C837.031 233.818 836.15 233.378 835.588 232.781C835.031 232.179 834.752 231.426 834.752 230.523C834.752 229.784 834.96 229.131 835.375 228.562C835.795 227.994 836.366 227.548 837.088 227.224C837.815 226.901 838.639 226.739 839.559 226.739C840.855 226.739 841.872 227.023 842.61 227.591C843.355 228.159 843.883 228.909 844.196 229.841ZM855.712 234.648V226.909H857.723V240H855.712V237.784H855.576C855.269 238.449 854.792 239.014 854.144 239.48C853.496 239.94 852.678 240.17 851.689 240.17C850.871 240.17 850.144 239.991 849.507 239.634C848.871 239.27 848.371 238.724 848.007 237.997C847.644 237.264 847.462 236.341 847.462 235.227V226.909H849.473V235.091C849.473 236.045 849.74 236.807 850.275 237.375C850.814 237.943 851.502 238.227 852.337 238.227C852.837 238.227 853.346 238.099 853.863 237.844C854.385 237.588 854.823 237.196 855.175 236.668C855.533 236.139 855.712 235.466 855.712 234.648ZM861.68 240V222.545H863.691V228.989H863.862C864.01 228.761 864.214 228.472 864.475 228.119C864.743 227.761 865.123 227.443 865.618 227.165C866.118 226.881 866.794 226.739 867.646 226.739C868.748 226.739 869.72 227.014 870.561 227.565C871.402 228.116 872.058 228.898 872.529 229.909C873.001 230.92 873.237 232.114 873.237 233.489C873.237 234.875 873.001 236.077 872.529 237.094C872.058 238.105 871.404 238.889 870.569 239.446C869.734 239.997 868.771 240.273 867.68 240.273C866.839 240.273 866.166 240.134 865.66 239.855C865.154 239.571 864.765 239.25 864.493 238.892C864.22 238.528 864.01 238.227 863.862 237.989H863.623V240H861.68ZM863.657 233.455C863.657 234.443 863.802 235.315 864.092 236.071C864.382 236.821 864.805 237.409 865.362 237.835C865.919 238.256 866.6 238.466 867.407 238.466C868.248 238.466 868.95 238.244 869.512 237.801C870.081 237.352 870.507 236.75 870.791 235.994C871.081 235.233 871.225 234.386 871.225 233.455C871.225 232.534 871.083 231.705 870.799 230.966C870.521 230.222 870.098 229.634 869.529 229.202C868.967 228.764 868.26 228.545 867.407 228.545C866.589 228.545 865.902 228.753 865.345 229.168C864.788 229.577 864.368 230.151 864.083 230.889C863.799 231.622 863.657 232.477 863.657 233.455ZM885.586 229.841L883.779 230.352C883.666 230.051 883.498 229.759 883.277 229.474C883.061 229.185 882.765 228.946 882.39 228.759C882.015 228.571 881.535 228.477 880.95 228.477C880.149 228.477 879.481 228.662 878.947 229.031C878.419 229.395 878.154 229.858 878.154 230.42C878.154 230.92 878.336 231.315 878.7 231.605C879.064 231.895 879.632 232.136 880.404 232.33L882.348 232.807C883.518 233.091 884.39 233.526 884.964 234.111C885.538 234.69 885.825 235.437 885.825 236.352C885.825 237.102 885.609 237.773 885.177 238.364C884.751 238.955 884.154 239.42 883.387 239.761C882.62 240.102 881.728 240.273 880.711 240.273C879.376 240.273 878.271 239.983 877.396 239.403C876.521 238.824 875.967 237.977 875.734 236.864L877.643 236.386C877.825 237.091 878.169 237.619 878.674 237.972C879.186 238.324 879.853 238.5 880.677 238.5C881.615 238.5 882.359 238.301 882.91 237.903C883.467 237.5 883.745 237.017 883.745 236.455C883.745 236 883.586 235.619 883.268 235.312C882.95 235 882.461 234.767 881.802 234.614L879.62 234.102C878.422 233.818 877.541 233.378 876.978 232.781C876.422 232.179 876.143 231.426 876.143 230.523C876.143 229.784 876.35 229.131 876.765 228.562C877.186 227.994 877.757 227.548 878.478 227.224C879.206 226.901 880.029 226.739 880.95 226.739C882.245 226.739 883.262 227.023 884.001 227.591C884.745 228.159 885.274 228.909 885.586 229.841ZM894.171 240.273C892.944 240.273 891.887 239.983 891 239.403C890.114 238.824 889.432 238.026 888.955 237.009C888.478 235.991 888.239 234.83 888.239 233.523C888.239 232.193 888.483 231.02 888.972 230.003C889.466 228.98 890.154 228.182 891.034 227.608C891.921 227.028 892.955 226.739 894.137 226.739C895.057 226.739 895.887 226.909 896.625 227.25C897.364 227.591 897.969 228.068 898.441 228.682C898.912 229.295 899.205 230.011 899.319 230.83H897.307C897.154 230.233 896.813 229.705 896.284 229.244C895.762 228.778 895.057 228.545 894.171 228.545C893.387 228.545 892.699 228.75 892.108 229.159C891.523 229.562 891.066 230.134 890.736 230.872C890.412 231.605 890.25 232.466 890.25 233.455C890.25 234.466 890.409 235.347 890.728 236.097C891.051 236.847 891.506 237.429 892.091 237.844C892.682 238.259 893.375 238.466 894.171 238.466C894.694 238.466 895.168 238.375 895.594 238.193C896.02 238.011 896.381 237.75 896.676 237.409C896.972 237.068 897.182 236.659 897.307 236.182H899.319C899.205 236.955 898.924 237.651 898.475 238.27C898.032 238.884 897.444 239.372 896.711 239.736C895.983 240.094 895.137 240.273 894.171 240.273ZM902.259 240V226.909H904.202V228.886H904.338C904.577 228.239 905.009 227.713 905.634 227.31C906.259 226.906 906.963 226.705 907.748 226.705C907.895 226.705 908.08 226.707 908.301 226.713C908.523 226.719 908.691 226.727 908.804 226.739V228.784C908.736 228.767 908.58 228.741 908.336 228.707C908.097 228.668 907.844 228.648 907.577 228.648C906.941 228.648 906.373 228.781 905.873 229.048C905.378 229.31 904.986 229.673 904.696 230.139C904.412 230.599 904.27 231.125 904.27 231.716V240H902.259ZM911.189 240V226.909H913.2V240H911.189ZM912.211 224.727C911.819 224.727 911.481 224.594 911.197 224.327C910.919 224.06 910.779 223.739 910.779 223.364C910.779 222.989 910.919 222.668 911.197 222.401C911.481 222.134 911.819 222 912.211 222C912.603 222 912.939 222.134 913.217 222.401C913.501 222.668 913.643 222.989 913.643 223.364C913.643 223.739 913.501 224.06 913.217 224.327C912.939 224.594 912.603 224.727 912.211 224.727ZM917.157 240V222.545H919.168V228.989H919.338C919.486 228.761 919.691 228.472 919.952 228.119C920.219 227.761 920.6 227.443 921.094 227.165C921.594 226.881 922.27 226.739 923.123 226.739C924.225 226.739 925.196 227.014 926.037 227.565C926.878 228.116 927.534 228.898 928.006 229.909C928.478 230.92 928.713 232.114 928.713 233.489C928.713 234.875 928.478 236.077 928.006 237.094C927.534 238.105 926.881 238.889 926.046 239.446C925.211 239.997 924.248 240.273 923.157 240.273C922.316 240.273 921.642 240.134 921.137 239.855C920.631 239.571 920.242 239.25 919.969 238.892C919.696 238.528 919.486 238.227 919.338 237.989H919.1V240H917.157ZM919.134 233.455C919.134 234.443 919.279 235.315 919.569 236.071C919.858 236.821 920.282 237.409 920.838 237.835C921.395 238.256 922.077 238.466 922.884 238.466C923.725 238.466 924.426 238.244 924.989 237.801C925.557 237.352 925.983 236.75 926.267 235.994C926.557 235.233 926.702 234.386 926.702 233.455C926.702 232.534 926.56 231.705 926.276 230.966C925.998 230.222 925.574 229.634 925.006 229.202C924.444 228.764 923.736 228.545 922.884 228.545C922.066 228.545 921.378 228.753 920.821 229.168C920.265 229.577 919.844 230.151 919.56 230.889C919.276 231.622 919.134 232.477 919.134 233.455ZM937.279 240.273C936.017 240.273 934.929 239.994 934.015 239.438C933.105 238.875 932.404 238.091 931.909 237.085C931.421 236.074 931.176 234.898 931.176 233.557C931.176 232.216 931.421 231.034 931.909 230.011C932.404 228.983 933.091 228.182 933.972 227.608C934.858 227.028 935.892 226.739 937.074 226.739C937.756 226.739 938.429 226.852 939.094 227.08C939.759 227.307 940.364 227.676 940.909 228.188C941.455 228.693 941.89 229.364 942.213 230.199C942.537 231.034 942.699 232.062 942.699 233.284V234.136H932.608V232.398H940.654C940.654 231.659 940.506 231 940.211 230.42C939.921 229.841 939.506 229.384 938.966 229.048C938.432 228.713 937.801 228.545 937.074 228.545C936.273 228.545 935.58 228.744 934.995 229.142C934.415 229.534 933.969 230.045 933.657 230.676C933.344 231.307 933.188 231.983 933.188 232.705V233.864C933.188 234.852 933.358 235.69 933.699 236.378C934.046 237.06 934.526 237.58 935.14 237.938C935.753 238.29 936.466 238.466 937.279 238.466C937.807 238.466 938.284 238.392 938.711 238.244C939.142 238.091 939.515 237.864 939.827 237.562C940.14 237.256 940.381 236.875 940.551 236.42L942.495 236.966C942.29 237.625 941.946 238.205 941.463 238.705C940.98 239.199 940.384 239.585 939.674 239.864C938.963 240.136 938.165 240.273 937.279 240.273Z" fill="white"/>
<defs>
<linearGradient id="paint0_linear_58_25" x1="720" y1="-330" x2="720" y2="388" gradientUnits="userSpaceOnUse">
<stop stop-color="#00BC6D" stop-opacity="0.99"/>
<stop offset="1" stop-color="#01004A"/>
</linearGradient>
<clipPath id="clip0_58_25">
<rect width="37" height="36" fill="white" transform="translate(703 307)"/>
</clipPath>
</defs>
</svg>
