<svg width="1245" height="62" viewBox="0 0 1245 62" fill="none" xmlns="http://www.w3.org/2000/svg">
<g filter="url(#filter0_d_71_18)">
<rect x="4" width="90" height="54" rx="15" fill="black"/>
<rect x="4.5" y="0.5" width="89" height="53" rx="14.5" stroke="white"/>
</g>
<rect x="925.5" y="0.5" width="134" height="53" rx="14.5" fill="black" stroke="white"/>
<rect x="1110.5" y="0.5" width="134" height="53" rx="14.5" fill="black" stroke="white"/>
<g filter="url(#filter1_d_71_18)">
<rect x="383" width="124" height="54" rx="15" fill="black"/>
<rect x="383.5" y="0.5" width="123" height="53" rx="14.5" stroke="white"/>
</g>
<g filter="url(#filter2_d_71_18)">
<rect x="557" width="127" height="54" rx="15" fill="black"/>
<rect x="557.5" y="0.5" width="126" height="53" rx="14.5" stroke="white"/>
</g>
<rect x="144" width="189" height="54" rx="15" fill="url(#paint0_linear_71_18)"/>
<g filter="url(#filter3_d_71_18)">
<rect x="734" width="141" height="54" rx="15" fill="black"/>
<rect x="734.5" y="0.5" width="140" height="53" rx="14.5" stroke="white"/>
</g>
<path d="M39.1818 36.2472C38.3466 36.2472 37.6023 36.1023 36.9489 35.8125C36.2955 35.517 35.7784 35.0824 35.3977 34.5085C35.0227 33.929 34.8352 33.2074 34.8352 32.3438C34.8352 31.6165 34.9688 31.0057 35.2358 30.5114C35.5028 30.017 35.8665 29.6193 36.3267 29.3182C36.7869 29.017 37.3097 28.7898 37.8949 28.6364C38.4858 28.483 39.1051 28.375 39.7528 28.3125C40.5142 28.233 41.1278 28.1591 41.5938 28.0909C42.0597 28.017 42.3977 27.9091 42.608 27.767C42.8182 27.625 42.9233 27.4148 42.9233 27.1364V27.0852C42.9233 26.5455 42.7528 26.1278 42.4119 25.8324C42.0767 25.5369 41.5994 25.3892 40.9801 25.3892C40.3267 25.3892 39.8068 25.5341 39.4205 25.8239C39.0341 26.108 38.7784 26.4659 38.6534 26.8977L35.2955 26.625C35.4659 25.8295 35.8011 25.142 36.3011 24.5625C36.8011 23.9773 37.446 23.5284 38.2358 23.2159C39.0313 22.8977 39.9517 22.7386 40.9972 22.7386C41.7244 22.7386 42.4205 22.8239 43.0852 22.9943C43.7557 23.1648 44.3494 23.429 44.8665 23.7869C45.3892 24.1449 45.8011 24.6051 46.1023 25.1676C46.4034 25.7244 46.554 26.392 46.554 27.1705V36H43.1108V34.1847H43.0085C42.7983 34.5938 42.517 34.9545 42.1648 35.267C41.8125 35.5739 41.3892 35.8153 40.8949 35.9915C40.4006 36.1619 39.8295 36.2472 39.1818 36.2472ZM40.2216 33.7415C40.7557 33.7415 41.2273 33.6364 41.6364 33.4261C42.0455 33.2102 42.3665 32.9205 42.5994 32.5568C42.8324 32.1932 42.9489 31.7812 42.9489 31.321V29.9318C42.8352 30.0057 42.679 30.0739 42.4801 30.1364C42.2869 30.1932 42.0682 30.2472 41.8239 30.2983C41.5795 30.3437 41.3352 30.3864 41.0909 30.4261C40.8466 30.4602 40.625 30.4915 40.4261 30.5199C40 30.5824 39.6278 30.6818 39.3097 30.8182C38.9915 30.9545 38.7443 31.1392 38.5682 31.3722C38.392 31.5994 38.304 31.8835 38.304 32.2244C38.304 32.7188 38.483 33.0966 38.8409 33.358C39.2045 33.6136 39.6648 33.7415 40.2216 33.7415ZM53.0014 18.5455V36H49.3707V18.5455H53.0014ZM59.5405 18.5455V36H55.9098V18.5455H59.5405Z" fill="white"/>
<path d="M965.517 34V16.5455H969.207V30.9574H976.69V34H965.517ZM982.799 34.2472C981.964 34.2472 981.219 34.1023 980.566 33.8125C979.913 33.517 979.396 33.0824 979.015 32.5085C978.64 31.929 978.452 31.2074 978.452 30.3438C978.452 29.6165 978.586 29.0057 978.853 28.5114C979.12 28.017 979.484 27.6193 979.944 27.3182C980.404 27.017 980.927 26.7898 981.512 26.6364C982.103 26.483 982.722 26.375 983.37 26.3125C984.131 26.233 984.745 26.1591 985.211 26.0909C985.677 26.017 986.015 25.9091 986.225 25.767C986.435 25.625 986.54 25.4148 986.54 25.1364V25.0852C986.54 24.5455 986.37 24.1278 986.029 23.8324C985.694 23.5369 985.217 23.3892 984.597 23.3892C983.944 23.3892 983.424 23.5341 983.038 23.8239C982.651 24.108 982.396 24.4659 982.271 24.8977L978.913 24.625C979.083 23.8295 979.418 23.142 979.918 22.5625C980.418 21.9773 981.063 21.5284 981.853 21.2159C982.648 20.8977 983.569 20.7386 984.614 20.7386C985.342 20.7386 986.038 20.8239 986.702 20.9943C987.373 21.1648 987.967 21.429 988.484 21.7869C989.006 22.1449 989.418 22.6051 989.719 23.1676C990.021 23.7244 990.171 24.392 990.171 25.1705V34H986.728V32.1847H986.626C986.415 32.5938 986.134 32.9545 985.782 33.267C985.43 33.5739 985.006 33.8153 984.512 33.9915C984.018 34.1619 983.447 34.2472 982.799 34.2472ZM983.839 31.7415C984.373 31.7415 984.844 31.6364 985.254 31.4261C985.663 31.2102 985.984 30.9205 986.217 30.5568C986.45 30.1932 986.566 29.7812 986.566 29.321V27.9318C986.452 28.0057 986.296 28.0739 986.097 28.1364C985.904 28.1932 985.685 28.2472 985.441 28.2983C985.197 28.3437 984.952 28.3864 984.708 28.4261C984.464 28.4602 984.242 28.4915 984.043 28.5199C983.617 28.5824 983.245 28.6818 982.927 28.8182C982.609 28.9545 982.362 29.1392 982.185 29.3722C982.009 29.5994 981.921 29.8835 981.921 30.2244C981.921 30.7188 982.1 31.0966 982.458 31.358C982.822 31.6136 983.282 31.7415 983.839 31.7415ZM999.951 20.9091V23.6364H992.067V20.9091H999.951ZM993.857 17.7727H997.488V29.9773C997.488 30.3125 997.539 30.5739 997.641 30.7614C997.744 30.9432 997.886 31.071 998.067 31.1449C998.255 31.2187 998.471 31.2557 998.715 31.2557C998.886 31.2557 999.056 31.2415 999.227 31.2131C999.397 31.179 999.528 31.1534 999.619 31.1364L1000.19 33.8381C1000.01 33.8949 999.752 33.9602 999.423 34.0341C999.093 34.1136 998.692 34.1619 998.221 34.179C997.346 34.2131 996.579 34.0966 995.92 33.8295C995.266 33.5625 994.758 33.1477 994.394 32.5852C994.031 32.0227 993.852 31.3125 993.857 30.4545V17.7727ZM1002.32 34V20.9091H1005.95V34H1002.32ZM1004.14 19.2216C1003.6 19.2216 1003.14 19.0426 1002.75 18.6847C1002.37 18.321 1002.18 17.8864 1002.18 17.3807C1002.18 16.8807 1002.37 16.4517 1002.75 16.0938C1003.14 15.7301 1003.6 15.5483 1004.14 15.5483C1004.68 15.5483 1005.14 15.7301 1005.52 16.0938C1005.91 16.4517 1006.1 16.8807 1006.1 17.3807C1006.1 17.8864 1005.91 18.321 1005.52 18.6847C1005.14 19.0426 1004.68 19.2216 1004.14 19.2216ZM1012.49 26.4318V34H1008.86V20.9091H1012.32V23.2188H1012.47C1012.76 22.4574 1013.24 21.8551 1013.93 21.4119C1014.61 20.9631 1015.43 20.7386 1016.41 20.7386C1017.32 20.7386 1018.11 20.9375 1018.78 21.3352C1019.46 21.733 1019.99 22.3011 1020.36 23.0398C1020.74 23.7727 1020.92 24.6477 1020.92 25.6648V34H1017.29V26.3125C1017.3 25.5114 1017.09 24.8864 1016.68 24.4375C1016.26 23.983 1015.69 23.7557 1014.97 23.7557C1014.48 23.7557 1014.05 23.8608 1013.67 24.071C1013.3 24.2812 1013.01 24.5881 1012.8 24.9915C1012.6 25.3892 1012.49 25.8693 1012.49 26.4318Z" fill="white"/>
<path d="M1153.52 34V16.5455H1160.4C1161.72 16.5455 1162.85 16.7812 1163.78 17.2528C1164.72 17.7187 1165.43 18.3807 1165.92 19.2386C1166.41 20.0909 1166.66 21.0937 1166.66 22.2472C1166.66 23.4062 1166.41 24.4034 1165.91 25.2386C1165.41 26.0682 1164.68 26.7045 1163.74 27.1477C1162.79 27.5909 1161.65 27.8125 1160.31 27.8125H1155.7V24.8466H1159.71C1160.42 24.8466 1161 24.75 1161.47 24.5568C1161.93 24.3636 1162.28 24.0739 1162.51 23.6875C1162.74 23.3011 1162.86 22.821 1162.86 22.2472C1162.86 21.6676 1162.74 21.179 1162.51 20.7812C1162.28 20.3835 1161.93 20.0824 1161.46 19.8778C1160.99 19.6676 1160.41 19.5625 1159.7 19.5625H1157.21V34H1153.52ZM1162.94 26.0568L1167.28 34H1163.21L1158.96 26.0568H1162.94ZM1174.9 34.2557C1173.58 34.2557 1172.43 33.9744 1171.47 33.4119C1170.51 32.8437 1169.77 32.054 1169.24 31.0426C1168.72 30.0256 1168.46 28.8466 1168.46 27.5057C1168.46 26.1534 1168.72 24.9716 1169.24 23.9602C1169.77 22.9432 1170.51 22.1534 1171.47 21.5909C1172.43 21.0227 1173.58 20.7386 1174.9 20.7386C1176.23 20.7386 1177.37 21.0227 1178.33 21.5909C1179.29 22.1534 1180.04 22.9432 1180.56 23.9602C1181.08 24.9716 1181.35 26.1534 1181.35 27.5057C1181.35 28.8466 1181.08 30.0256 1180.56 31.0426C1180.04 32.054 1179.29 32.8437 1178.33 33.4119C1177.37 33.9744 1176.23 34.2557 1174.9 34.2557ZM1174.92 31.4432C1175.52 31.4432 1176.02 31.2727 1176.43 30.9318C1176.83 30.5852 1177.14 30.1136 1177.34 29.517C1177.55 28.9205 1177.66 28.2415 1177.66 27.4801C1177.66 26.7188 1177.55 26.0398 1177.34 25.4432C1177.14 24.8466 1176.83 24.375 1176.43 24.0284C1176.02 23.6818 1175.52 23.5085 1174.92 23.5085C1174.31 23.5085 1173.8 23.6818 1173.39 24.0284C1172.98 24.375 1172.67 24.8466 1172.46 25.4432C1172.25 26.0398 1172.15 26.7188 1172.15 27.4801C1172.15 28.2415 1172.25 28.9205 1172.46 29.517C1172.67 30.1136 1172.98 30.5852 1173.39 30.9318C1173.8 31.2727 1174.31 31.4432 1174.92 31.4432ZM1189.62 34.2557C1188.28 34.2557 1187.13 33.9716 1186.16 33.4034C1185.2 32.8295 1184.46 32.0341 1183.95 31.017C1183.43 30 1183.18 28.8295 1183.18 27.5057C1183.18 26.1648 1183.44 24.9886 1183.95 23.9773C1184.48 22.9602 1185.22 22.1676 1186.18 21.5994C1187.14 21.0256 1188.28 20.7386 1189.6 20.7386C1190.75 20.7386 1191.75 20.946 1192.6 21.3608C1193.46 21.7756 1194.14 22.358 1194.64 23.108C1195.14 23.858 1195.42 24.7386 1195.47 25.75H1192.04C1191.95 25.0966 1191.69 24.571 1191.27 24.1733C1190.87 23.7699 1190.33 23.5682 1189.66 23.5682C1189.1 23.5682 1188.61 23.7216 1188.19 24.0284C1187.77 24.3295 1187.45 24.7699 1187.22 25.3494C1186.99 25.929 1186.87 26.6307 1186.87 27.4545C1186.87 28.2898 1186.98 29 1187.21 29.5852C1187.44 30.1705 1187.77 30.6165 1188.19 30.9233C1188.61 31.2301 1189.1 31.3835 1189.66 31.3835C1190.08 31.3835 1190.45 31.2983 1190.78 31.1278C1191.12 30.9574 1191.39 30.7102 1191.61 30.3864C1191.83 30.0568 1191.97 29.6619 1192.04 29.2017H1195.47C1195.41 30.2017 1195.14 31.0824 1194.65 31.8438C1194.17 32.5994 1193.5 33.1903 1192.65 33.6165C1191.79 34.0426 1190.79 34.2557 1189.62 34.2557ZM1201.08 30.233L1201.09 25.8778H1201.62L1205.81 20.9091H1209.98L1204.35 27.4886H1203.49L1201.08 30.233ZM1197.79 34V16.5455H1201.42V34H1197.79ZM1205.97 34L1202.12 28.2983L1204.54 25.733L1210.23 34H1205.97Z" fill="white"/>
<path d="M428.506 16.5455H432.153V28.7159C432.153 29.8409 431.901 30.8182 431.395 31.6477C430.895 32.4773 430.199 33.1165 429.307 33.5653C428.415 34.0142 427.378 34.2386 426.196 34.2386C425.145 34.2386 424.19 34.054 423.332 33.6847C422.48 33.3097 421.804 32.7415 421.304 31.9801C420.804 31.2131 420.557 30.25 420.562 29.0909H424.236C424.247 29.5511 424.341 29.946 424.517 30.2756C424.699 30.5994 424.946 30.8494 425.259 31.0256C425.577 31.196 425.952 31.2812 426.384 31.2812C426.838 31.2812 427.222 31.1847 427.534 30.9915C427.852 30.7926 428.094 30.5028 428.259 30.1222C428.423 29.7415 428.506 29.2727 428.506 28.7159V16.5455ZM438.869 34.2472C438.034 34.2472 437.29 34.1023 436.636 33.8125C435.983 33.517 435.466 33.0824 435.085 32.5085C434.71 31.929 434.523 31.2074 434.523 30.3438C434.523 29.6165 434.656 29.0057 434.923 28.5114C435.19 28.017 435.554 27.6193 436.014 27.3182C436.474 27.017 436.997 26.7898 437.582 26.6364C438.173 26.483 438.793 26.375 439.44 26.3125C440.202 26.233 440.815 26.1591 441.281 26.0909C441.747 26.017 442.085 25.9091 442.295 25.767C442.506 25.625 442.611 25.4148 442.611 25.1364V25.0852C442.611 24.5455 442.44 24.1278 442.099 23.8324C441.764 23.5369 441.287 23.3892 440.668 23.3892C440.014 23.3892 439.494 23.5341 439.108 23.8239C438.722 24.108 438.466 24.4659 438.341 24.8977L434.983 24.625C435.153 23.8295 435.489 23.142 435.989 22.5625C436.489 21.9773 437.134 21.5284 437.923 21.2159C438.719 20.8977 439.639 20.7386 440.685 20.7386C441.412 20.7386 442.108 20.8239 442.773 20.9943C443.443 21.1648 444.037 21.429 444.554 21.7869C445.077 22.1449 445.489 22.6051 445.79 23.1676C446.091 23.7244 446.241 24.392 446.241 25.1705V34H442.798V32.1847H442.696C442.486 32.5938 442.205 32.9545 441.852 33.267C441.5 33.5739 441.077 33.8153 440.582 33.9915C440.088 34.1619 439.517 34.2472 438.869 34.2472ZM439.909 31.7415C440.443 31.7415 440.915 31.6364 441.324 31.4261C441.733 31.2102 442.054 30.9205 442.287 30.5568C442.52 30.1932 442.636 29.7812 442.636 29.321V27.9318C442.523 28.0057 442.366 28.0739 442.168 28.1364C441.974 28.1932 441.756 28.2472 441.511 28.2983C441.267 28.3437 441.023 28.3864 440.778 28.4261C440.534 28.4602 440.312 28.4915 440.114 28.5199C439.688 28.5824 439.315 28.6818 438.997 28.8182C438.679 28.9545 438.432 29.1392 438.256 29.3722C438.08 29.5994 437.991 29.8835 437.991 30.2244C437.991 30.7188 438.17 31.0966 438.528 31.358C438.892 31.6136 439.352 31.7415 439.909 31.7415ZM448.99 34V31.8352L455.399 23.9006V23.8068H449.212V20.9091H459.771V23.2699L453.754 31.0085V31.1023H459.993V34H448.99ZM462.701 34V31.8352L469.11 23.9006V23.8068H462.923V20.9091H473.482V23.2699L467.465 31.0085V31.1023H473.704V34H462.701Z" fill="white"/>
<path d="M601.517 34V16.5455H608.403C609.727 16.5455 610.855 16.7983 611.787 17.304C612.719 17.804 613.429 18.5 613.918 19.392C614.412 20.2784 614.659 21.3011 614.659 22.4602C614.659 23.6193 614.409 24.642 613.909 25.5284C613.409 26.4148 612.685 27.1051 611.736 27.5994C610.793 28.0937 609.651 28.3409 608.31 28.3409H603.92V25.3835H607.713C608.423 25.3835 609.009 25.2614 609.469 25.017C609.935 24.767 610.281 24.4233 610.509 23.9858C610.741 23.5426 610.858 23.0341 610.858 22.4602C610.858 21.8807 610.741 21.375 610.509 20.9432C610.281 20.5057 609.935 20.1676 609.469 19.929C609.003 19.6847 608.412 19.5625 607.696 19.5625H605.207V34H601.517ZM622.692 34.2557C621.368 34.2557 620.223 33.9744 619.257 33.4119C618.297 32.8437 617.555 32.054 617.033 31.0426C616.51 30.0256 616.249 28.8466 616.249 27.5057C616.249 26.1534 616.51 24.9716 617.033 23.9602C617.555 22.9432 618.297 22.1534 619.257 21.5909C620.223 21.0227 621.368 20.7386 622.692 20.7386C624.016 20.7386 625.158 21.0227 626.118 21.5909C627.084 22.1534 627.828 22.9432 628.351 23.9602C628.874 24.9716 629.135 26.1534 629.135 27.5057C629.135 28.8466 628.874 30.0256 628.351 31.0426C627.828 32.054 627.084 32.8437 626.118 33.4119C625.158 33.9744 624.016 34.2557 622.692 34.2557ZM622.709 31.4432C623.311 31.4432 623.814 31.2727 624.217 30.9318C624.621 30.5852 624.925 30.1136 625.129 29.517C625.339 28.9205 625.445 28.2415 625.445 27.4801C625.445 26.7188 625.339 26.0398 625.129 25.4432C624.925 24.8466 624.621 24.375 624.217 24.0284C623.814 23.6818 623.311 23.5085 622.709 23.5085C622.101 23.5085 621.589 23.6818 621.175 24.0284C620.766 24.375 620.456 24.8466 620.246 25.4432C620.041 26.0398 619.939 26.7188 619.939 27.4801C619.939 28.2415 620.041 28.9205 620.246 29.517C620.456 30.1136 620.766 30.5852 621.175 30.9318C621.589 31.2727 622.101 31.4432 622.709 31.4432ZM631.496 38.9091V20.9091H635.075V23.108H635.237C635.396 22.7557 635.626 22.3977 635.928 22.0341C636.234 21.6648 636.632 21.358 637.121 21.1136C637.615 20.8636 638.229 20.7386 638.962 20.7386C639.916 20.7386 640.797 20.9886 641.604 21.4886C642.411 21.983 643.055 22.7301 643.538 23.7301C644.021 24.7244 644.263 25.9716 644.263 27.4716C644.263 28.9318 644.027 30.1648 643.555 31.1705C643.089 32.1705 642.453 32.929 641.646 33.446C640.845 33.9574 639.947 34.2131 638.953 34.2131C638.249 34.2131 637.649 34.0966 637.155 33.8636C636.666 33.6307 636.266 33.3381 635.953 32.9858C635.641 32.6278 635.402 32.267 635.237 31.9034H635.126V38.9091H631.496ZM635.05 27.4545C635.05 28.233 635.158 28.9119 635.374 29.4915C635.589 30.071 635.902 30.5227 636.311 30.8466C636.72 31.1648 637.217 31.3239 637.803 31.3239C638.393 31.3239 638.893 31.1619 639.303 30.8381C639.712 30.5085 640.021 30.054 640.232 29.4744C640.447 28.8892 640.555 28.2159 640.555 27.4545C640.555 26.6989 640.45 26.0341 640.24 25.4602C640.03 24.8864 639.72 24.4375 639.311 24.1136C638.902 23.7898 638.399 23.6278 637.803 23.6278C637.212 23.6278 636.712 23.7841 636.303 24.0966C635.899 24.4091 635.589 24.8523 635.374 25.4261C635.158 26 635.05 26.6761 635.05 27.4545Z" fill="white"/>
<path d="M193.517 34V16.5455H197.207V23.7472H204.699V16.5455H208.381V34H204.699V26.7898H197.207V34H193.517ZM211.355 34V20.9091H214.986V34H211.355ZM213.179 19.2216C212.639 19.2216 212.176 19.0426 211.79 18.6847C211.409 18.321 211.219 17.8864 211.219 17.3807C211.219 16.8807 211.409 16.4517 211.79 16.0938C212.176 15.7301 212.639 15.5483 213.179 15.5483C213.719 15.5483 214.179 15.7301 214.56 16.0938C214.946 16.4517 215.139 16.8807 215.139 17.3807C215.139 17.8864 214.946 18.321 214.56 18.6847C214.179 19.0426 213.719 19.2216 213.179 19.2216ZM217.894 38.9091V20.9091H221.474V23.108H221.636C221.795 22.7557 222.025 22.3977 222.326 22.0341C222.633 21.6648 223.031 21.358 223.519 21.1136C224.013 20.8636 224.627 20.7386 225.36 20.7386C226.315 20.7386 227.195 20.9886 228.002 21.4886C228.809 21.983 229.454 22.7301 229.937 23.7301C230.42 24.7244 230.661 25.9716 230.661 27.4716C230.661 28.9318 230.425 30.1648 229.954 31.1705C229.488 32.1705 228.852 32.929 228.045 33.446C227.244 33.9574 226.346 34.2131 225.352 34.2131C224.647 34.2131 224.048 34.0966 223.553 33.8636C223.065 33.6307 222.664 33.3381 222.352 32.9858C222.039 32.6278 221.8 32.267 221.636 31.9034H221.525V38.9091H217.894ZM221.448 27.4545C221.448 28.233 221.556 28.9119 221.772 29.4915C221.988 30.071 222.3 30.5227 222.71 30.8466C223.119 31.1648 223.616 31.3239 224.201 31.3239C224.792 31.3239 225.292 31.1619 225.701 30.8381C226.11 30.5085 226.42 30.054 226.63 29.4744C226.846 28.8892 226.954 28.2159 226.954 27.4545C226.954 26.6989 226.849 26.0341 226.638 25.4602C226.428 24.8864 226.119 24.4375 225.71 24.1136C225.3 23.7898 224.798 23.6278 224.201 23.6278C223.61 23.6278 223.11 23.7841 222.701 24.0966C222.298 24.4091 221.988 24.8523 221.772 25.4261C221.556 26 221.448 26.6761 221.448 27.4545ZM241.238 25.392V28.2727H233.278V25.392H241.238ZM244.4 34V16.5455H248.09V23.7472H255.582V16.5455H259.263V34H255.582V26.7898H248.09V34H244.4ZM268.153 34.2557C266.829 34.2557 265.684 33.9744 264.718 33.4119C263.758 32.8437 263.016 32.054 262.494 31.0426C261.971 30.0256 261.71 28.8466 261.71 27.5057C261.71 26.1534 261.971 24.9716 262.494 23.9602C263.016 22.9432 263.758 22.1534 264.718 21.5909C265.684 21.0227 266.829 20.7386 268.153 20.7386C269.477 20.7386 270.619 21.0227 271.579 21.5909C272.545 22.1534 273.289 22.9432 273.812 23.9602C274.335 24.9716 274.596 26.1534 274.596 27.5057C274.596 28.8466 274.335 30.0256 273.812 31.0426C273.289 32.054 272.545 32.8437 271.579 33.4119C270.619 33.9744 269.477 34.2557 268.153 34.2557ZM268.17 31.4432C268.772 31.4432 269.275 31.2727 269.678 30.9318C270.082 30.5852 270.386 30.1136 270.59 29.517C270.8 28.9205 270.906 28.2415 270.906 27.4801C270.906 26.7188 270.8 26.0398 270.59 25.4432C270.386 24.8466 270.082 24.375 269.678 24.0284C269.275 23.6818 268.772 23.5085 268.17 23.5085C267.562 23.5085 267.05 23.6818 266.636 24.0284C266.227 24.375 265.917 24.8466 265.707 25.4432C265.502 26.0398 265.4 26.7188 265.4 27.4801C265.4 28.2415 265.502 28.9205 265.707 29.517C265.917 30.1136 266.227 30.5852 266.636 30.9318C267.05 31.2727 267.562 31.4432 268.17 31.4432ZM276.957 38.9091V20.9091H280.536V23.108H280.698C280.857 22.7557 281.087 22.3977 281.388 22.0341C281.695 21.6648 282.093 21.358 282.582 21.1136C283.076 20.8636 283.69 20.7386 284.423 20.7386C285.377 20.7386 286.258 20.9886 287.065 21.4886C287.871 21.983 288.516 22.7301 288.999 23.7301C289.482 24.7244 289.724 25.9716 289.724 27.4716C289.724 28.9318 289.488 30.1648 289.016 31.1705C288.55 32.1705 287.914 32.929 287.107 33.446C286.306 33.9574 285.408 34.2131 284.414 34.2131C283.71 34.2131 283.11 34.0966 282.616 33.8636C282.127 33.6307 281.727 33.3381 281.414 32.9858C281.102 32.6278 280.863 32.267 280.698 31.9034H280.587V38.9091H276.957ZM280.511 27.4545C280.511 28.233 280.619 28.9119 280.835 29.4915C281.05 30.071 281.363 30.5227 281.772 30.8466C282.181 31.1648 282.678 31.3239 283.263 31.3239C283.854 31.3239 284.354 31.1619 284.763 30.8381C285.173 30.5085 285.482 30.054 285.692 29.4744C285.908 28.8892 286.016 28.2159 286.016 27.4545C286.016 26.6989 285.911 26.0341 285.701 25.4602C285.491 24.8864 285.181 24.4375 284.772 24.1136C284.363 23.7898 283.86 23.6278 283.263 23.6278C282.673 23.6278 282.173 23.7841 281.763 24.0966C281.36 24.4091 281.05 24.8523 280.835 25.4261C280.619 26 280.511 26.6761 280.511 27.4545Z" fill="white"/>
<path d="M780.517 34V16.5455H792.278V19.5881H784.207V23.7472H791.673V26.7898H784.207V30.9574H792.312V34H780.517ZM801.4 34H795.212V16.5455H801.451C803.207 16.5455 804.718 16.8949 805.985 17.5938C807.252 18.2869 808.227 19.2841 808.908 20.5852C809.596 21.8864 809.94 23.4432 809.94 25.2557C809.94 27.0739 809.596 28.6364 808.908 29.9432C808.227 31.25 807.246 32.2528 805.968 32.9517C804.695 33.6506 803.173 34 801.4 34ZM798.903 30.8381H801.246C802.337 30.8381 803.255 30.6449 803.999 30.2585C804.749 29.8665 805.312 29.2614 805.687 28.4432C806.067 27.6193 806.258 26.5568 806.258 25.2557C806.258 23.9659 806.067 22.9119 805.687 22.0938C805.312 21.2756 804.752 20.6733 804.008 20.2869C803.263 19.9006 802.346 19.7074 801.255 19.7074H798.903V30.8381ZM812.673 16.5455H817.224L822.031 28.2727H822.236L827.043 16.5455H831.594V34H828.014V22.6392H827.869L823.352 33.9148H820.915L816.398 22.5966H816.253V34H812.673V16.5455Z" fill="white"/>
<defs>
<filter id="filter0_d_71_18" x="0" y="0" width="98" height="62" filterUnits="userSpaceOnUse" color-interpolation-filters="sRGB">
<feFlood flood-opacity="0" result="BackgroundImageFix"/>
<feColorMatrix in="SourceAlpha" type="matrix" values="0 0 0 0 0 0 0 0 0 0 0 0 0 0 0 0 0 0 127 0" result="hardAlpha"/>
<feOffset dy="4"/>
<feGaussianBlur stdDeviation="2"/>
<feComposite in2="hardAlpha" operator="out"/>
<feColorMatrix type="matrix" values="0 0 0 0 0 0 0 0 0 0 0 0 0 0 0 0 0 0 0.25 0"/>
<feBlend mode="normal" in2="BackgroundImageFix" result="effect1_dropShadow_71_18"/>
<feBlend mode="normal" in="SourceGraphic" in2="effect1_dropShadow_71_18" result="shape"/>
</filter>
<filter id="filter1_d_71_18" x="379" y="0" width="132" height="62" filterUnits="userSpaceOnUse" color-interpolation-filters="sRGB">
<feFlood flood-opacity="0" result="BackgroundImageFix"/>
<feColorMatrix in="SourceAlpha" type="matrix" values="0 0 0 0 0 0 0 0 0 0 0 0 0 0 0 0 0 0 127 0" result="hardAlpha"/>
<feOffset dy="4"/>
<feGaussianBlur stdDeviation="2"/>
<feComposite in2="hardAlpha" operator="out"/>
<feColorMatrix type="matrix" values="0 0 0 0 0 0 0 0 0 0 0 0 0 0 0 0 0 0 0.25 0"/>
<feBlend mode="normal" in2="BackgroundImageFix" result="effect1_dropShadow_71_18"/>
<feBlend mode="normal" in="SourceGraphic" in2="effect1_dropShadow_71_18" result="shape"/>
</filter>
<filter id="filter2_d_71_18" x="553" y="0" width="135" height="62" filterUnits="userSpaceOnUse" color-interpolation-filters="sRGB">
<feFlood flood-opacity="0" result="BackgroundImageFix"/>
<feColorMatrix in="SourceAlpha" type="matrix" values="0 0 0 0 0 0 0 0 0 0 0 0 0 0 0 0 0 0 127 0" result="hardAlpha"/>
<feOffset dy="4"/>
<feGaussianBlur stdDeviation="2"/>
<feComposite in2="hardAlpha" operator="out"/>
<feColorMatrix type="matrix" values="0 0 0 0 0 0 0 0 0 0 0 0 0 0 0 0 0 0 0.25 0"/>
<feBlend mode="normal" in2="BackgroundImageFix" result="effect1_dropShadow_71_18"/>
<feBlend mode="normal" in="SourceGraphic" in2="effect1_dropShadow_71_18" result="shape"/>
</filter>
<filter id="filter3_d_71_18" x="730" y="0" width="149" height="62" filterUnits="userSpaceOnUse" color-interpolation-filters="sRGB">
<feFlood flood-opacity="0" result="BackgroundImageFix"/>
<feColorMatrix in="SourceAlpha" type="matrix" values="0 0 0 0 0 0 0 0 0 0 0 0 0 0 0 0 0 0 127 0" result="hardAlpha"/>
<feOffset dy="4"/>
<feGaussianBlur stdDeviation="2"/>
<feComposite in2="hardAlpha" operator="out"/>
<feColorMatrix type="matrix" values="0 0 0 0 0 0 0 0 0 0 0 0 0 0 0 0 0 0 0.25 0"/>
<feBlend mode="normal" in2="BackgroundImageFix" result="effect1_dropShadow_71_18"/>
<feBlend mode="normal" in="SourceGraphic" in2="effect1_dropShadow_71_18" result="shape"/>
</filter>
<linearGradient id="paint0_linear_71_18" x1="238.5" y1="5.21541e-08" x2="239" y2="88.5" gradientUnits="userSpaceOnUse">
<stop stop-color="#00BC6D" stop-opacity="0.99"/>
<stop offset="1" stop-color="#0500FF"/>
</linearGradient>
</defs>
</svg>
