<svg width="1241" height="54" viewBox="0 0 1241 54" fill="none" xmlns="http://www.w3.org/2000/svg">
<rect width="90" height="54" rx="15" fill="url(#paint0_linear_74_2)"/>
<rect x="921.5" y="0.5" width="134" height="53" rx="14.5" fill="black" stroke="white"/>
<rect x="1106.5" y="0.5" width="134" height="53" rx="14.5" fill="black" stroke="white"/>
<rect x="379.5" y="0.5" width="123" height="53" rx="14.5" fill="black" stroke="white"/>
<rect x="553.5" y="0.5" width="126" height="53" rx="14.5" fill="black" stroke="white"/>
<rect x="140.5" y="0.5" width="188" height="53" rx="14.5" fill="black" stroke="white"/>
<rect x="730.5" y="0.5" width="140" height="53" rx="14.5" fill="black" stroke="white"/>
<path d="M38.1818 34.2472C37.3466 34.2472 36.6023 34.1023 35.9489 33.8125C35.2955 33.517 34.7784 33.0824 34.3977 32.5085C34.0227 31.929 33.8352 31.2074 33.8352 30.3438C33.8352 29.6165 33.9688 29.0057 34.2358 28.5114C34.5028 28.017 34.8665 27.6193 35.3267 27.3182C35.7869 27.017 36.3097 26.7898 36.8949 26.6364C37.4858 26.483 38.1051 26.375 38.7528 26.3125C39.5142 26.233 40.1278 26.1591 40.5938 26.0909C41.0597 26.017 41.3977 25.9091 41.608 25.767C41.8182 25.625 41.9233 25.4148 41.9233 25.1364V25.0852C41.9233 24.5455 41.7528 24.1278 41.4119 23.8324C41.0767 23.5369 40.5994 23.3892 39.9801 23.3892C39.3267 23.3892 38.8068 23.5341 38.4205 23.8239C38.0341 24.108 37.7784 24.4659 37.6534 24.8977L34.2955 24.625C34.4659 23.8295 34.8011 23.142 35.3011 22.5625C35.8011 21.9773 36.446 21.5284 37.2358 21.2159C38.0313 20.8977 38.9517 20.7386 39.9972 20.7386C40.7244 20.7386 41.4205 20.8239 42.0852 20.9943C42.7557 21.1648 43.3494 21.429 43.8665 21.7869C44.3892 22.1449 44.8011 22.6051 45.1023 23.1676C45.4034 23.7244 45.554 24.392 45.554 25.1705V34H42.1108V32.1847H42.0085C41.7983 32.5938 41.517 32.9545 41.1648 33.267C40.8125 33.5739 40.3892 33.8153 39.8949 33.9915C39.4006 34.1619 38.8295 34.2472 38.1818 34.2472ZM39.2216 31.7415C39.7557 31.7415 40.2273 31.6364 40.6364 31.4261C41.0455 31.2102 41.3665 30.9205 41.5994 30.5568C41.8324 30.1932 41.9489 29.7812 41.9489 29.321V27.9318C41.8352 28.0057 41.679 28.0739 41.4801 28.1364C41.2869 28.1932 41.0682 28.2472 40.8239 28.2983C40.5795 28.3437 40.3352 28.3864 40.0909 28.4261C39.8466 28.4602 39.625 28.4915 39.4261 28.5199C39 28.5824 38.6278 28.6818 38.3097 28.8182C37.9915 28.9545 37.7443 29.1392 37.5682 29.3722C37.392 29.5994 37.304 29.8835 37.304 30.2244C37.304 30.7188 37.483 31.0966 37.8409 31.358C38.2045 31.6136 38.6648 31.7415 39.2216 31.7415ZM52.0014 16.5455V34H48.3707V16.5455H52.0014ZM58.5405 16.5455V34H54.9098V16.5455H58.5405Z" fill="white"/>
<path d="M964.517 34V16.5455H968.207V30.9574H975.69V34H964.517ZM981.799 34.2472C980.964 34.2472 980.219 34.1023 979.566 33.8125C978.913 33.517 978.396 33.0824 978.015 32.5085C977.64 31.929 977.452 31.2074 977.452 30.3438C977.452 29.6165 977.586 29.0057 977.853 28.5114C978.12 28.017 978.484 27.6193 978.944 27.3182C979.404 27.017 979.927 26.7898 980.512 26.6364C981.103 26.483 981.722 26.375 982.37 26.3125C983.131 26.233 983.745 26.1591 984.211 26.0909C984.677 26.017 985.015 25.9091 985.225 25.767C985.435 25.625 985.54 25.4148 985.54 25.1364V25.0852C985.54 24.5455 985.37 24.1278 985.029 23.8324C984.694 23.5369 984.217 23.3892 983.597 23.3892C982.944 23.3892 982.424 23.5341 982.038 23.8239C981.651 24.108 981.396 24.4659 981.271 24.8977L977.913 24.625C978.083 23.8295 978.418 23.142 978.918 22.5625C979.418 21.9773 980.063 21.5284 980.853 21.2159C981.648 20.8977 982.569 20.7386 983.614 20.7386C984.342 20.7386 985.038 20.8239 985.702 20.9943C986.373 21.1648 986.967 21.429 987.484 21.7869C988.006 22.1449 988.418 22.6051 988.719 23.1676C989.021 23.7244 989.171 24.392 989.171 25.1705V34H985.728V32.1847H985.626C985.415 32.5938 985.134 32.9545 984.782 33.267C984.43 33.5739 984.006 33.8153 983.512 33.9915C983.018 34.1619 982.447 34.2472 981.799 34.2472ZM982.839 31.7415C983.373 31.7415 983.844 31.6364 984.254 31.4261C984.663 31.2102 984.984 30.9205 985.217 30.5568C985.45 30.1932 985.566 29.7812 985.566 29.321V27.9318C985.452 28.0057 985.296 28.0739 985.097 28.1364C984.904 28.1932 984.685 28.2472 984.441 28.2983C984.197 28.3437 983.952 28.3864 983.708 28.4261C983.464 28.4602 983.242 28.4915 983.043 28.5199C982.617 28.5824 982.245 28.6818 981.927 28.8182C981.609 28.9545 981.362 29.1392 981.185 29.3722C981.009 29.5994 980.921 29.8835 980.921 30.2244C980.921 30.7188 981.1 31.0966 981.458 31.358C981.822 31.6136 982.282 31.7415 982.839 31.7415ZM998.951 20.9091V23.6364H991.067V20.9091H998.951ZM992.857 17.7727H996.488V29.9773C996.488 30.3125 996.539 30.5739 996.641 30.7614C996.744 30.9432 996.886 31.071 997.067 31.1449C997.255 31.2187 997.471 31.2557 997.715 31.2557C997.886 31.2557 998.056 31.2415 998.227 31.2131C998.397 31.179 998.528 31.1534 998.619 31.1364L999.19 33.8381C999.008 33.8949 998.752 33.9602 998.423 34.0341C998.093 34.1136 997.692 34.1619 997.221 34.179C996.346 34.2131 995.579 34.0966 994.92 33.8295C994.266 33.5625 993.758 33.1477 993.394 32.5852C993.031 32.0227 992.852 31.3125 992.857 30.4545V17.7727ZM1001.32 34V20.9091H1004.95V34H1001.32ZM1003.14 19.2216C1002.6 19.2216 1002.14 19.0426 1001.75 18.6847C1001.37 18.321 1001.18 17.8864 1001.18 17.3807C1001.18 16.8807 1001.37 16.4517 1001.75 16.0938C1002.14 15.7301 1002.6 15.5483 1003.14 15.5483C1003.68 15.5483 1004.14 15.7301 1004.52 16.0938C1004.91 16.4517 1005.1 16.8807 1005.1 17.3807C1005.1 17.8864 1004.91 18.321 1004.52 18.6847C1004.14 19.0426 1003.68 19.2216 1003.14 19.2216ZM1011.49 26.4318V34H1007.86V20.9091H1011.32V23.2188H1011.47C1011.76 22.4574 1012.24 21.8551 1012.93 21.4119C1013.61 20.9631 1014.43 20.7386 1015.41 20.7386C1016.32 20.7386 1017.11 20.9375 1017.78 21.3352C1018.46 21.733 1018.99 22.3011 1019.36 23.0398C1019.74 23.7727 1019.92 24.6477 1019.92 25.6648V34H1016.29V26.3125C1016.3 25.5114 1016.09 24.8864 1015.68 24.4375C1015.26 23.983 1014.69 23.7557 1013.97 23.7557C1013.48 23.7557 1013.05 23.8608 1012.67 24.071C1012.3 24.2812 1012.01 24.5881 1011.8 24.9915C1011.6 25.3892 1011.49 25.8693 1011.49 26.4318Z" fill="white"/>
<path d="M1149.52 34V16.5455H1156.4C1157.72 16.5455 1158.85 16.7812 1159.78 17.2528C1160.72 17.7187 1161.43 18.3807 1161.92 19.2386C1162.41 20.0909 1162.66 21.0937 1162.66 22.2472C1162.66 23.4062 1162.41 24.4034 1161.91 25.2386C1161.41 26.0682 1160.68 26.7045 1159.74 27.1477C1158.79 27.5909 1157.65 27.8125 1156.31 27.8125H1151.7V24.8466H1155.71C1156.42 24.8466 1157 24.75 1157.47 24.5568C1157.93 24.3636 1158.28 24.0739 1158.51 23.6875C1158.74 23.3011 1158.86 22.821 1158.86 22.2472C1158.86 21.6676 1158.74 21.179 1158.51 20.7812C1158.28 20.3835 1157.93 20.0824 1157.46 19.8778C1156.99 19.6676 1156.41 19.5625 1155.7 19.5625H1153.21V34H1149.52ZM1158.94 26.0568L1163.28 34H1159.21L1154.96 26.0568H1158.94ZM1170.9 34.2557C1169.58 34.2557 1168.43 33.9744 1167.47 33.4119C1166.51 32.8437 1165.77 32.054 1165.24 31.0426C1164.72 30.0256 1164.46 28.8466 1164.46 27.5057C1164.46 26.1534 1164.72 24.9716 1165.24 23.9602C1165.77 22.9432 1166.51 22.1534 1167.47 21.5909C1168.43 21.0227 1169.58 20.7386 1170.9 20.7386C1172.23 20.7386 1173.37 21.0227 1174.33 21.5909C1175.29 22.1534 1176.04 22.9432 1176.56 23.9602C1177.08 24.9716 1177.35 26.1534 1177.35 27.5057C1177.35 28.8466 1177.08 30.0256 1176.56 31.0426C1176.04 32.054 1175.29 32.8437 1174.33 33.4119C1173.37 33.9744 1172.23 34.2557 1170.9 34.2557ZM1170.92 31.4432C1171.52 31.4432 1172.02 31.2727 1172.43 30.9318C1172.83 30.5852 1173.14 30.1136 1173.34 29.517C1173.55 28.9205 1173.66 28.2415 1173.66 27.4801C1173.66 26.7188 1173.55 26.0398 1173.34 25.4432C1173.14 24.8466 1172.83 24.375 1172.43 24.0284C1172.02 23.6818 1171.52 23.5085 1170.92 23.5085C1170.31 23.5085 1169.8 23.6818 1169.39 24.0284C1168.98 24.375 1168.67 24.8466 1168.46 25.4432C1168.25 26.0398 1168.15 26.7188 1168.15 27.4801C1168.15 28.2415 1168.25 28.9205 1168.46 29.517C1168.67 30.1136 1168.98 30.5852 1169.39 30.9318C1169.8 31.2727 1170.31 31.4432 1170.92 31.4432ZM1185.62 34.2557C1184.28 34.2557 1183.13 33.9716 1182.16 33.4034C1181.2 32.8295 1180.46 32.0341 1179.95 31.017C1179.43 30 1179.18 28.8295 1179.18 27.5057C1179.18 26.1648 1179.44 24.9886 1179.95 23.9773C1180.48 22.9602 1181.22 22.1676 1182.18 21.5994C1183.14 21.0256 1184.28 20.7386 1185.6 20.7386C1186.75 20.7386 1187.75 20.946 1188.6 21.3608C1189.46 21.7756 1190.14 22.358 1190.64 23.108C1191.14 23.858 1191.42 24.7386 1191.47 25.75H1188.04C1187.95 25.0966 1187.69 24.571 1187.27 24.1733C1186.87 23.7699 1186.33 23.5682 1185.66 23.5682C1185.1 23.5682 1184.61 23.7216 1184.19 24.0284C1183.77 24.3295 1183.45 24.7699 1183.22 25.3494C1182.99 25.929 1182.87 26.6307 1182.87 27.4545C1182.87 28.2898 1182.98 29 1183.21 29.5852C1183.44 30.1705 1183.77 30.6165 1184.19 30.9233C1184.61 31.2301 1185.1 31.3835 1185.66 31.3835C1186.08 31.3835 1186.45 31.2983 1186.78 31.1278C1187.12 30.9574 1187.39 30.7102 1187.61 30.3864C1187.83 30.0568 1187.97 29.6619 1188.04 29.2017H1191.47C1191.41 30.2017 1191.14 31.0824 1190.65 31.8438C1190.17 32.5994 1189.5 33.1903 1188.65 33.6165C1187.79 34.0426 1186.79 34.2557 1185.62 34.2557ZM1197.08 30.233L1197.09 25.8778H1197.62L1201.81 20.9091H1205.98L1200.35 27.4886H1199.49L1197.08 30.233ZM1193.79 34V16.5455H1197.42V34H1193.79ZM1201.97 34L1198.12 28.2983L1200.54 25.733L1206.23 34H1201.97Z" fill="white"/>
<path d="M420.506 16.5455H424.153V28.7159C424.153 29.8409 423.901 30.8182 423.395 31.6477C422.895 32.4773 422.199 33.1165 421.307 33.5653C420.415 34.0142 419.378 34.2386 418.196 34.2386C417.145 34.2386 416.19 34.054 415.332 33.6847C414.48 33.3097 413.804 32.7415 413.304 31.9801C412.804 31.2131 412.557 30.25 412.562 29.0909H416.236C416.247 29.5511 416.341 29.946 416.517 30.2756C416.699 30.5994 416.946 30.8494 417.259 31.0256C417.577 31.196 417.952 31.2812 418.384 31.2812C418.838 31.2812 419.222 31.1847 419.534 30.9915C419.852 30.7926 420.094 30.5028 420.259 30.1222C420.423 29.7415 420.506 29.2727 420.506 28.7159V16.5455ZM430.869 34.2472C430.034 34.2472 429.29 34.1023 428.636 33.8125C427.983 33.517 427.466 33.0824 427.085 32.5085C426.71 31.929 426.523 31.2074 426.523 30.3438C426.523 29.6165 426.656 29.0057 426.923 28.5114C427.19 28.017 427.554 27.6193 428.014 27.3182C428.474 27.017 428.997 26.7898 429.582 26.6364C430.173 26.483 430.793 26.375 431.44 26.3125C432.202 26.233 432.815 26.1591 433.281 26.0909C433.747 26.017 434.085 25.9091 434.295 25.767C434.506 25.625 434.611 25.4148 434.611 25.1364V25.0852C434.611 24.5455 434.44 24.1278 434.099 23.8324C433.764 23.5369 433.287 23.3892 432.668 23.3892C432.014 23.3892 431.494 23.5341 431.108 23.8239C430.722 24.108 430.466 24.4659 430.341 24.8977L426.983 24.625C427.153 23.8295 427.489 23.142 427.989 22.5625C428.489 21.9773 429.134 21.5284 429.923 21.2159C430.719 20.8977 431.639 20.7386 432.685 20.7386C433.412 20.7386 434.108 20.8239 434.773 20.9943C435.443 21.1648 436.037 21.429 436.554 21.7869C437.077 22.1449 437.489 22.6051 437.79 23.1676C438.091 23.7244 438.241 24.392 438.241 25.1705V34H434.798V32.1847H434.696C434.486 32.5938 434.205 32.9545 433.852 33.267C433.5 33.5739 433.077 33.8153 432.582 33.9915C432.088 34.1619 431.517 34.2472 430.869 34.2472ZM431.909 31.7415C432.443 31.7415 432.915 31.6364 433.324 31.4261C433.733 31.2102 434.054 30.9205 434.287 30.5568C434.52 30.1932 434.636 29.7812 434.636 29.321V27.9318C434.523 28.0057 434.366 28.0739 434.168 28.1364C433.974 28.1932 433.756 28.2472 433.511 28.2983C433.267 28.3437 433.023 28.3864 432.778 28.4261C432.534 28.4602 432.312 28.4915 432.114 28.5199C431.688 28.5824 431.315 28.6818 430.997 28.8182C430.679 28.9545 430.432 29.1392 430.256 29.3722C430.08 29.5994 429.991 29.8835 429.991 30.2244C429.991 30.7188 430.17 31.0966 430.528 31.358C430.892 31.6136 431.352 31.7415 431.909 31.7415ZM440.99 34V31.8352L447.399 23.9006V23.8068H441.212V20.9091H451.771V23.2699L445.754 31.0085V31.1023H451.993V34H440.99ZM454.701 34V31.8352L461.11 23.9006V23.8068H454.923V20.9091H465.482V23.2699L459.465 31.0085V31.1023H465.704V34H454.701Z" fill="white"/>
<path d="M595.4 34V16.5455H602.286C603.61 16.5455 604.738 16.7983 605.67 17.304C606.602 17.804 607.312 18.5 607.8 19.392C608.295 20.2784 608.542 21.3011 608.542 22.4602C608.542 23.6193 608.292 24.642 607.792 25.5284C607.292 26.4148 606.567 27.1051 605.619 27.5994C604.675 28.0937 603.533 28.3409 602.192 28.3409H597.803V25.3835H601.596C602.306 25.3835 602.891 25.2614 603.352 25.017C603.817 24.767 604.164 24.4233 604.391 23.9858C604.624 23.5426 604.741 23.0341 604.741 22.4602C604.741 21.8807 604.624 21.375 604.391 20.9432C604.164 20.5057 603.817 20.1676 603.352 19.929C602.886 19.6847 602.295 19.5625 601.579 19.5625H599.09V34H595.4ZM616.575 34.2557C615.251 34.2557 614.106 33.9744 613.14 33.4119C612.18 32.8437 611.438 32.054 610.915 31.0426C610.393 30.0256 610.131 28.8466 610.131 27.5057C610.131 26.1534 610.393 24.9716 610.915 23.9602C611.438 22.9432 612.18 22.1534 613.14 21.5909C614.106 21.0227 615.251 20.7386 616.575 20.7386C617.898 20.7386 619.04 21.0227 620.001 21.5909C620.967 22.1534 621.711 22.9432 622.234 23.9602C622.756 24.9716 623.018 26.1534 623.018 27.5057C623.018 28.8466 622.756 30.0256 622.234 31.0426C621.711 32.054 620.967 32.8437 620.001 33.4119C619.04 33.9744 617.898 34.2557 616.575 34.2557ZM616.592 31.4432C617.194 31.4432 617.697 31.2727 618.1 30.9318C618.504 30.5852 618.808 30.1136 619.012 29.517C619.222 28.9205 619.327 28.2415 619.327 27.4801C619.327 26.7188 619.222 26.0398 619.012 25.4432C618.808 24.8466 618.504 24.375 618.1 24.0284C617.697 23.6818 617.194 23.5085 616.592 23.5085C615.984 23.5085 615.472 23.6818 615.058 24.0284C614.648 24.375 614.339 24.8466 614.129 25.4432C613.924 26.0398 613.822 26.7188 613.822 27.4801C613.822 28.2415 613.924 28.9205 614.129 29.517C614.339 30.1136 614.648 30.5852 615.058 30.9318C615.472 31.2727 615.984 31.4432 616.592 31.4432ZM625.379 38.9091V20.9091H628.958V23.108H629.12C629.279 22.7557 629.509 22.3977 629.81 22.0341C630.117 21.6648 630.515 21.358 631.004 21.1136C631.498 20.8636 632.112 20.7386 632.844 20.7386C633.799 20.7386 634.68 20.9886 635.487 21.4886C636.293 21.983 636.938 22.7301 637.421 23.7301C637.904 24.7244 638.146 25.9716 638.146 27.4716C638.146 28.9318 637.91 30.1648 637.438 31.1705C636.972 32.1705 636.336 32.929 635.529 33.446C634.728 33.9574 633.83 34.2131 632.836 34.2131C632.131 34.2131 631.532 34.0966 631.038 33.8636C630.549 33.6307 630.148 33.3381 629.836 32.9858C629.523 32.6278 629.285 32.267 629.12 31.9034H629.009V38.9091H625.379ZM628.933 27.4545C628.933 28.233 629.04 28.9119 629.256 29.4915C629.472 30.071 629.785 30.5227 630.194 30.8466C630.603 31.1648 631.1 31.3239 631.685 31.3239C632.276 31.3239 632.776 31.1619 633.185 30.8381C633.594 30.5085 633.904 30.054 634.114 29.4744C634.33 28.8892 634.438 28.2159 634.438 27.4545C634.438 26.6989 634.333 26.0341 634.123 25.4602C633.913 24.8864 633.603 24.4375 633.194 24.1136C632.785 23.7898 632.282 23.6278 631.685 23.6278C631.094 23.6278 630.594 23.7841 630.185 24.0966C629.782 24.4091 629.472 24.8523 629.256 25.4261C629.04 26 628.933 26.6761 628.933 27.4545Z" fill="white"/>
<path d="M190.517 34V16.5455H194.207V23.7472H201.699V16.5455H205.381V34H201.699V26.7898H194.207V34H190.517ZM208.355 34V20.9091H211.986V34H208.355ZM210.179 19.2216C209.639 19.2216 209.176 19.0426 208.79 18.6847C208.409 18.321 208.219 17.8864 208.219 17.3807C208.219 16.8807 208.409 16.4517 208.79 16.0938C209.176 15.7301 209.639 15.5483 210.179 15.5483C210.719 15.5483 211.179 15.7301 211.56 16.0938C211.946 16.4517 212.139 16.8807 212.139 17.3807C212.139 17.8864 211.946 18.321 211.56 18.6847C211.179 19.0426 210.719 19.2216 210.179 19.2216ZM214.894 38.9091V20.9091H218.474V23.108H218.636C218.795 22.7557 219.025 22.3977 219.326 22.0341C219.633 21.6648 220.031 21.358 220.519 21.1136C221.013 20.8636 221.627 20.7386 222.36 20.7386C223.315 20.7386 224.195 20.9886 225.002 21.4886C225.809 21.983 226.454 22.7301 226.937 23.7301C227.42 24.7244 227.661 25.9716 227.661 27.4716C227.661 28.9318 227.425 30.1648 226.954 31.1705C226.488 32.1705 225.852 32.929 225.045 33.446C224.244 33.9574 223.346 34.2131 222.352 34.2131C221.647 34.2131 221.048 34.0966 220.553 33.8636C220.065 33.6307 219.664 33.3381 219.352 32.9858C219.039 32.6278 218.8 32.267 218.636 31.9034H218.525V38.9091H214.894ZM218.448 27.4545C218.448 28.233 218.556 28.9119 218.772 29.4915C218.988 30.071 219.3 30.5227 219.71 30.8466C220.119 31.1648 220.616 31.3239 221.201 31.3239C221.792 31.3239 222.292 31.1619 222.701 30.8381C223.11 30.5085 223.42 30.054 223.63 29.4744C223.846 28.8892 223.954 28.2159 223.954 27.4545C223.954 26.6989 223.849 26.0341 223.638 25.4602C223.428 24.8864 223.119 24.4375 222.71 24.1136C222.3 23.7898 221.798 23.6278 221.201 23.6278C220.61 23.6278 220.11 23.7841 219.701 24.0966C219.298 24.4091 218.988 24.8523 218.772 25.4261C218.556 26 218.448 26.6761 218.448 27.4545ZM238.238 25.392V28.2727H230.278V25.392H238.238ZM241.4 34V16.5455H245.09V23.7472H252.582V16.5455H256.263V34H252.582V26.7898H245.09V34H241.4ZM265.153 34.2557C263.829 34.2557 262.684 33.9744 261.718 33.4119C260.758 32.8437 260.016 32.054 259.494 31.0426C258.971 30.0256 258.71 28.8466 258.71 27.5057C258.71 26.1534 258.971 24.9716 259.494 23.9602C260.016 22.9432 260.758 22.1534 261.718 21.5909C262.684 21.0227 263.829 20.7386 265.153 20.7386C266.477 20.7386 267.619 21.0227 268.579 21.5909C269.545 22.1534 270.289 22.9432 270.812 23.9602C271.335 24.9716 271.596 26.1534 271.596 27.5057C271.596 28.8466 271.335 30.0256 270.812 31.0426C270.289 32.054 269.545 32.8437 268.579 33.4119C267.619 33.9744 266.477 34.2557 265.153 34.2557ZM265.17 31.4432C265.772 31.4432 266.275 31.2727 266.678 30.9318C267.082 30.5852 267.386 30.1136 267.59 29.517C267.8 28.9205 267.906 28.2415 267.906 27.4801C267.906 26.7188 267.8 26.0398 267.59 25.4432C267.386 24.8466 267.082 24.375 266.678 24.0284C266.275 23.6818 265.772 23.5085 265.17 23.5085C264.562 23.5085 264.05 23.6818 263.636 24.0284C263.227 24.375 262.917 24.8466 262.707 25.4432C262.502 26.0398 262.4 26.7188 262.4 27.4801C262.4 28.2415 262.502 28.9205 262.707 29.517C262.917 30.1136 263.227 30.5852 263.636 30.9318C264.05 31.2727 264.562 31.4432 265.17 31.4432ZM273.957 38.9091V20.9091H277.536V23.108H277.698C277.857 22.7557 278.087 22.3977 278.388 22.0341C278.695 21.6648 279.093 21.358 279.582 21.1136C280.076 20.8636 280.69 20.7386 281.423 20.7386C282.377 20.7386 283.258 20.9886 284.065 21.4886C284.871 21.983 285.516 22.7301 285.999 23.7301C286.482 24.7244 286.724 25.9716 286.724 27.4716C286.724 28.9318 286.488 30.1648 286.016 31.1705C285.55 32.1705 284.914 32.929 284.107 33.446C283.306 33.9574 282.408 34.2131 281.414 34.2131C280.71 34.2131 280.11 34.0966 279.616 33.8636C279.127 33.6307 278.727 33.3381 278.414 32.9858C278.102 32.6278 277.863 32.267 277.698 31.9034H277.587V38.9091H273.957ZM277.511 27.4545C277.511 28.233 277.619 28.9119 277.835 29.4915C278.05 30.071 278.363 30.5227 278.772 30.8466C279.181 31.1648 279.678 31.3239 280.263 31.3239C280.854 31.3239 281.354 31.1619 281.763 30.8381C282.173 30.5085 282.482 30.054 282.692 29.4744C282.908 28.8892 283.016 28.2159 283.016 27.4545C283.016 26.6989 282.911 26.0341 282.701 25.4602C282.491 24.8864 282.181 24.4375 281.772 24.1136C281.363 23.7898 280.86 23.6278 280.263 23.6278C279.673 23.6278 279.173 23.7841 278.763 24.0966C278.36 24.4091 278.05 24.8523 277.835 25.4261C277.619 26 277.511 26.6761 277.511 27.4545Z" fill="white"/>
<path d="M776.517 36V18.5455H788.278V21.5881H780.207V25.7472H787.673V28.7898H780.207V32.9574H788.312V36H776.517ZM797.4 36H791.212V18.5455H797.451C799.207 18.5455 800.718 18.8949 801.985 19.5938C803.252 20.2869 804.227 21.2841 804.908 22.5852C805.596 23.8864 805.94 25.4432 805.94 27.2557C805.94 29.0739 805.596 30.6364 804.908 31.9432C804.227 33.25 803.246 34.2528 801.968 34.9517C800.695 35.6506 799.173 36 797.4 36ZM794.903 32.8381H797.246C798.337 32.8381 799.255 32.6449 799.999 32.2585C800.749 31.8665 801.312 31.2614 801.687 30.4432C802.067 29.6193 802.258 28.5568 802.258 27.2557C802.258 25.9659 802.067 24.9119 801.687 24.0938C801.312 23.2756 800.752 22.6733 800.008 22.2869C799.263 21.9006 798.346 21.7074 797.255 21.7074H794.903V32.8381ZM808.673 18.5455H813.224L818.031 30.2727H818.236L823.043 18.5455H827.594V36H824.014V24.6392H823.869L819.352 35.9148H816.915L812.398 24.5966H812.253V36H808.673V18.5455Z" fill="white"/>
<defs>
<linearGradient id="paint0_linear_74_2" x1="45" y1="0" x2="45" y2="54" gradientUnits="userSpaceOnUse">
<stop stop-color="#00BC6D" stop-opacity="0.99"/>
<stop offset="1" stop-color="#030087"/>
</linearGradient>
</defs>
</svg>
