<svg width="128" height="67" viewBox="0 0 128 67" fill="none" xmlns="http://www.w3.org/2000/svg">
<rect width="128" height="67" rx="15" fill="url(#paint0_linear_76_2)"/>
<path d="M26.823 40.959L17 35.162L26.817 49.001L36.645 35.162L26.817 40.959H26.823ZM26.969 17L17.15 33.297L26.969 39.104L36.792 33.303L26.969 17Z" fill="white"/>
<path d="M58.5 42.2386C57.2159 42.2386 56.1222 41.8892 55.2188 41.1903C54.3153 40.4858 53.625 39.4659 53.1477 38.1307C52.6705 36.7898 52.4318 35.1705 52.4318 33.2727C52.4318 31.3864 52.6705 29.7756 53.1477 28.4403C53.6307 27.0994 54.3239 26.0767 55.2273 25.3722C56.1364 24.6619 57.2273 24.3068 58.5 24.3068C59.7727 24.3068 60.8608 24.6619 61.7642 25.3722C62.6733 26.0767 63.3665 27.0994 63.8438 28.4403C64.3267 29.7756 64.5682 31.3864 64.5682 33.2727C64.5682 35.1705 64.3295 36.7898 63.8523 38.1307C63.375 39.4659 62.6847 40.4858 61.7812 41.1903C60.8778 41.8892 59.7841 42.2386 58.5 42.2386ZM58.5 40.3636C59.7727 40.3636 60.7614 39.75 61.4659 38.5227C62.1705 37.2955 62.5227 35.5455 62.5227 33.2727C62.5227 31.7614 62.3608 30.4744 62.0369 29.4119C61.7188 28.3494 61.2585 27.5398 60.6562 26.983C60.0597 26.4261 59.3409 26.1477 58.5 26.1477C57.2386 26.1477 56.2528 26.7699 55.5426 28.0142C54.8324 29.2528 54.4773 31.0057 54.4773 33.2727C54.4773 34.7841 54.6364 36.0682 54.9545 37.125C55.2727 38.1818 55.7301 38.9858 56.3267 39.5369C56.929 40.0881 57.6534 40.3636 58.5 40.3636ZM68.6974 42.1364C68.277 42.1364 67.9162 41.9858 67.6151 41.6847C67.3139 41.3835 67.1634 41.0227 67.1634 40.6023C67.1634 40.1818 67.3139 39.821 67.6151 39.5199C67.9162 39.2187 68.277 39.0682 68.6974 39.0682C69.1179 39.0682 69.4787 39.2187 69.7798 39.5199C70.081 39.821 70.2315 40.1818 70.2315 40.6023C70.2315 40.8807 70.1605 41.1364 70.0185 41.3693C69.8821 41.6023 69.6974 41.7898 69.4645 41.9318C69.2372 42.0682 68.9815 42.1364 68.6974 42.1364ZM79.0483 42.2386C77.9233 42.2386 76.9205 42.0455 76.0398 41.6591C75.1648 41.2727 74.4688 40.7358 73.9517 40.0483C73.4403 39.3551 73.1619 38.5511 73.1165 37.6364H75.2642C75.3097 38.1989 75.5028 38.6847 75.8438 39.0938C76.1847 39.4972 76.6307 39.8097 77.1818 40.0312C77.733 40.2528 78.3438 40.3636 79.0142 40.3636C79.7642 40.3636 80.429 40.233 81.0085 39.9716C81.5881 39.7102 82.0426 39.3466 82.3722 38.8807C82.7017 38.4148 82.8665 37.875 82.8665 37.2614C82.8665 36.6193 82.7074 36.054 82.3892 35.5653C82.071 35.071 81.6051 34.6847 80.9915 34.4062C80.3778 34.1278 79.6278 33.9886 78.7415 33.9886H77.3438V32.1136H78.7415C79.4347 32.1136 80.0426 31.9886 80.5653 31.7386C81.0938 31.4886 81.5057 31.1364 81.8011 30.6818C82.1023 30.2273 82.2528 29.6932 82.2528 29.0795C82.2528 28.4886 82.1222 27.9744 81.8608 27.5369C81.5994 27.0994 81.2301 26.7585 80.7528 26.5142C80.2813 26.2699 79.7244 26.1477 79.0824 26.1477C78.4801 26.1477 77.9119 26.2585 77.3778 26.4801C76.8494 26.696 76.4176 27.0114 76.0824 27.4261C75.7472 27.8352 75.5653 28.3295 75.5369 28.9091H73.4915C73.5256 27.9943 73.8011 27.1932 74.3182 26.5057C74.8352 25.8125 75.5114 25.2727 76.3466 24.8864C77.1875 24.5 78.1108 24.3068 79.1165 24.3068C80.196 24.3068 81.1222 24.5256 81.8949 24.9631C82.6676 25.3949 83.2614 25.9659 83.6761 26.6761C84.0909 27.3864 84.2983 28.1534 84.2983 28.9773C84.2983 29.9602 84.0398 30.7983 83.5227 31.4915C83.0114 32.1847 82.3153 32.6648 81.4347 32.9318V33.0682C82.5369 33.25 83.3977 33.7187 84.017 34.4744C84.6364 35.2244 84.946 36.1534 84.946 37.2614C84.946 38.2102 84.6875 39.0625 84.1705 39.8182C83.6591 40.5682 82.9602 41.1591 82.0739 41.5909C81.1875 42.0227 80.179 42.2386 79.0483 42.2386Z" fill="white"/>
<defs>
<linearGradient id="paint0_linear_76_2" x1="64" y1="6.47097e-08" x2="65.1364" y2="109.797" gradientUnits="userSpaceOnUse">
<stop stop-color="#00BC6D" stop-opacity="0.99"/>
<stop offset="1" stop-color="#0500FF"/>
</linearGradient>
</defs>
</svg>
