<svg width="128" height="67" viewBox="0 0 128 67" fill="none" xmlns="http://www.w3.org/2000/svg">
<rect width="128" height="67" rx="15" fill="url(#paint0_linear_76_5)"/>
<path d="M26.823 40.959L17 35.162L26.817 49.001L36.645 35.162L26.817 40.959H26.823ZM26.969 17L17.15 33.297L26.969 39.104L36.792 33.303L26.969 17Z" fill="white"/>
<path d="M58.5 42.2386C57.2159 42.2386 56.1222 41.8892 55.2188 41.1903C54.3153 40.4858 53.625 39.4659 53.1477 38.1307C52.6705 36.7898 52.4318 35.1705 52.4318 33.2727C52.4318 31.3864 52.6705 29.7756 53.1477 28.4403C53.6307 27.0994 54.3239 26.0767 55.2273 25.3722C56.1364 24.6619 57.2273 24.3068 58.5 24.3068C59.7727 24.3068 60.8608 24.6619 61.7642 25.3722C62.6733 26.0767 63.3665 27.0994 63.8438 28.4403C64.3267 29.7756 64.5682 31.3864 64.5682 33.2727C64.5682 35.1705 64.3295 36.7898 63.8523 38.1307C63.375 39.4659 62.6847 40.4858 61.7812 41.1903C60.8778 41.8892 59.7841 42.2386 58.5 42.2386ZM58.5 40.3636C59.7727 40.3636 60.7614 39.75 61.4659 38.5227C62.1705 37.2955 62.5227 35.5455 62.5227 33.2727C62.5227 31.7614 62.3608 30.4744 62.0369 29.4119C61.7188 28.3494 61.2585 27.5398 60.6562 26.983C60.0597 26.4261 59.3409 26.1477 58.5 26.1477C57.2386 26.1477 56.2528 26.7699 55.5426 28.0142C54.8324 29.2528 54.4773 31.0057 54.4773 33.2727C54.4773 34.7841 54.6364 36.0682 54.9545 37.125C55.2727 38.1818 55.7301 38.9858 56.3267 39.5369C56.929 40.0881 57.6534 40.3636 58.5 40.3636ZM68.6974 42.1364C68.277 42.1364 67.9162 41.9858 67.6151 41.6847C67.3139 41.3835 67.1634 41.0227 67.1634 40.6023C67.1634 40.1818 67.3139 39.821 67.6151 39.5199C67.9162 39.2187 68.277 39.0682 68.6974 39.0682C69.1179 39.0682 69.4787 39.2187 69.7798 39.5199C70.081 39.821 70.2315 40.1818 70.2315 40.6023C70.2315 40.8807 70.1605 41.1364 70.0185 41.3693C69.8821 41.6023 69.6974 41.7898 69.4645 41.9318C69.2372 42.0682 68.9815 42.1364 68.6974 42.1364ZM73.8068 42V40.4659L79.5682 34.1591C80.2443 33.4205 80.8011 32.7784 81.2386 32.233C81.6761 31.6818 82 31.1648 82.2102 30.6818C82.4261 30.1932 82.5341 29.6818 82.5341 29.1477C82.5341 28.5341 82.3864 28.0028 82.0909 27.554C81.8011 27.1051 81.4034 26.7585 80.8977 26.5142C80.392 26.2699 79.8239 26.1477 79.1932 26.1477C78.5227 26.1477 77.9375 26.2869 77.4375 26.5653C76.9432 26.8381 76.5597 27.2216 76.2869 27.7159C76.0199 28.2102 75.8864 28.7898 75.8864 29.4545H73.875C73.875 28.4318 74.1108 27.5341 74.5824 26.7614C75.054 25.9886 75.696 25.3864 76.5085 24.9545C77.3267 24.5227 78.2443 24.3068 79.2614 24.3068C80.2841 24.3068 81.1903 24.5227 81.9801 24.9545C82.7699 25.3864 83.3892 25.9687 83.8381 26.7017C84.2869 27.4347 84.5114 28.25 84.5114 29.1477C84.5114 29.7898 84.3949 30.4176 84.1619 31.0312C83.9347 31.6392 83.5369 32.3182 82.9688 33.0682C82.4062 33.8125 81.625 34.7216 80.625 35.7955L76.7045 39.9886V40.125H84.8182V42H73.8068ZM88.3381 42V40.4659L94.0994 34.1591C94.7756 33.4205 95.3324 32.7784 95.7699 32.233C96.2074 31.6818 96.5313 31.1648 96.7415 30.6818C96.9574 30.1932 97.0653 29.6818 97.0653 29.1477C97.0653 28.5341 96.9176 28.0028 96.6222 27.554C96.3324 27.1051 95.9347 26.7585 95.429 26.5142C94.9233 26.2699 94.3551 26.1477 93.7244 26.1477C93.054 26.1477 92.4688 26.2869 91.9688 26.5653C91.4744 26.8381 91.0909 27.2216 90.8182 27.7159C90.5511 28.2102 90.4176 28.7898 90.4176 29.4545H88.4062C88.4062 28.4318 88.642 27.5341 89.1136 26.7614C89.5852 25.9886 90.2273 25.3864 91.0398 24.9545C91.858 24.5227 92.7756 24.3068 93.7926 24.3068C94.8153 24.3068 95.7216 24.5227 96.5114 24.9545C97.3011 25.3864 97.9205 25.9687 98.3693 26.7017C98.8182 27.4347 99.0426 28.25 99.0426 29.1477C99.0426 29.7898 98.9261 30.4176 98.6932 31.0312C98.4659 31.6392 98.0682 32.3182 97.5 33.0682C96.9375 33.8125 96.1562 34.7216 95.1562 35.7955L91.2358 39.9886V40.125H99.3494V42H88.3381Z" fill="white"/>
<defs>
<linearGradient id="paint0_linear_76_5" x1="64" y1="6.47097e-08" x2="65.1364" y2="109.797" gradientUnits="userSpaceOnUse">
<stop stop-color="#00BC6D" stop-opacity="0.99"/>
<stop offset="1" stop-color="#0500FF"/>
</linearGradient>
</defs>
</svg>
