<svg width="128" height="67" viewBox="0 0 128 67" fill="none" xmlns="http://www.w3.org/2000/svg">
<rect x="0.5" y="0.5" width="127" height="66" rx="14.5" fill="black" fill-opacity="0.95" stroke="white"/>
<path d="M46.2642 42V27.4545H52.0881C53.1581 27.4545 54.0507 27.6132 54.7656 27.9304C55.4806 28.2476 56.018 28.688 56.3778 29.2514C56.7377 29.8101 56.9176 30.4541 56.9176 31.1832C56.9176 31.7514 56.804 32.2509 56.5767 32.6818C56.3494 33.108 56.0369 33.4583 55.6392 33.733C55.2462 34.0028 54.7964 34.1946 54.2898 34.3082V34.4503C54.8438 34.474 55.3622 34.6302 55.8452 34.919C56.3329 35.2079 56.7282 35.6127 57.0312 36.1335C57.3343 36.6496 57.4858 37.2652 57.4858 37.9801C57.4858 38.7519 57.294 39.4408 56.9105 40.0469C56.5317 40.6482 55.9706 41.1241 55.2273 41.4744C54.4839 41.8248 53.5677 42 52.4787 42H46.2642ZM49.3395 39.4858H51.8466C52.7036 39.4858 53.3286 39.3224 53.7216 38.9957C54.1146 38.6643 54.3111 38.224 54.3111 37.6747C54.3111 37.2723 54.214 36.9171 54.0199 36.6094C53.8258 36.3016 53.5488 36.0601 53.1889 35.8849C52.8338 35.7098 52.41 35.6222 51.9176 35.6222H49.3395V39.4858ZM49.3395 33.5412H51.6193C52.0407 33.5412 52.4148 33.4678 52.7415 33.321C53.0729 33.1695 53.3333 32.9564 53.5227 32.6818C53.7169 32.4072 53.8139 32.0781 53.8139 31.6946C53.8139 31.169 53.6269 30.7453 53.2528 30.4233C52.8835 30.1013 52.358 29.9403 51.6761 29.9403H49.3395V33.5412ZM68.4712 27.4545H71.5465V36.9006C71.5465 37.9612 71.2932 38.8892 70.7866 39.6847C70.2847 40.4801 69.5816 41.1004 68.6772 41.5455C67.7728 41.9858 66.7193 42.206 65.5167 42.206C64.3093 42.206 63.2534 41.9858 62.3491 41.5455C61.4447 41.1004 60.7416 40.4801 60.2397 39.6847C59.7378 38.8892 59.4869 37.9612 59.4869 36.9006V27.4545H62.5621V36.6378C62.5621 37.1918 62.6829 37.6842 62.9244 38.1151C63.1706 38.5459 63.5162 38.8845 63.9613 39.1307C64.4064 39.3769 64.9248 39.5 65.5167 39.5C66.1133 39.5 66.6317 39.3769 67.0721 39.1307C67.5172 38.8845 67.8604 38.5459 68.1019 38.1151C68.3481 37.6842 68.4712 37.1918 68.4712 36.6378V27.4545ZM73.2244 27.4545H76.669L79.9858 33.7188H80.1278L83.4446 27.4545H86.8892L81.5838 36.858V42H78.5298V36.858L73.2244 27.4545Z" fill="white"/>
</svg>
