<svg width="128" height="67" viewBox="0 0 128 67" fill="none" xmlns="http://www.w3.org/2000/svg">
<rect width="128" height="67" rx="15" fill="url(#paint0_linear_76_6)"/>
<path d="M26.823 40.959L17 35.162L26.817 49.001L36.645 35.162L26.817 40.959H26.823ZM26.969 17L17.15 33.297L26.969 39.104L36.792 33.303L26.969 17Z" fill="white"/>
<path d="M58.5 42.2386C57.2159 42.2386 56.1222 41.8892 55.2188 41.1903C54.3153 40.4858 53.625 39.4659 53.1477 38.1307C52.6705 36.7898 52.4318 35.1705 52.4318 33.2727C52.4318 31.3864 52.6705 29.7756 53.1477 28.4403C53.6307 27.0994 54.3239 26.0767 55.2273 25.3722C56.1364 24.6619 57.2273 24.3068 58.5 24.3068C59.7727 24.3068 60.8608 24.6619 61.7642 25.3722C62.6733 26.0767 63.3665 27.0994 63.8438 28.4403C64.3267 29.7756 64.5682 31.3864 64.5682 33.2727C64.5682 35.1705 64.3295 36.7898 63.8523 38.1307C63.375 39.4659 62.6847 40.4858 61.7812 41.1903C60.8778 41.8892 59.7841 42.2386 58.5 42.2386ZM58.5 40.3636C59.7727 40.3636 60.7614 39.75 61.4659 38.5227C62.1705 37.2955 62.5227 35.5455 62.5227 33.2727C62.5227 31.7614 62.3608 30.4744 62.0369 29.4119C61.7188 28.3494 61.2585 27.5398 60.6562 26.983C60.0597 26.4261 59.3409 26.1477 58.5 26.1477C57.2386 26.1477 56.2528 26.7699 55.5426 28.0142C54.8324 29.2528 54.4773 31.0057 54.4773 33.2727C54.4773 34.7841 54.6364 36.0682 54.9545 37.125C55.2727 38.1818 55.7301 38.9858 56.3267 39.5369C56.929 40.0881 57.6534 40.3636 58.5 40.3636ZM68.6974 42.1364C68.277 42.1364 67.9162 41.9858 67.6151 41.6847C67.3139 41.3835 67.1634 41.0227 67.1634 40.6023C67.1634 40.1818 67.3139 39.821 67.6151 39.5199C67.9162 39.2187 68.277 39.0682 68.6974 39.0682C69.1179 39.0682 69.4787 39.2187 69.7798 39.5199C70.081 39.821 70.2315 40.1818 70.2315 40.6023C70.2315 40.8807 70.1605 41.1364 70.0185 41.3693C69.8821 41.6023 69.6974 41.7898 69.4645 41.9318C69.2372 42.0682 68.9815 42.1364 68.6974 42.1364ZM78.8906 42.2386C77.6065 42.2386 76.5128 41.8892 75.6094 41.1903C74.706 40.4858 74.0156 39.4659 73.5384 38.1307C73.0611 36.7898 72.8224 35.1705 72.8224 33.2727C72.8224 31.3864 73.0611 29.7756 73.5384 28.4403C74.0213 27.0994 74.7145 26.0767 75.6179 25.3722C76.527 24.6619 77.6179 24.3068 78.8906 24.3068C80.1634 24.3068 81.2514 24.6619 82.1548 25.3722C83.0639 26.0767 83.7571 27.0994 84.2344 28.4403C84.7173 29.7756 84.9588 31.3864 84.9588 33.2727C84.9588 35.1705 84.7202 36.7898 84.2429 38.1307C83.7656 39.4659 83.0753 40.4858 82.1719 41.1903C81.2685 41.8892 80.1747 42.2386 78.8906 42.2386ZM78.8906 40.3636C80.1634 40.3636 81.152 39.75 81.8565 38.5227C82.5611 37.2955 82.9134 35.5455 82.9134 33.2727C82.9134 31.7614 82.7514 30.4744 82.4276 29.4119C82.1094 28.3494 81.6491 27.5398 81.0469 26.983C80.4503 26.4261 79.7315 26.1477 78.8906 26.1477C77.6293 26.1477 76.6435 26.7699 75.9332 28.0142C75.223 29.2528 74.8679 31.0057 74.8679 33.2727C74.8679 34.7841 75.027 36.0682 75.3452 37.125C75.6634 38.1818 76.1207 38.9858 76.7173 39.5369C77.3196 40.0881 78.044 40.3636 78.8906 40.3636ZM94.0952 42.2386C92.9702 42.2386 91.9673 42.0455 91.0866 41.6591C90.2116 41.2727 89.5156 40.7358 88.9986 40.0483C88.4872 39.3551 88.2088 38.5511 88.1634 37.6364H90.3111C90.3565 38.1989 90.5497 38.6847 90.8906 39.0938C91.2315 39.4972 91.6776 39.8097 92.2287 40.0312C92.7798 40.2528 93.3906 40.3636 94.0611 40.3636C94.8111 40.3636 95.4759 40.233 96.0554 39.9716C96.6349 39.7102 97.0895 39.3466 97.419 38.8807C97.7486 38.4148 97.9134 37.875 97.9134 37.2614C97.9134 36.6193 97.7543 36.054 97.4361 35.5653C97.1179 35.071 96.652 34.6847 96.0384 34.4062C95.4247 34.1278 94.6747 33.9886 93.7884 33.9886H92.3906V32.1136H93.7884C94.4815 32.1136 95.0895 31.9886 95.6122 31.7386C96.1406 31.4886 96.5526 31.1364 96.848 30.6818C97.1491 30.2273 97.2997 29.6932 97.2997 29.0795C97.2997 28.4886 97.169 27.9744 96.9077 27.5369C96.6463 27.0994 96.277 26.7585 95.7997 26.5142C95.3281 26.2699 94.7713 26.1477 94.1293 26.1477C93.527 26.1477 92.9588 26.2585 92.4247 26.4801C91.8963 26.696 91.4645 27.0114 91.1293 27.4261C90.794 27.8352 90.6122 28.3295 90.5838 28.9091H88.5384C88.5724 27.9943 88.848 27.1932 89.3651 26.5057C89.8821 25.8125 90.5582 25.2727 91.3935 24.8864C92.2344 24.5 93.1577 24.3068 94.1634 24.3068C95.2429 24.3068 96.169 24.5256 96.9418 24.9631C97.7145 25.3949 98.3082 25.9659 98.723 26.6761C99.1378 27.3864 99.3452 28.1534 99.3452 28.9773C99.3452 29.9602 99.0866 30.7983 98.5696 31.4915C98.0582 32.1847 97.3622 32.6648 96.4815 32.9318V33.0682C97.5838 33.25 98.4446 33.7187 99.0639 34.4744C99.6832 35.2244 99.9929 36.1534 99.9929 37.2614C99.9929 38.2102 99.7344 39.0625 99.2173 39.8182C98.706 40.5682 98.0071 41.1591 97.1207 41.5909C96.2344 42.0227 95.2259 42.2386 94.0952 42.2386Z" fill="white"/>
<defs>
<linearGradient id="paint0_linear_76_6" x1="64" y1="6.47097e-08" x2="65.1364" y2="109.797" gradientUnits="userSpaceOnUse">
<stop stop-color="#00BC6D" stop-opacity="0.99"/>
<stop offset="1" stop-color="#0500FF"/>
</linearGradient>
</defs>
</svg>
