<svg width="128" height="67" viewBox="0 0 128 67" fill="none" xmlns="http://www.w3.org/2000/svg">
<rect width="128" height="67" rx="15" fill="url(#paint0_linear_76_7)"/>
<path d="M26.823 40.959L17 35.162L26.817 49.001L36.645 35.162L26.817 40.959H26.823ZM26.969 17L17.15 33.297L26.969 39.104L36.792 33.303L26.969 17Z" fill="white"/>
<path d="M58.5 42.2386C57.2159 42.2386 56.1222 41.8892 55.2188 41.1903C54.3153 40.4858 53.625 39.4659 53.1477 38.1307C52.6705 36.7898 52.4318 35.1705 52.4318 33.2727C52.4318 31.3864 52.6705 29.7756 53.1477 28.4403C53.6307 27.0994 54.3239 26.0767 55.2273 25.3722C56.1364 24.6619 57.2273 24.3068 58.5 24.3068C59.7727 24.3068 60.8608 24.6619 61.7642 25.3722C62.6733 26.0767 63.3665 27.0994 63.8438 28.4403C64.3267 29.7756 64.5682 31.3864 64.5682 33.2727C64.5682 35.1705 64.3295 36.7898 63.8523 38.1307C63.375 39.4659 62.6847 40.4858 61.7812 41.1903C60.8778 41.8892 59.7841 42.2386 58.5 42.2386ZM58.5 40.3636C59.7727 40.3636 60.7614 39.75 61.4659 38.5227C62.1705 37.2955 62.5227 35.5455 62.5227 33.2727C62.5227 31.7614 62.3608 30.4744 62.0369 29.4119C61.7188 28.3494 61.2585 27.5398 60.6562 26.983C60.0597 26.4261 59.3409 26.1477 58.5 26.1477C57.2386 26.1477 56.2528 26.7699 55.5426 28.0142C54.8324 29.2528 54.4773 31.0057 54.4773 33.2727C54.4773 34.7841 54.6364 36.0682 54.9545 37.125C55.2727 38.1818 55.7301 38.9858 56.3267 39.5369C56.929 40.0881 57.6534 40.3636 58.5 40.3636ZM68.6974 42.1364C68.277 42.1364 67.9162 41.9858 67.6151 41.6847C67.3139 41.3835 67.1634 41.0227 67.1634 40.6023C67.1634 40.1818 67.3139 39.821 67.6151 39.5199C67.9162 39.2187 68.277 39.0682 68.6974 39.0682C69.1179 39.0682 69.4787 39.2187 69.7798 39.5199C70.081 39.821 70.2315 40.1818 70.2315 40.6023C70.2315 40.8807 70.1605 41.1364 70.0185 41.3693C69.8821 41.6023 69.6974 41.7898 69.4645 41.9318C69.2372 42.0682 68.9815 42.1364 68.6974 42.1364ZM78.8906 42.2386C77.6065 42.2386 76.5128 41.8892 75.6094 41.1903C74.706 40.4858 74.0156 39.4659 73.5384 38.1307C73.0611 36.7898 72.8224 35.1705 72.8224 33.2727C72.8224 31.3864 73.0611 29.7756 73.5384 28.4403C74.0213 27.0994 74.7145 26.0767 75.6179 25.3722C76.527 24.6619 77.6179 24.3068 78.8906 24.3068C80.1634 24.3068 81.2514 24.6619 82.1548 25.3722C83.0639 26.0767 83.7571 27.0994 84.2344 28.4403C84.7173 29.7756 84.9588 31.3864 84.9588 33.2727C84.9588 35.1705 84.7202 36.7898 84.2429 38.1307C83.7656 39.4659 83.0753 40.4858 82.1719 41.1903C81.2685 41.8892 80.1747 42.2386 78.8906 42.2386ZM78.8906 40.3636C80.1634 40.3636 81.152 39.75 81.8565 38.5227C82.5611 37.2955 82.9134 35.5455 82.9134 33.2727C82.9134 31.7614 82.7514 30.4744 82.4276 29.4119C82.1094 28.3494 81.6491 27.5398 81.0469 26.983C80.4503 26.4261 79.7315 26.1477 78.8906 26.1477C77.6293 26.1477 76.6435 26.7699 75.9332 28.0142C75.223 29.2528 74.8679 31.0057 74.8679 33.2727C74.8679 34.7841 75.027 36.0682 75.3452 37.125C75.6634 38.1818 76.1207 38.9858 76.7173 39.5369C77.3196 40.0881 78.044 40.3636 78.8906 40.3636ZM88.2741 42L96.081 26.5568V26.4205H87.081V24.5455H98.2628V26.5227L90.4901 42H88.2741Z" fill="white"/>
<defs>
<linearGradient id="paint0_linear_76_7" x1="64" y1="6.47097e-08" x2="65.1364" y2="109.797" gradientUnits="userSpaceOnUse">
<stop stop-color="#00BC6D" stop-opacity="0.99"/>
<stop offset="1" stop-color="#0500FF"/>
</linearGradient>
</defs>
</svg>
