<svg width="128" height="67" viewBox="0 0 128 67" fill="none" xmlns="http://www.w3.org/2000/svg">
<rect width="128" height="67" rx="15" fill="url(#paint0_linear_76_8)"/>
<path d="M26.823 40.959L17 35.162L26.817 49.001L36.645 35.162L26.817 40.959H26.823ZM26.969 17L17.15 33.297L26.969 39.104L36.792 33.303L26.969 17Z" fill="white"/>
<path d="M58.5 42.2386C57.2159 42.2386 56.1222 41.8892 55.2188 41.1903C54.3153 40.4858 53.625 39.4659 53.1477 38.1307C52.6705 36.7898 52.4318 35.1705 52.4318 33.2727C52.4318 31.3864 52.6705 29.7756 53.1477 28.4403C53.6307 27.0994 54.3239 26.0767 55.2273 25.3722C56.1364 24.6619 57.2273 24.3068 58.5 24.3068C59.7727 24.3068 60.8608 24.6619 61.7642 25.3722C62.6733 26.0767 63.3665 27.0994 63.8438 28.4403C64.3267 29.7756 64.5682 31.3864 64.5682 33.2727C64.5682 35.1705 64.3295 36.7898 63.8523 38.1307C63.375 39.4659 62.6847 40.4858 61.7812 41.1903C60.8778 41.8892 59.7841 42.2386 58.5 42.2386ZM58.5 40.3636C59.7727 40.3636 60.7614 39.75 61.4659 38.5227C62.1705 37.2955 62.5227 35.5455 62.5227 33.2727C62.5227 31.7614 62.3608 30.4744 62.0369 29.4119C61.7188 28.3494 61.2585 27.5398 60.6562 26.983C60.0597 26.4261 59.3409 26.1477 58.5 26.1477C57.2386 26.1477 56.2528 26.7699 55.5426 28.0142C54.8324 29.2528 54.4773 31.0057 54.4773 33.2727C54.4773 34.7841 54.6364 36.0682 54.9545 37.125C55.2727 38.1818 55.7301 38.9858 56.3267 39.5369C56.929 40.0881 57.6534 40.3636 58.5 40.3636ZM68.6974 42.1364C68.277 42.1364 67.9162 41.9858 67.6151 41.6847C67.3139 41.3835 67.1634 41.0227 67.1634 40.6023C67.1634 40.1818 67.3139 39.821 67.6151 39.5199C67.9162 39.2187 68.277 39.0682 68.6974 39.0682C69.1179 39.0682 69.4787 39.2187 69.7798 39.5199C70.081 39.821 70.2315 40.1818 70.2315 40.6023C70.2315 40.8807 70.1605 41.1364 70.0185 41.3693C69.8821 41.6023 69.6974 41.7898 69.4645 41.9318C69.2372 42.0682 68.9815 42.1364 68.6974 42.1364ZM77.8572 24.5455V42H75.7436V26.7614H75.6413L71.38 29.5909V27.4432L75.7436 24.5455H77.8572ZM88.3317 42.2386C87.3317 42.2386 86.4311 42.0398 85.63 41.642C84.8288 41.2443 84.1868 40.6989 83.7038 40.0057C83.2209 39.3125 82.9567 38.5227 82.9112 37.6364H84.9567C85.0362 38.4261 85.3942 39.0795 86.0305 39.5966C86.6726 40.108 87.4396 40.3636 88.3317 40.3636C89.0476 40.3636 89.6839 40.196 90.2408 39.8608C90.8033 39.5256 91.2436 39.0653 91.5618 38.4801C91.8857 37.8892 92.0476 37.2216 92.0476 36.4773C92.0476 35.7159 91.88 35.0369 91.5447 34.4403C91.2152 33.8381 90.7607 33.3636 90.1811 33.017C89.6016 32.6705 88.9396 32.4943 88.1953 32.4886C87.6612 32.483 87.1129 32.5653 86.5504 32.7358C85.9879 32.9006 85.5249 33.1136 85.1612 33.375L83.1839 33.1364L84.2408 24.5455H93.3089V26.4205H86.0135L85.3999 31.5682H85.5021C85.8601 31.2841 86.3089 31.0483 86.8487 30.8608C87.3885 30.6733 87.951 30.5795 88.5362 30.5795C89.6044 30.5795 90.5561 30.8352 91.3913 31.3466C92.2322 31.8523 92.8913 32.5455 93.3686 33.4261C93.8516 34.3068 94.093 35.3125 94.093 36.4432C94.093 37.5568 93.843 38.5511 93.343 39.4261C92.8487 40.2955 92.1669 40.983 91.2976 41.4886C90.4283 41.9886 89.4396 42.2386 88.3317 42.2386Z" fill="white"/>
<defs>
<linearGradient id="paint0_linear_76_8" x1="64" y1="6.47097e-08" x2="65.1364" y2="109.797" gradientUnits="userSpaceOnUse">
<stop stop-color="#00BC6D" stop-opacity="0.99"/>
<stop offset="1" stop-color="#0500FF"/>
</linearGradient>
</defs>
</svg>
