<svg width="194" height="74" viewBox="0 0 194 74" fill="none" xmlns="http://www.w3.org/2000/svg">
<rect width="194" height="74" rx="25" fill="url(#paint0_linear_58_22)"/>
<path d="M58.536 29.528V34.424H64.296V36.656H58.536V41.768H65.016V44H55.8V27.296H65.016V29.528H58.536ZM74.0499 37.304L78.3219 44H75.2259L72.3699 39.512L69.6819 44H66.8259L71.0979 37.496L66.8259 30.776H69.9219L72.7779 35.264L75.4659 30.776H78.3219L74.0499 37.304ZM83.0985 32.72C83.5625 32.112 84.1945 31.6 84.9945 31.184C85.7945 30.768 86.6985 30.56 87.7065 30.56C88.8585 30.56 89.9065 30.848 90.8505 31.424C91.8105 31.984 92.5625 32.776 93.1065 33.8C93.6505 34.824 93.9225 36 93.9225 37.328C93.9225 38.656 93.6505 39.848 93.1065 40.904C92.5625 41.944 91.8105 42.76 90.8505 43.352C89.9065 43.928 88.8585 44.216 87.7065 44.216C86.6985 44.216 85.8025 44.016 85.0185 43.616C84.2345 43.2 83.5945 42.688 83.0985 42.08V50.288H80.3625V30.776H83.0985V32.72ZM91.1385 37.328C91.1385 36.416 90.9465 35.632 90.5625 34.976C90.1945 34.304 89.6985 33.8 89.0745 33.464C88.4665 33.112 87.8105 32.936 87.1065 32.936C86.4185 32.936 85.7625 33.112 85.1385 33.464C84.5305 33.816 84.0345 34.328 83.6505 35C83.2825 35.672 83.0985 36.464 83.0985 37.376C83.0985 38.288 83.2825 39.088 83.6505 39.776C84.0345 40.448 84.5305 40.96 85.1385 41.312C85.7625 41.664 86.4185 41.84 87.1065 41.84C87.8105 41.84 88.4665 41.664 89.0745 41.312C89.6985 40.944 90.1945 40.416 90.5625 39.728C90.9465 39.04 91.1385 38.24 91.1385 37.328ZM99.3641 26.24V44H96.6281V26.24H99.3641ZM108.692 44.216C107.444 44.216 106.316 43.936 105.308 43.376C104.3 42.8 103.508 42 102.932 40.976C102.356 39.936 102.068 38.736 102.068 37.376C102.068 36.032 102.364 34.84 102.956 33.8C103.548 32.76 104.356 31.96 105.38 31.4C106.404 30.84 107.548 30.56 108.812 30.56C110.076 30.56 111.22 30.84 112.244 31.4C113.268 31.96 114.076 32.76 114.668 33.8C115.26 34.84 115.556 36.032 115.556 37.376C115.556 38.72 115.252 39.912 114.644 40.952C114.036 41.992 113.204 42.8 112.148 43.376C111.108 43.936 109.956 44.216 108.692 44.216ZM108.692 41.84C109.396 41.84 110.052 41.672 110.66 41.336C111.284 41 111.788 40.496 112.172 39.824C112.556 39.152 112.748 38.336 112.748 37.376C112.748 36.416 112.564 35.608 112.196 34.952C111.828 34.28 111.34 33.776 110.732 33.44C110.124 33.104 109.468 32.936 108.764 32.936C108.06 32.936 107.404 33.104 106.796 33.44C106.204 33.776 105.732 34.28 105.38 34.952C105.028 35.608 104.852 36.416 104.852 37.376C104.852 38.8 105.212 39.904 105.932 40.688C106.668 41.456 107.588 41.84 108.692 41.84ZM120.997 32.696C121.397 32.024 121.925 31.504 122.581 31.136C123.253 30.752 124.045 30.56 124.957 30.56V33.392H124.261C123.189 33.392 122.373 33.664 121.813 34.208C121.269 34.752 120.997 35.696 120.997 37.04V44H118.261V30.776H120.997V32.696ZM139.592 37.064C139.592 37.56 139.56 38.008 139.496 38.408H129.392C129.472 39.464 129.864 40.312 130.568 40.952C131.272 41.592 132.136 41.912 133.16 41.912C134.632 41.912 135.672 41.296 136.28 40.064H139.232C138.832 41.28 138.104 42.28 137.048 43.064C136.008 43.832 134.712 44.216 133.16 44.216C131.896 44.216 130.76 43.936 129.752 43.376C128.76 42.8 127.976 42 127.4 40.976C126.84 39.936 126.56 38.736 126.56 37.376C126.56 36.016 126.832 34.824 127.376 33.8C127.936 32.76 128.712 31.96 129.704 31.4C130.712 30.84 131.864 30.56 133.16 30.56C134.408 30.56 135.52 30.832 136.496 31.376C137.472 31.92 138.232 32.688 138.776 33.68C139.32 34.656 139.592 35.784 139.592 37.064ZM136.736 36.2C136.72 35.192 136.36 34.384 135.656 33.776C134.952 33.168 134.08 32.864 133.04 32.864C132.096 32.864 131.288 33.168 130.616 33.776C129.944 34.368 129.544 35.176 129.416 36.2H136.736Z" fill="white"/>
<defs>
<linearGradient id="paint0_linear_58_22" x1="97" y1="0" x2="97" y2="74" gradientUnits="userSpaceOnUse">
<stop stop-color="#00BC6D" stop-opacity="0.99"/>
<stop offset="1" stop-color="#030087"/>
</linearGradient>
</defs>
</svg>
